M48
; DRILL file {KiCad 7.0.1} date Tue Nov 14 17:38:43 2023
; FORMAT={-:-/ absolute / inch / decimal}
; #@! TF.CreationDate,2023-11-14T17:38:43+01:00
; #@! TF.GenerationSoftware,Kicad,Pcbnew,7.0.1
; #@! TF.FileFunction,MixedPlating,1,2
FMAT,2
INCH
; #@! TA.AperFunction,Plated,PTH,ViaDrill
T1C0.0157
; #@! TA.AperFunction,Plated,PTH,ComponentDrill
T2C0.0276
; #@! TA.AperFunction,Plated,PTH,ComponentDrill
T3C0.0354
; #@! TA.AperFunction,Plated,PTH,ComponentDrill
T4C0.0394
; #@! TA.AperFunction,Plated,PTH,ComponentDrill
T5C0.0512
; #@! TA.AperFunction,Plated,PTH,ComponentDrill
T6C0.0571
; #@! TA.AperFunction,NonPlated,NPTH,ComponentDrill
T7C0.0988
; #@! TA.AperFunction,NonPlated,NPTH,ComponentDrill
T8C0.1303
; #@! TA.AperFunction,NonPlated,NPTH,ComponentDrill
T9C0.1449
%
G90
G05
T1
X4.08Y-3.0
X4.22Y-3.8
X4.36Y-3.8
X4.38Y-2.92
X4.43Y-3.09
X4.44Y-3.0
X4.47Y-4.33
X4.53Y-2.92
X4.6Y-4.34
X4.69Y-3.11
X4.69Y-4.49
X4.75Y-4.33
X4.81Y-4.26
X4.82Y-3.97
X4.82Y-3.97
X4.86Y-4.32
X4.95Y-2.91
X4.95Y-3.06
X4.95Y-3.15
X4.95Y-3.31
X4.96Y-3.58
X5.03Y-4.29
X5.12Y-3.69
X5.13Y-3.9
X5.15Y-4.2
X5.17Y-4.1
X5.19Y-4.15
X5.1983Y-4.25
X5.37Y-3.25
X5.44Y-3.47
X5.44Y-3.76
X5.47Y-2.87
X5.58Y-4.33
X5.64Y-4.29
X5.7Y-4.33
X5.81Y-3.27
X5.93Y-3.34
X5.9313Y-3.16
X6.1672Y-2.9428
X6.17Y-4.37
X6.1979Y-3.21
X6.1994Y-3.34
X6.22Y-4.32
X6.26Y-3.14
X6.29Y-4.46
X6.31Y-3.49
X6.34Y-4.41
X6.35Y-2.82
X6.37Y-3.71
X6.3722Y-3.8833
X6.45Y-4.07
X6.46Y-3.1
T2
X4.89Y-4.38
X4.89Y-4.43
X4.94Y-4.38
X4.94Y-4.43
X4.99Y-4.38
X4.99Y-4.43
X5.04Y-4.38
X5.04Y-4.43
X5.09Y-4.38
X5.09Y-4.43
X5.6511Y-3.2234
T3
X5.2968Y-2.8966
T4
X5.3202Y-4.38
X5.4202Y-4.38
T5
X4.05Y-4.36
X4.15Y-4.36
T6
X4.0567Y-3.12
X4.0567Y-3.8731
X6.9Y-3.12
X6.9Y-3.8731
T7
X6.9Y-4.1856
T8
X4.4031Y-3.496
X6.5764Y-3.496
T9
X4.4031Y-4.1856
X6.5764Y-2.8076
T0
M30
