%TF.GenerationSoftware,KiCad,Pcbnew,7.0.1*%
%TF.CreationDate,2023-11-12T14:47:07+01:00*%
%TF.ProjectId,Central_pcb,43656e74-7261-46c5-9f70-63622e6b6963,rev?*%
%TF.SameCoordinates,Original*%
%TF.FileFunction,Copper,L1,Top*%
%TF.FilePolarity,Positive*%
%FSLAX46Y46*%
G04 Gerber Fmt 4.6, Leading zero omitted, Abs format (unit mm)*
G04 Created by KiCad (PCBNEW 7.0.1) date 2023-11-12 14:47:07*
%MOMM*%
%LPD*%
G01*
G04 APERTURE LIST*
G04 Aperture macros list*
%AMRoundRect*
0 Rectangle with rounded corners*
0 $1 Rounding radius*
0 $2 $3 $4 $5 $6 $7 $8 $9 X,Y pos of 4 corners*
0 Add a 4 corners polygon primitive as box body*
4,1,4,$2,$3,$4,$5,$6,$7,$8,$9,$2,$3,0*
0 Add four circle primitives for the rounded corners*
1,1,$1+$1,$2,$3*
1,1,$1+$1,$4,$5*
1,1,$1+$1,$6,$7*
1,1,$1+$1,$8,$9*
0 Add four rect primitives between the rounded corners*
20,1,$1+$1,$2,$3,$4,$5,0*
20,1,$1+$1,$4,$5,$6,$7,0*
20,1,$1+$1,$6,$7,$8,$9,0*
20,1,$1+$1,$8,$9,$2,$3,0*%
G04 Aperture macros list end*
%TA.AperFunction,SMDPad,CuDef*%
%ADD10RoundRect,0.250000X-0.475000X0.337500X-0.475000X-0.337500X0.475000X-0.337500X0.475000X0.337500X0*%
%TD*%
%TA.AperFunction,ComponentPad*%
%ADD11R,2.000000X2.000000*%
%TD*%
%TA.AperFunction,ComponentPad*%
%ADD12O,2.000000X2.000000*%
%TD*%
%TA.AperFunction,ComponentPad*%
%ADD13R,1.000000X1.000000*%
%TD*%
%TA.AperFunction,ComponentPad*%
%ADD14O,1.000000X1.000000*%
%TD*%
%TA.AperFunction,SMDPad,CuDef*%
%ADD15R,1.100000X2.250000*%
%TD*%
%TA.AperFunction,SMDPad,CuDef*%
%ADD16R,1.050000X1.100000*%
%TD*%
%TA.AperFunction,ComponentPad*%
%ADD17C,2.175000*%
%TD*%
%TA.AperFunction,SMDPad,CuDef*%
%ADD18R,2.250000X1.100000*%
%TD*%
%TA.AperFunction,SMDPad,CuDef*%
%ADD19R,1.100000X1.050000*%
%TD*%
%TA.AperFunction,ComponentPad*%
%ADD20R,1.700000X1.700000*%
%TD*%
%TA.AperFunction,ComponentPad*%
%ADD21O,1.700000X1.700000*%
%TD*%
%TA.AperFunction,ComponentPad*%
%ADD22C,1.500000*%
%TD*%
%TA.AperFunction,ComponentPad*%
%ADD23C,1.200000*%
%TD*%
%TA.AperFunction,ViaPad*%
%ADD24C,0.800000*%
%TD*%
%TA.AperFunction,Conductor*%
%ADD25C,0.200000*%
%TD*%
%TA.AperFunction,Conductor*%
%ADD26C,0.508000*%
%TD*%
G04 APERTURE END LIST*
D10*
%TO.P,C23,1*%
%TO.N,GND*%
X115062000Y-109960500D03*
%TO.P,C23,2*%
%TO.N,Net-(J4-SIG)*%
X115062000Y-112035500D03*
%TD*%
D11*
%TO.P,J6,1,Pin_1*%
%TO.N,Net-(J6-Pin_1)*%
X105410000Y-110744000D03*
D12*
%TO.P,J6,2,Pin_2*%
%TO.N,GND*%
X102870000Y-110744000D03*
%TD*%
D13*
%TO.P,J1,1,VTref*%
%TO.N,+3.3V*%
X129286000Y-112522000D03*
D14*
%TO.P,J1,2,SWDIO/TMS*%
%TO.N,Net-(J1-SWDIO{slash}TMS)*%
X129286000Y-111252000D03*
%TO.P,J1,3,GND*%
%TO.N,GND*%
X128016000Y-112522000D03*
%TO.P,J1,4,SWDCLK/TCK*%
%TO.N,Net-(J1-SWDCLK{slash}TCK)*%
X128016000Y-111252000D03*
%TO.P,J1,5,GND*%
%TO.N,GND*%
X126746000Y-112522000D03*
%TO.P,J1,6,SWO/TDO*%
%TO.N,SW0*%
X126746000Y-111252000D03*
%TO.P,J1,7,KEY*%
%TO.N,unconnected-(J1-KEY-Pad7)*%
X125476000Y-112522000D03*
%TO.P,J1,8,NC/TDI*%
%TO.N,unconnected-(J1-NC{slash}TDI-Pad8)*%
X125476000Y-111252000D03*
%TO.P,J1,9,GNDDetect*%
%TO.N,GND*%
X124206000Y-112522000D03*
%TO.P,J1,10,~{RESET}*%
%TO.N,Nreset*%
X124206000Y-111252000D03*
%TD*%
D15*
%TO.P,J2,1,GND*%
%TO.N,GND*%
X144731000Y-111532000D03*
%TO.P,J2,2,GND*%
X141781000Y-111532000D03*
D16*
%TO.P,J2,3,SIG*%
%TO.N,Net-(J2-SIG)*%
X143256000Y-109982000D03*
%TD*%
D17*
%TO.P,BT1,N1*%
%TO.N,Net-(BT1-PadN1)*%
X175260000Y-79248000D03*
%TO.P,BT1,N2*%
%TO.N,GND*%
X103040000Y-98378000D03*
%TO.P,BT1,P1*%
%TO.N,Net-(U2-OUT)*%
X103040000Y-79248000D03*
%TO.P,BT1,P2*%
%TO.N,Net-(BT1-PadN1)*%
X175260000Y-98378000D03*
%TD*%
D18*
%TO.P,J4,1,GND*%
%TO.N,GND*%
X119126000Y-110285000D03*
%TO.P,J4,2,GND*%
X119126000Y-113235000D03*
D19*
%TO.P,J4,3,SIG*%
%TO.N,Net-(J4-SIG)*%
X117576000Y-111760000D03*
%TD*%
D20*
%TO.P,J3,1,Pin_1*%
%TO.N,Net-(J3-Pin_1)*%
X137673000Y-111252000D03*
D21*
%TO.P,J3,2,Pin_2*%
%TO.N,Net-(J3-Pin_2)*%
X135133000Y-111252000D03*
%TD*%
D22*
%TO.P,J5,1*%
%TO.N,N/C*%
X134538000Y-73574000D03*
D23*
%TO.P,J5,2*%
X143538000Y-81874000D03*
%TD*%
D24*
%TO.N,+3.3V*%
X130302000Y-99060000D03*
X132036998Y-107528000D03*
X112776000Y-76200000D03*
X122428000Y-100838000D03*
X138176000Y-88138000D03*
X122428000Y-100838000D03*
X119126000Y-78994000D03*
X125730000Y-77724000D03*
X138176000Y-95504000D03*
X103632000Y-76200000D03*
X125730000Y-84074000D03*
X125730000Y-80010000D03*
X125730000Y-73914000D03*
%TO.N,GND*%
X130048000Y-93726000D03*
X111252000Y-74168000D03*
X150622000Y-84836000D03*
X156718000Y-110998000D03*
X156645999Y-74748001D03*
X107188000Y-96520000D03*
X119126000Y-114046000D03*
X157464300Y-84836000D03*
X164084000Y-78740000D03*
X110744000Y-96520000D03*
X161290000Y-71628000D03*
X159004000Y-79756000D03*
X115062000Y-74168000D03*
X161036000Y-112014000D03*
X159766000Y-113284000D03*
X157988000Y-109728000D03*
X120650000Y-109982000D03*
X141732000Y-109982000D03*
X125984000Y-90932000D03*
X113538000Y-109982000D03*
X144780000Y-109982000D03*
%TO.N,Net-(U2-OUT)*%
X112522000Y-78486000D03*
%TO.N,Net-(J5-VCC)*%
X147574000Y-83058000D03*
X160274000Y-88646000D03*
%TO.N,Net-(J1-SWDIO{slash}TMS)*%
X127762000Y-108966000D03*
X122174000Y-108204000D03*
%TO.N,Net-(J1-SWDCLK{slash}TCK)*%
X123444000Y-109728000D03*
%TO.N,Net-(J5-RST)*%
X157426800Y-81534000D03*
X138938000Y-72898000D03*
%TO.N,Net-(J5-I{slash}O)*%
X150654000Y-80264000D03*
X136398000Y-82550000D03*
%TO.N,RI_BC660*%
X130810000Y-106426000D03*
X163830000Y-103378000D03*
%TO.N,RESET_BC660*%
X131064000Y-104902000D03*
X161798000Y-94234000D03*
%TO.N,PSM_EINT_BC660*%
X161852964Y-98636001D03*
X131826000Y-105664000D03*
%TO.N,Net-(J4-SIG)*%
X116840000Y-110236000D03*
%TO.N,Net-(J2-SIG)*%
X143256000Y-108966000D03*
%TD*%
D25*
%TO.N,+3.3V*%
X129286000Y-112522000D02*
X132036998Y-109771002D01*
X132036998Y-109771002D02*
X132036998Y-107528000D01*
D26*
%TO.N,GND*%
X119126000Y-112981000D02*
X119126000Y-114046000D01*
D25*
X157988000Y-109728000D02*
X160274000Y-112014000D01*
D26*
X144731000Y-111532000D02*
X144731000Y-110031000D01*
X113559500Y-109960500D02*
X113538000Y-109982000D01*
X161290000Y-71628000D02*
X159766000Y-71628000D01*
X115062000Y-109960500D02*
X113559500Y-109960500D01*
X141781000Y-110031000D02*
X141732000Y-109982000D01*
D25*
X130048000Y-93726000D02*
X128778000Y-93726000D01*
X156718000Y-110998000D02*
X159004000Y-113284000D01*
D26*
X120601000Y-110031000D02*
X120650000Y-109982000D01*
X144731000Y-110031000D02*
X144780000Y-109982000D01*
X159766000Y-71628000D02*
X156645999Y-74748001D01*
X111252000Y-74168000D02*
X115062000Y-74168000D01*
X119126000Y-110031000D02*
X120601000Y-110031000D01*
X159004000Y-79756000D02*
X160020000Y-78740000D01*
D25*
X128778000Y-93726000D02*
X125984000Y-90932000D01*
X160274000Y-112014000D02*
X161036000Y-112014000D01*
X159004000Y-113284000D02*
X159766000Y-113284000D01*
D26*
X150622000Y-84836000D02*
X157464300Y-84836000D01*
X141781000Y-111532000D02*
X141781000Y-110031000D01*
X160020000Y-78740000D02*
X164084000Y-78740000D01*
D25*
X110744000Y-96520000D02*
X107188000Y-96520000D01*
D26*
%TO.N,Net-(U2-OUT)*%
X103040000Y-79107000D02*
X111901000Y-79107000D01*
X111901000Y-79107000D02*
X112522000Y-78486000D01*
%TO.N,Net-(J5-VCC)*%
X158750000Y-83058000D02*
X147574000Y-83058000D01*
X160274000Y-88646000D02*
X160274000Y-84582000D01*
X160274000Y-84582000D02*
X158750000Y-83058000D01*
D25*
%TO.N,Net-(J1-SWDIO{slash}TMS)*%
X122936000Y-108966000D02*
X122174000Y-108204000D01*
X127762000Y-108966000D02*
X122936000Y-108966000D01*
%TO.N,Net-(J1-SWDCLK{slash}TCK)*%
X128016000Y-111252000D02*
X126492000Y-109728000D01*
X126492000Y-109728000D02*
X123444000Y-109728000D01*
D26*
%TO.N,Net-(J5-RST)*%
X138938000Y-72898000D02*
X148790800Y-72898000D01*
X148790800Y-72898000D02*
X157426800Y-81534000D01*
%TO.N,Net-(J5-I{slash}O)*%
X138430000Y-80264000D02*
X136398000Y-82296000D01*
X136398000Y-82296000D02*
X136398000Y-82550000D01*
X150654000Y-80264000D02*
X143798840Y-80264000D01*
X143798840Y-80264000D02*
X138430000Y-80264000D01*
%TO.N,RI_BC660*%
X160782000Y-106426000D02*
X130810000Y-106426000D01*
X163830000Y-103378000D02*
X160782000Y-106426000D01*
%TO.N,RESET_BC660*%
X161798000Y-94234000D02*
X151130000Y-104902000D01*
X151130000Y-104902000D02*
X131064000Y-104902000D01*
%TO.N,PSM_EINT_BC660*%
X154824965Y-105664000D02*
X161852964Y-98636001D01*
X131826000Y-105664000D02*
X154824965Y-105664000D01*
%TO.N,Net-(J4-SIG)*%
X117300500Y-112035500D02*
X115062000Y-112035500D01*
X117576000Y-111760000D02*
X117300500Y-112035500D01*
X116840000Y-110236000D02*
X116840000Y-111024000D01*
X116840000Y-111024000D02*
X117576000Y-111760000D01*
%TO.N,Net-(J2-SIG)*%
X143256000Y-109982000D02*
X143256000Y-108966000D01*
%TD*%
%TA.AperFunction,Conductor*%
%TO.N,+3.3V*%
G36*
X177737432Y-68850746D02*
G01*
X177782854Y-68896459D01*
X177799200Y-68958795D01*
X177546787Y-108335202D01*
X177529980Y-108396747D01*
X177484798Y-108441790D01*
X177423201Y-108458406D01*
X144138383Y-108568621D01*
X144076149Y-108552111D01*
X144030585Y-108506621D01*
X144006130Y-108464263D01*
X143988533Y-108433783D01*
X143861870Y-108293110D01*
X143708730Y-108181848D01*
X143535802Y-108104855D01*
X143350648Y-108065500D01*
X143350646Y-108065500D01*
X143161354Y-108065500D01*
X143161352Y-108065500D01*
X142976197Y-108104855D01*
X142803269Y-108181848D01*
X142650129Y-108293110D01*
X142523467Y-108433782D01*
X142478034Y-108512475D01*
X142432824Y-108557759D01*
X142371058Y-108574473D01*
X128673948Y-108619827D01*
X128611715Y-108603318D01*
X128566150Y-108557828D01*
X128494533Y-108433783D01*
X128367870Y-108293110D01*
X128214730Y-108181848D01*
X128041802Y-108104855D01*
X127856648Y-108065500D01*
X127856646Y-108065500D01*
X127667354Y-108065500D01*
X127667352Y-108065500D01*
X127482197Y-108104855D01*
X127309269Y-108181848D01*
X127156128Y-108293111D01*
X127127890Y-108324473D01*
X127086176Y-108354780D01*
X127035741Y-108365500D01*
X123236097Y-108365500D01*
X123188644Y-108356061D01*
X123148416Y-108329181D01*
X123115934Y-108296699D01*
X123086725Y-108250402D01*
X123082746Y-108216759D01*
X123080822Y-108216962D01*
X123079460Y-108204000D01*
X123059674Y-108015744D01*
X123001179Y-107835716D01*
X123001179Y-107835715D01*
X122906533Y-107671783D01*
X122779870Y-107531110D01*
X122626730Y-107419848D01*
X122453802Y-107342855D01*
X122268648Y-107303500D01*
X122268646Y-107303500D01*
X122079354Y-107303500D01*
X122079352Y-107303500D01*
X121894197Y-107342855D01*
X121721269Y-107419848D01*
X121568129Y-107531110D01*
X121441466Y-107671783D01*
X121346820Y-107835715D01*
X121288326Y-108015742D01*
X121268540Y-108204000D01*
X121288326Y-108392259D01*
X121317569Y-108482259D01*
X121322127Y-108539873D01*
X121300076Y-108593296D01*
X121256207Y-108630921D01*
X121200049Y-108644575D01*
X100961620Y-108711590D01*
X100899675Y-108695246D01*
X100854155Y-108650165D01*
X100837212Y-108588383D01*
X100822253Y-106239870D01*
X109745671Y-106239870D01*
X109755874Y-106532048D01*
X109770370Y-106614256D01*
X109806643Y-106819973D01*
X109896989Y-107098027D01*
X110025153Y-107360802D01*
X110188641Y-107603183D01*
X110188643Y-107603185D01*
X110369311Y-107803839D01*
X110384270Y-107820452D01*
X110608234Y-108008380D01*
X110856173Y-108163309D01*
X111123261Y-108282225D01*
X111161222Y-108293110D01*
X111404297Y-108362811D01*
X111693816Y-108403500D01*
X111693818Y-108403500D01*
X111913005Y-108403500D01*
X111913006Y-108403500D01*
X112131652Y-108388211D01*
X112417627Y-108327425D01*
X112692359Y-108227430D01*
X112950501Y-108090174D01*
X113187029Y-107918327D01*
X113397338Y-107715233D01*
X113577335Y-107484847D01*
X113723517Y-107231653D01*
X113833039Y-106960578D01*
X113903768Y-106676898D01*
X113930138Y-106426000D01*
X129904540Y-106426000D01*
X129924326Y-106614257D01*
X129982820Y-106794284D01*
X130077466Y-106958216D01*
X130204129Y-107098889D01*
X130357269Y-107210151D01*
X130530197Y-107287144D01*
X130715352Y-107326500D01*
X130715354Y-107326500D01*
X130904646Y-107326500D01*
X130904648Y-107326500D01*
X131028083Y-107300262D01*
X131089803Y-107287144D01*
X131262730Y-107210151D01*
X131270949Y-107204179D01*
X131305513Y-107186569D01*
X131343831Y-107180500D01*
X160718000Y-107180500D01*
X160735970Y-107181809D01*
X160739723Y-107182358D01*
X160759906Y-107185315D01*
X160809547Y-107180972D01*
X160820355Y-107180500D01*
X160825943Y-107180500D01*
X160856903Y-107176881D01*
X160860441Y-107176519D01*
X160935612Y-107169943D01*
X160935617Y-107169941D01*
X160936832Y-107169835D01*
X160956027Y-107165580D01*
X160957179Y-107165160D01*
X160957184Y-107165160D01*
X161028074Y-107139357D01*
X161031434Y-107138190D01*
X161103036Y-107114464D01*
X161103041Y-107114460D01*
X161104202Y-107114076D01*
X161121902Y-107105507D01*
X161122919Y-107104837D01*
X161122924Y-107104836D01*
X161185967Y-107063371D01*
X161188959Y-107061465D01*
X161253154Y-107021870D01*
X161253154Y-107021869D01*
X161254193Y-107021229D01*
X161269444Y-107008805D01*
X161270281Y-107007917D01*
X161270285Y-107007915D01*
X161322071Y-106953023D01*
X161324516Y-106950506D01*
X161901208Y-106373814D01*
X173750826Y-106373814D01*
X173780126Y-106615120D01*
X173847752Y-106848592D01*
X173847753Y-106848595D01*
X173951957Y-107068199D01*
X174090038Y-107268244D01*
X174258421Y-107443549D01*
X174452744Y-107589573D01*
X174667974Y-107702535D01*
X174898538Y-107779509D01*
X175091904Y-107810933D01*
X175138462Y-107818500D01*
X175138463Y-107818500D01*
X175320672Y-107818500D01*
X175320673Y-107818500D01*
X175502285Y-107803839D01*
X175738295Y-107745668D01*
X175961917Y-107650391D01*
X176167360Y-107520477D01*
X176349303Y-107359289D01*
X176503033Y-107171004D01*
X176624570Y-106960496D01*
X176710765Y-106733219D01*
X176759385Y-106495058D01*
X176769173Y-106252182D01*
X176739874Y-106010882D01*
X176672247Y-105777405D01*
X176568043Y-105557801D01*
X176429962Y-105357756D01*
X176261579Y-105182451D01*
X176067256Y-105036427D01*
X175949451Y-104974597D01*
X175852025Y-104923464D01*
X175621463Y-104846491D01*
X175381538Y-104807500D01*
X175381537Y-104807500D01*
X175199327Y-104807500D01*
X175017714Y-104822161D01*
X175017715Y-104822161D01*
X174781701Y-104880333D01*
X174558083Y-104975608D01*
X174352640Y-105105523D01*
X174170697Y-105266710D01*
X174016966Y-105454996D01*
X173895430Y-105665503D01*
X173809234Y-105892782D01*
X173760614Y-106130942D01*
X173750826Y-106373814D01*
X161901208Y-106373814D01*
X163989955Y-104285067D01*
X164018466Y-104263777D01*
X164051846Y-104251462D01*
X164109803Y-104239144D01*
X164109804Y-104239143D01*
X164109806Y-104239143D01*
X164282730Y-104162151D01*
X164435870Y-104050889D01*
X164562533Y-103910216D01*
X164657179Y-103746284D01*
X164657179Y-103746283D01*
X164715674Y-103566256D01*
X164735460Y-103378000D01*
X164715674Y-103189744D01*
X164657179Y-103009716D01*
X164657179Y-103009715D01*
X164562533Y-102845783D01*
X164435870Y-102705110D01*
X164282730Y-102593848D01*
X164109802Y-102516855D01*
X163924648Y-102477500D01*
X163924646Y-102477500D01*
X163735354Y-102477500D01*
X163735352Y-102477500D01*
X163550197Y-102516855D01*
X163377269Y-102593848D01*
X163224129Y-102705110D01*
X163097466Y-102845783D01*
X163002821Y-103009714D01*
X162950201Y-103171661D01*
X162919951Y-103221023D01*
X160505795Y-105635181D01*
X160465567Y-105662061D01*
X160418114Y-105671500D01*
X156183851Y-105671500D01*
X156127556Y-105657985D01*
X156083533Y-105620385D01*
X156061378Y-105566898D01*
X156065920Y-105509182D01*
X156096170Y-105459819D01*
X157554489Y-104001500D01*
X162012919Y-99543068D01*
X162041430Y-99521778D01*
X162074810Y-99509463D01*
X162132767Y-99497145D01*
X162132768Y-99497144D01*
X162132770Y-99497144D01*
X162305694Y-99420152D01*
X162458834Y-99308890D01*
X162585497Y-99168217D01*
X162680143Y-99004285D01*
X162723698Y-98870236D01*
X162738638Y-98824257D01*
X162758424Y-98636001D01*
X162738638Y-98447745D01*
X162715976Y-98378000D01*
X173667090Y-98378000D01*
X173686701Y-98627187D01*
X173745052Y-98870236D01*
X173800578Y-99004285D01*
X173840707Y-99101166D01*
X173971309Y-99314289D01*
X174133643Y-99504357D01*
X174323711Y-99666691D01*
X174536834Y-99797293D01*
X174707443Y-99867961D01*
X174767763Y-99892947D01*
X174844549Y-99911381D01*
X175010814Y-99951299D01*
X175260000Y-99970910D01*
X175509186Y-99951299D01*
X175752236Y-99892947D01*
X175983166Y-99797293D01*
X176196289Y-99666691D01*
X176386357Y-99504357D01*
X176548691Y-99314289D01*
X176679293Y-99101166D01*
X176774947Y-98870236D01*
X176833299Y-98627186D01*
X176852910Y-98378000D01*
X176833299Y-98128814D01*
X176774947Y-97885764D01*
X176760899Y-97851850D01*
X176729008Y-97774857D01*
X176679293Y-97654834D01*
X176548691Y-97441711D01*
X176386357Y-97251643D01*
X176196289Y-97089309D01*
X175983166Y-96958707D01*
X175897861Y-96923372D01*
X175752236Y-96863052D01*
X175509187Y-96804701D01*
X175260000Y-96785090D01*
X175010812Y-96804701D01*
X174767763Y-96863052D01*
X174536832Y-96958708D01*
X174323712Y-97089308D01*
X174133643Y-97251643D01*
X173971308Y-97441712D01*
X173840708Y-97654832D01*
X173745052Y-97885763D01*
X173686701Y-98128812D01*
X173667090Y-98378000D01*
X162715976Y-98378000D01*
X162680143Y-98267717D01*
X162680143Y-98267716D01*
X162585497Y-98103784D01*
X162458834Y-97963111D01*
X162305694Y-97851849D01*
X162132766Y-97774856D01*
X161947612Y-97735501D01*
X161947610Y-97735501D01*
X161758318Y-97735501D01*
X161758316Y-97735501D01*
X161573161Y-97774856D01*
X161400233Y-97851849D01*
X161247093Y-97963111D01*
X161120430Y-98103784D01*
X161025785Y-98267715D01*
X160973165Y-98429662D01*
X160942915Y-98479024D01*
X154548760Y-104873181D01*
X154508532Y-104900061D01*
X154461079Y-104909500D01*
X152488886Y-104909500D01*
X152432591Y-104895985D01*
X152388568Y-104858385D01*
X152366413Y-104804898D01*
X152370955Y-104747182D01*
X152401205Y-104697819D01*
X159444191Y-97654832D01*
X161957955Y-95141067D01*
X161986466Y-95119777D01*
X162019846Y-95107462D01*
X162077803Y-95095144D01*
X162077804Y-95095143D01*
X162077806Y-95095143D01*
X162250730Y-95018151D01*
X162403870Y-94906889D01*
X162530533Y-94766216D01*
X162625179Y-94602284D01*
X162655115Y-94510151D01*
X162683674Y-94422256D01*
X162703460Y-94234000D01*
X162683674Y-94045744D01*
X162625179Y-93865716D01*
X162625179Y-93865715D01*
X162530533Y-93701783D01*
X162403870Y-93561110D01*
X162250730Y-93449848D01*
X162077802Y-93372855D01*
X161892648Y-93333500D01*
X161892646Y-93333500D01*
X161703354Y-93333500D01*
X161703352Y-93333500D01*
X161518197Y-93372855D01*
X161345269Y-93449848D01*
X161192129Y-93561110D01*
X161065466Y-93701783D01*
X160970821Y-93865714D01*
X160918201Y-94027661D01*
X160887951Y-94077023D01*
X150853795Y-104111181D01*
X150813567Y-104138061D01*
X150766114Y-104147500D01*
X131597831Y-104147500D01*
X131559513Y-104141431D01*
X131524949Y-104123820D01*
X131516730Y-104117849D01*
X131516729Y-104117848D01*
X131516727Y-104117847D01*
X131343802Y-104040855D01*
X131158648Y-104001500D01*
X131158646Y-104001500D01*
X130969354Y-104001500D01*
X130969352Y-104001500D01*
X130784197Y-104040855D01*
X130611269Y-104117848D01*
X130458129Y-104229110D01*
X130331466Y-104369783D01*
X130236820Y-104533715D01*
X130178326Y-104713742D01*
X130158540Y-104902000D01*
X130178326Y-105090257D01*
X130236820Y-105270284D01*
X130331466Y-105434216D01*
X130362539Y-105468725D01*
X130392506Y-105530165D01*
X130385361Y-105598149D01*
X130343275Y-105652016D01*
X130204129Y-105753110D01*
X130077466Y-105893783D01*
X129982820Y-106057715D01*
X129924326Y-106237742D01*
X129904540Y-106426000D01*
X113930138Y-106426000D01*
X113934328Y-106386136D01*
X113929650Y-106252185D01*
X113924125Y-106093951D01*
X113909478Y-106010882D01*
X113873357Y-105806027D01*
X113783011Y-105527973D01*
X113654847Y-105265198D01*
X113491359Y-105022817D01*
X113380830Y-104900061D01*
X113295733Y-104805551D01*
X113295731Y-104805549D01*
X113295730Y-104805548D01*
X113071766Y-104617620D01*
X112961621Y-104548794D01*
X112823828Y-104462691D01*
X112615156Y-104369784D01*
X112556739Y-104343775D01*
X112556737Y-104343774D01*
X112556734Y-104343773D01*
X112275702Y-104263188D01*
X111986184Y-104222500D01*
X111986182Y-104222500D01*
X111766994Y-104222500D01*
X111723264Y-104225557D01*
X111548344Y-104237789D01*
X111262376Y-104298574D01*
X110987640Y-104398570D01*
X110729496Y-104535827D01*
X110492973Y-104707671D01*
X110282659Y-104910769D01*
X110102665Y-105141152D01*
X109956483Y-105394345D01*
X109846961Y-105665420D01*
X109776232Y-105949101D01*
X109745671Y-106239870D01*
X100822253Y-106239870D01*
X100772178Y-98378000D01*
X101447090Y-98378000D01*
X101466701Y-98627187D01*
X101525052Y-98870236D01*
X101580578Y-99004285D01*
X101620707Y-99101166D01*
X101751309Y-99314289D01*
X101913643Y-99504357D01*
X102103711Y-99666691D01*
X102316834Y-99797293D01*
X102487443Y-99867961D01*
X102547763Y-99892947D01*
X102624549Y-99911381D01*
X102790814Y-99951299D01*
X103040000Y-99970910D01*
X103289186Y-99951299D01*
X103532236Y-99892947D01*
X103763166Y-99797293D01*
X103976289Y-99666691D01*
X104166357Y-99504357D01*
X104328691Y-99314289D01*
X104459293Y-99101166D01*
X104554947Y-98870236D01*
X104613299Y-98627186D01*
X104632910Y-98378000D01*
X104613299Y-98128814D01*
X104554947Y-97885764D01*
X104540899Y-97851850D01*
X104509008Y-97774857D01*
X104459293Y-97654834D01*
X104328691Y-97441711D01*
X104166357Y-97251643D01*
X103976289Y-97089309D01*
X103763166Y-96958707D01*
X103677861Y-96923372D01*
X103532236Y-96863052D01*
X103289187Y-96804701D01*
X103040000Y-96785090D01*
X102790812Y-96804701D01*
X102547763Y-96863052D01*
X102316832Y-96958708D01*
X102103712Y-97089308D01*
X101913643Y-97251643D01*
X101751308Y-97441712D01*
X101620708Y-97654832D01*
X101525052Y-97885763D01*
X101466701Y-98128812D01*
X101447090Y-98378000D01*
X100772178Y-98378000D01*
X100760344Y-96520000D01*
X106282540Y-96520000D01*
X106302326Y-96708257D01*
X106360820Y-96888284D01*
X106455466Y-97052216D01*
X106582129Y-97192889D01*
X106735269Y-97304151D01*
X106908197Y-97381144D01*
X107093352Y-97420500D01*
X107093354Y-97420500D01*
X107282646Y-97420500D01*
X107282648Y-97420500D01*
X107406083Y-97394262D01*
X107467803Y-97381144D01*
X107640730Y-97304151D01*
X107793871Y-97192888D01*
X107793870Y-97192888D01*
X107822110Y-97161527D01*
X107863824Y-97131220D01*
X107914259Y-97120500D01*
X110017741Y-97120500D01*
X110068176Y-97131220D01*
X110109890Y-97161527D01*
X110138128Y-97192888D01*
X110291269Y-97304151D01*
X110464197Y-97381144D01*
X110649352Y-97420500D01*
X110649354Y-97420500D01*
X110838646Y-97420500D01*
X110838648Y-97420500D01*
X110962083Y-97394262D01*
X111023803Y-97381144D01*
X111196730Y-97304151D01*
X111196730Y-97304150D01*
X111349870Y-97192889D01*
X111476533Y-97052216D01*
X111571179Y-96888284D01*
X111604709Y-96785090D01*
X111629674Y-96708256D01*
X111649460Y-96520000D01*
X111629674Y-96331744D01*
X111571179Y-96151716D01*
X111571179Y-96151715D01*
X111476533Y-95987783D01*
X111349870Y-95847110D01*
X111196730Y-95735848D01*
X111023802Y-95658855D01*
X110838648Y-95619500D01*
X110838646Y-95619500D01*
X110649354Y-95619500D01*
X110649352Y-95619500D01*
X110464197Y-95658855D01*
X110291269Y-95735848D01*
X110138128Y-95847111D01*
X110109890Y-95878473D01*
X110068176Y-95908780D01*
X110017741Y-95919500D01*
X107914259Y-95919500D01*
X107863824Y-95908780D01*
X107822110Y-95878473D01*
X107793871Y-95847111D01*
X107640730Y-95735848D01*
X107467802Y-95658855D01*
X107282648Y-95619500D01*
X107282646Y-95619500D01*
X107093354Y-95619500D01*
X107093352Y-95619500D01*
X106908197Y-95658855D01*
X106735269Y-95735848D01*
X106582129Y-95847110D01*
X106455466Y-95987783D01*
X106360820Y-96151715D01*
X106302326Y-96331742D01*
X106282540Y-96520000D01*
X100760344Y-96520000D01*
X100724752Y-90932000D01*
X125078540Y-90932000D01*
X125098326Y-91120257D01*
X125156820Y-91300284D01*
X125251466Y-91464216D01*
X125378129Y-91604889D01*
X125531269Y-91716151D01*
X125704197Y-91793144D01*
X125889352Y-91832500D01*
X125889354Y-91832500D01*
X125983903Y-91832500D01*
X126031356Y-91841939D01*
X126071584Y-91868819D01*
X128319799Y-94117034D01*
X128330494Y-94129229D01*
X128349717Y-94154282D01*
X128453608Y-94233999D01*
X128453609Y-94234000D01*
X128475159Y-94250536D01*
X128621238Y-94311044D01*
X128746698Y-94327561D01*
X128777999Y-94331682D01*
X128777999Y-94331681D01*
X128778000Y-94331682D01*
X128809302Y-94327560D01*
X128825487Y-94326500D01*
X129321741Y-94326500D01*
X129372176Y-94337220D01*
X129413890Y-94367527D01*
X129442128Y-94398888D01*
X129595269Y-94510151D01*
X129768197Y-94587144D01*
X129953352Y-94626500D01*
X129953354Y-94626500D01*
X130142646Y-94626500D01*
X130142648Y-94626500D01*
X130266084Y-94600262D01*
X130327803Y-94587144D01*
X130500730Y-94510151D01*
X130653871Y-94398888D01*
X130780533Y-94258216D01*
X130875179Y-94094284D01*
X130933674Y-93914256D01*
X130953460Y-93726000D01*
X130933674Y-93537744D01*
X130903332Y-93444363D01*
X130875179Y-93357715D01*
X130780533Y-93193783D01*
X130653870Y-93053110D01*
X130500730Y-92941848D01*
X130327802Y-92864855D01*
X130142648Y-92825500D01*
X130142646Y-92825500D01*
X129953354Y-92825500D01*
X129953352Y-92825500D01*
X129768197Y-92864855D01*
X129595269Y-92941848D01*
X129442128Y-93053111D01*
X129413890Y-93084473D01*
X129372176Y-93114780D01*
X129321741Y-93125500D01*
X129078097Y-93125500D01*
X129030644Y-93116061D01*
X128990416Y-93089181D01*
X126925934Y-91024699D01*
X126896725Y-90978402D01*
X126892746Y-90944759D01*
X126890822Y-90944962D01*
X126889460Y-90932000D01*
X126869674Y-90743744D01*
X126817292Y-90582530D01*
X126811179Y-90563715D01*
X126716533Y-90399783D01*
X126589870Y-90259110D01*
X126436730Y-90147848D01*
X126263802Y-90070855D01*
X126078648Y-90031500D01*
X126078646Y-90031500D01*
X125889354Y-90031500D01*
X125889352Y-90031500D01*
X125704197Y-90070855D01*
X125531269Y-90147848D01*
X125378129Y-90259110D01*
X125251466Y-90399783D01*
X125156820Y-90563715D01*
X125098326Y-90743742D01*
X125078540Y-90932000D01*
X100724752Y-90932000D01*
X100711604Y-88867778D01*
X109930677Y-88867778D01*
X109961183Y-89145033D01*
X109996795Y-89281248D01*
X110031735Y-89414894D01*
X110140826Y-89671606D01*
X110286131Y-89909698D01*
X110464555Y-90124096D01*
X110672293Y-90310231D01*
X110904920Y-90464135D01*
X111157476Y-90582528D01*
X111424579Y-90662888D01*
X111700535Y-90703500D01*
X111909638Y-90703500D01*
X111909641Y-90703500D01*
X112118186Y-90688236D01*
X112390437Y-90627590D01*
X112390437Y-90627589D01*
X112390441Y-90627589D01*
X112650966Y-90527947D01*
X112894206Y-90391434D01*
X113114977Y-90220959D01*
X113308575Y-90020157D01*
X113470872Y-89793307D01*
X113470871Y-89793307D01*
X113470875Y-89793303D01*
X113598408Y-89545249D01*
X113598411Y-89545244D01*
X113688471Y-89281254D01*
X113739135Y-89006964D01*
X113749322Y-88728221D01*
X113718816Y-88450965D01*
X113648265Y-88181106D01*
X113539174Y-87924394D01*
X113393869Y-87686302D01*
X113215445Y-87471904D01*
X113007707Y-87285769D01*
X112775080Y-87131865D01*
X112522524Y-87013472D01*
X112522519Y-87013470D01*
X112522516Y-87013469D01*
X112255427Y-86933113D01*
X112255421Y-86933112D01*
X111979465Y-86892500D01*
X111770362Y-86892500D01*
X111770359Y-86892500D01*
X111561813Y-86907763D01*
X111289562Y-86968409D01*
X111029033Y-87068053D01*
X110785793Y-87204566D01*
X110565022Y-87375040D01*
X110371427Y-87575840D01*
X110209124Y-87802696D01*
X110081591Y-88050750D01*
X109991527Y-88314751D01*
X109940864Y-88589035D01*
X109930677Y-88867778D01*
X100711604Y-88867778D01*
X100671363Y-82549999D01*
X135492540Y-82549999D01*
X135512326Y-82738257D01*
X135570820Y-82918284D01*
X135665466Y-83082216D01*
X135792129Y-83222889D01*
X135945269Y-83334151D01*
X136118197Y-83411144D01*
X136303352Y-83450500D01*
X136303354Y-83450500D01*
X136492646Y-83450500D01*
X136492648Y-83450500D01*
X136616084Y-83424262D01*
X136677803Y-83411144D01*
X136850730Y-83334151D01*
X137003871Y-83222888D01*
X137130533Y-83082216D01*
X137225179Y-82918284D01*
X137283674Y-82738256D01*
X137303460Y-82550000D01*
X137300850Y-82525172D01*
X137307283Y-82470822D01*
X137336488Y-82424534D01*
X138706204Y-81054819D01*
X138746433Y-81027939D01*
X138793886Y-81018500D01*
X142555974Y-81018500D01*
X142621252Y-81037073D01*
X142666974Y-81087228D01*
X142679445Y-81153941D01*
X142654928Y-81217227D01*
X142598324Y-81292181D01*
X142507418Y-81474748D01*
X142451602Y-81670916D01*
X142432785Y-81873999D01*
X142451602Y-82077083D01*
X142507418Y-82273251D01*
X142598324Y-82455818D01*
X142721236Y-82618580D01*
X142871958Y-82755981D01*
X143045361Y-82863347D01*
X143045363Y-82863348D01*
X143235544Y-82937024D01*
X143436024Y-82974500D01*
X143639974Y-82974500D01*
X143639976Y-82974500D01*
X143840456Y-82937024D01*
X144030637Y-82863348D01*
X144204041Y-82755981D01*
X144354764Y-82618579D01*
X144477673Y-82455821D01*
X144477673Y-82455819D01*
X144477675Y-82455818D01*
X144553659Y-82303219D01*
X144568582Y-82273250D01*
X144624397Y-82077083D01*
X144643215Y-81874000D01*
X144624397Y-81670917D01*
X144568582Y-81474750D01*
X144568209Y-81474001D01*
X144477675Y-81292181D01*
X144421072Y-81217227D01*
X144396555Y-81153941D01*
X144409026Y-81087228D01*
X144454748Y-81037073D01*
X144520026Y-81018500D01*
X150120169Y-81018500D01*
X150158487Y-81024569D01*
X150193050Y-81042179D01*
X150201270Y-81048151D01*
X150201271Y-81048151D01*
X150201272Y-81048152D01*
X150374197Y-81125144D01*
X150559352Y-81164500D01*
X150559354Y-81164500D01*
X150748646Y-81164500D01*
X150748648Y-81164500D01*
X150872084Y-81138262D01*
X150933803Y-81125144D01*
X151106730Y-81048151D01*
X151259871Y-80936888D01*
X151386533Y-80796216D01*
X151481179Y-80632284D01*
X151539674Y-80452256D01*
X151559460Y-80264000D01*
X151539674Y-80075744D01*
X151486786Y-79912973D01*
X151481179Y-79895715D01*
X151386533Y-79731783D01*
X151259870Y-79591110D01*
X151106730Y-79479848D01*
X150933802Y-79402855D01*
X150748648Y-79363500D01*
X150748646Y-79363500D01*
X150559354Y-79363500D01*
X150559352Y-79363500D01*
X150374197Y-79402855D01*
X150201272Y-79479847D01*
X150197701Y-79482441D01*
X150193050Y-79485820D01*
X150158487Y-79503431D01*
X150120169Y-79509500D01*
X143887028Y-79509500D01*
X138494000Y-79509500D01*
X138476030Y-79508191D01*
X138462638Y-79506229D01*
X138452094Y-79504685D01*
X138452093Y-79504685D01*
X138402452Y-79509028D01*
X138391645Y-79509500D01*
X138386058Y-79509500D01*
X138355112Y-79513116D01*
X138351530Y-79513482D01*
X138275176Y-79520162D01*
X138255962Y-79524422D01*
X138183926Y-79550640D01*
X138180524Y-79551822D01*
X138107814Y-79575917D01*
X138090088Y-79584498D01*
X138026067Y-79626604D01*
X138023030Y-79628539D01*
X137957816Y-79668765D01*
X137942543Y-79681206D01*
X137889944Y-79736956D01*
X137887433Y-79739541D01*
X135909741Y-81717233D01*
X135896112Y-81729012D01*
X135876708Y-81743458D01*
X135844676Y-81781632D01*
X135837379Y-81789596D01*
X135833414Y-81793561D01*
X135814089Y-81818001D01*
X135811814Y-81820794D01*
X135762554Y-81879500D01*
X135751973Y-81896109D01*
X135735044Y-81932413D01*
X135714815Y-81962975D01*
X135665466Y-82017784D01*
X135570820Y-82181715D01*
X135512326Y-82361742D01*
X135492540Y-82549999D01*
X100671363Y-82549999D01*
X100650331Y-79248000D01*
X101447090Y-79248000D01*
X101466701Y-79497187D01*
X101525052Y-79740236D01*
X101575824Y-79862809D01*
X101620707Y-79971166D01*
X101751309Y-80184289D01*
X101913643Y-80374357D01*
X102103711Y-80536691D01*
X102316834Y-80667293D01*
X102487443Y-80737961D01*
X102547763Y-80762947D01*
X102624549Y-80781381D01*
X102790814Y-80821299D01*
X103040000Y-80840910D01*
X103289186Y-80821299D01*
X103532236Y-80762947D01*
X103763166Y-80667293D01*
X103976289Y-80536691D01*
X104166357Y-80374357D01*
X104328691Y-80184289D01*
X104459293Y-79971166D01*
X104473011Y-79938045D01*
X104499891Y-79897819D01*
X104540119Y-79870939D01*
X104587572Y-79861500D01*
X111837000Y-79861500D01*
X111854970Y-79862809D01*
X111858723Y-79863358D01*
X111878906Y-79866315D01*
X111928547Y-79861972D01*
X111939355Y-79861500D01*
X111944943Y-79861500D01*
X111975903Y-79857881D01*
X111979441Y-79857519D01*
X112054612Y-79850943D01*
X112054617Y-79850941D01*
X112055832Y-79850835D01*
X112075027Y-79846580D01*
X112076179Y-79846160D01*
X112076184Y-79846160D01*
X112147074Y-79820357D01*
X112150434Y-79819190D01*
X112222036Y-79795464D01*
X112222041Y-79795460D01*
X112223202Y-79795076D01*
X112240902Y-79786507D01*
X112241919Y-79785837D01*
X112241924Y-79785836D01*
X112304967Y-79744371D01*
X112307959Y-79742465D01*
X112372154Y-79702870D01*
X112372154Y-79702869D01*
X112373193Y-79702229D01*
X112388444Y-79689805D01*
X112389281Y-79688917D01*
X112389285Y-79688915D01*
X112441071Y-79634023D01*
X112443516Y-79631506D01*
X112681955Y-79393067D01*
X112710466Y-79371777D01*
X112743846Y-79359462D01*
X112801803Y-79347144D01*
X112801804Y-79347143D01*
X112801806Y-79347143D01*
X112974730Y-79270151D01*
X113127870Y-79158889D01*
X113254533Y-79018216D01*
X113349179Y-78854284D01*
X113381190Y-78755764D01*
X113407674Y-78674256D01*
X113427460Y-78486000D01*
X113407674Y-78297744D01*
X113357968Y-78144765D01*
X113349179Y-78117715D01*
X113254533Y-77953783D01*
X113127870Y-77813110D01*
X112974730Y-77701848D01*
X112801802Y-77624855D01*
X112616648Y-77585500D01*
X112616646Y-77585500D01*
X112427354Y-77585500D01*
X112427352Y-77585500D01*
X112242197Y-77624855D01*
X112069269Y-77701848D01*
X111916129Y-77813110D01*
X111789466Y-77953783D01*
X111694820Y-78117715D01*
X111646375Y-78266818D01*
X111620594Y-78311472D01*
X111578879Y-78341780D01*
X111528444Y-78352500D01*
X104420693Y-78352500D01*
X104368779Y-78341110D01*
X104326403Y-78309032D01*
X104313120Y-78293479D01*
X104166357Y-78121643D01*
X103976289Y-77959309D01*
X103763166Y-77828707D01*
X103677861Y-77793372D01*
X103532236Y-77733052D01*
X103289187Y-77674701D01*
X103040000Y-77655090D01*
X102790812Y-77674701D01*
X102547763Y-77733052D01*
X102316832Y-77828708D01*
X102103712Y-77959308D01*
X101913643Y-78121643D01*
X101751308Y-78311712D01*
X101620708Y-78524832D01*
X101525052Y-78755763D01*
X101466701Y-78998812D01*
X101447090Y-79248000D01*
X100650331Y-79248000D01*
X100622260Y-74840889D01*
X100617974Y-74168000D01*
X110346540Y-74168000D01*
X110366326Y-74356257D01*
X110424820Y-74536284D01*
X110519466Y-74700216D01*
X110646129Y-74840889D01*
X110799269Y-74952151D01*
X110972197Y-75029144D01*
X111157352Y-75068500D01*
X111157354Y-75068500D01*
X111346646Y-75068500D01*
X111346648Y-75068500D01*
X111470084Y-75042262D01*
X111531803Y-75029144D01*
X111704730Y-74952151D01*
X111712949Y-74946179D01*
X111747513Y-74928569D01*
X111785831Y-74922500D01*
X114528169Y-74922500D01*
X114566487Y-74928569D01*
X114601050Y-74946179D01*
X114609270Y-74952151D01*
X114609271Y-74952151D01*
X114609272Y-74952152D01*
X114782197Y-75029144D01*
X114967352Y-75068500D01*
X114967354Y-75068500D01*
X115156646Y-75068500D01*
X115156648Y-75068500D01*
X115280084Y-75042262D01*
X115341803Y-75029144D01*
X115514730Y-74952151D01*
X115667871Y-74840888D01*
X115794533Y-74700216D01*
X115889179Y-74536284D01*
X115947674Y-74356256D01*
X115967460Y-74168000D01*
X115947674Y-73979744D01*
X115889179Y-73799716D01*
X115889179Y-73799715D01*
X115794533Y-73635783D01*
X115738903Y-73574000D01*
X133282722Y-73574000D01*
X133301792Y-73791974D01*
X133352104Y-73979742D01*
X133358425Y-74003330D01*
X133450898Y-74201639D01*
X133576402Y-74380877D01*
X133731123Y-74535598D01*
X133910361Y-74661102D01*
X134108670Y-74753575D01*
X134320023Y-74810207D01*
X134538000Y-74829277D01*
X134755977Y-74810207D01*
X134967330Y-74753575D01*
X135165639Y-74661102D01*
X135344877Y-74535598D01*
X135499598Y-74380877D01*
X135625102Y-74201639D01*
X135717575Y-74003330D01*
X135774207Y-73791977D01*
X135793277Y-73574000D01*
X135774207Y-73356023D01*
X135717575Y-73144670D01*
X135625102Y-72946362D01*
X135591239Y-72898000D01*
X138032540Y-72898000D01*
X138052326Y-73086257D01*
X138110820Y-73266284D01*
X138205466Y-73430216D01*
X138332129Y-73570889D01*
X138485269Y-73682151D01*
X138658197Y-73759144D01*
X138843352Y-73798500D01*
X138843354Y-73798500D01*
X139032646Y-73798500D01*
X139032648Y-73798500D01*
X139156084Y-73772262D01*
X139217803Y-73759144D01*
X139390730Y-73682151D01*
X139398949Y-73676179D01*
X139433513Y-73658569D01*
X139471831Y-73652500D01*
X148426914Y-73652500D01*
X148474367Y-73661939D01*
X148514595Y-73688819D01*
X156516751Y-81690975D01*
X156547001Y-81740338D01*
X156599620Y-81902284D01*
X156694266Y-82066216D01*
X156721559Y-82096527D01*
X156748842Y-82146153D01*
X156751214Y-82202735D01*
X156728180Y-82254470D01*
X156684545Y-82290568D01*
X156629410Y-82303500D01*
X148107831Y-82303500D01*
X148069513Y-82297431D01*
X148034949Y-82279820D01*
X148026730Y-82273849D01*
X148026729Y-82273848D01*
X148026727Y-82273847D01*
X147853802Y-82196855D01*
X147668648Y-82157500D01*
X147668646Y-82157500D01*
X147479354Y-82157500D01*
X147479352Y-82157500D01*
X147294197Y-82196855D01*
X147121269Y-82273848D01*
X146968129Y-82385110D01*
X146841466Y-82525783D01*
X146746820Y-82689715D01*
X146688326Y-82869742D01*
X146668540Y-83057999D01*
X146688326Y-83246257D01*
X146746820Y-83426284D01*
X146841466Y-83590216D01*
X146968129Y-83730889D01*
X147121269Y-83842151D01*
X147294197Y-83919144D01*
X147479352Y-83958500D01*
X147479354Y-83958500D01*
X147668646Y-83958500D01*
X147668648Y-83958500D01*
X147792083Y-83932262D01*
X147853803Y-83919144D01*
X148026730Y-83842151D01*
X148034949Y-83836179D01*
X148069513Y-83818569D01*
X148107831Y-83812500D01*
X150123481Y-83812500D01*
X150187716Y-83830435D01*
X150233370Y-83879051D01*
X150247236Y-83944286D01*
X150225304Y-84007268D01*
X150173917Y-84049779D01*
X150169269Y-84051848D01*
X150016129Y-84163110D01*
X149889466Y-84303783D01*
X149794820Y-84467715D01*
X149736326Y-84647742D01*
X149716540Y-84836000D01*
X149736326Y-85024257D01*
X149794820Y-85204284D01*
X149889466Y-85368216D01*
X150016129Y-85508889D01*
X150169269Y-85620151D01*
X150342197Y-85697144D01*
X150527352Y-85736500D01*
X150527354Y-85736500D01*
X150716646Y-85736500D01*
X150716648Y-85736500D01*
X150840083Y-85710262D01*
X150901803Y-85697144D01*
X151074730Y-85620151D01*
X151082949Y-85614179D01*
X151117513Y-85596569D01*
X151155831Y-85590500D01*
X156930469Y-85590500D01*
X156968787Y-85596569D01*
X157003350Y-85614179D01*
X157011570Y-85620151D01*
X157011571Y-85620151D01*
X157011572Y-85620152D01*
X157184497Y-85697144D01*
X157369652Y-85736500D01*
X157369654Y-85736500D01*
X157558946Y-85736500D01*
X157558948Y-85736500D01*
X157682383Y-85710262D01*
X157744103Y-85697144D01*
X157917030Y-85620151D01*
X158070171Y-85508888D01*
X158196833Y-85368216D01*
X158291479Y-85204284D01*
X158349974Y-85024256D01*
X158369760Y-84836000D01*
X158349974Y-84647744D01*
X158291479Y-84467716D01*
X158291479Y-84467715D01*
X158196833Y-84303783D01*
X158070170Y-84163110D01*
X157917030Y-84051848D01*
X157912383Y-84049779D01*
X157860996Y-84007268D01*
X157839064Y-83944286D01*
X157852930Y-83879051D01*
X157898584Y-83830435D01*
X157962819Y-83812500D01*
X158386114Y-83812500D01*
X158433567Y-83821939D01*
X158473795Y-83848819D01*
X159483181Y-84858205D01*
X159510061Y-84898433D01*
X159519500Y-84945886D01*
X159519500Y-88118606D01*
X159502887Y-88180606D01*
X159446820Y-88277715D01*
X159388326Y-88457742D01*
X159368540Y-88645999D01*
X159388326Y-88834257D01*
X159446820Y-89014284D01*
X159541466Y-89178216D01*
X159668129Y-89318889D01*
X159821269Y-89430151D01*
X159994197Y-89507144D01*
X160179352Y-89546500D01*
X160179354Y-89546500D01*
X160368646Y-89546500D01*
X160368648Y-89546500D01*
X160492084Y-89520262D01*
X160553803Y-89507144D01*
X160726730Y-89430151D01*
X160879871Y-89318888D01*
X161006533Y-89178216D01*
X161101179Y-89014284D01*
X161148782Y-88867778D01*
X165130677Y-88867778D01*
X165161183Y-89145033D01*
X165196795Y-89281248D01*
X165231735Y-89414894D01*
X165340826Y-89671606D01*
X165486131Y-89909698D01*
X165664555Y-90124096D01*
X165872293Y-90310231D01*
X166104920Y-90464135D01*
X166357476Y-90582528D01*
X166624579Y-90662888D01*
X166900535Y-90703500D01*
X167109638Y-90703500D01*
X167109641Y-90703500D01*
X167318186Y-90688236D01*
X167590437Y-90627590D01*
X167590437Y-90627589D01*
X167590441Y-90627589D01*
X167850966Y-90527947D01*
X168094206Y-90391434D01*
X168314977Y-90220959D01*
X168508575Y-90020157D01*
X168670872Y-89793307D01*
X168670871Y-89793307D01*
X168670875Y-89793303D01*
X168798408Y-89545249D01*
X168798411Y-89545244D01*
X168888471Y-89281254D01*
X168939135Y-89006964D01*
X168949322Y-88728221D01*
X168918816Y-88450965D01*
X168848265Y-88181106D01*
X168739174Y-87924394D01*
X168593869Y-87686302D01*
X168415445Y-87471904D01*
X168207707Y-87285769D01*
X167975080Y-87131865D01*
X167722524Y-87013472D01*
X167722519Y-87013470D01*
X167722516Y-87013469D01*
X167455427Y-86933113D01*
X167455421Y-86933112D01*
X167179465Y-86892500D01*
X166970362Y-86892500D01*
X166970359Y-86892500D01*
X166761813Y-86907763D01*
X166489562Y-86968409D01*
X166229033Y-87068053D01*
X165985793Y-87204566D01*
X165765022Y-87375040D01*
X165571427Y-87575840D01*
X165409124Y-87802696D01*
X165281591Y-88050750D01*
X165191527Y-88314751D01*
X165140864Y-88589035D01*
X165130677Y-88867778D01*
X161148782Y-88867778D01*
X161159674Y-88834256D01*
X161179460Y-88646000D01*
X161159674Y-88457744D01*
X161129332Y-88364363D01*
X161101179Y-88277715D01*
X161045113Y-88180606D01*
X161028500Y-88118606D01*
X161028500Y-84645993D01*
X161029809Y-84628023D01*
X161030121Y-84625888D01*
X161033314Y-84604093D01*
X161028972Y-84554463D01*
X161028500Y-84543656D01*
X161028500Y-84538057D01*
X161024877Y-84507063D01*
X161024514Y-84503517D01*
X161017942Y-84428388D01*
X161017836Y-84427174D01*
X161013578Y-84407966D01*
X161013160Y-84406818D01*
X161013160Y-84406816D01*
X160987364Y-84335943D01*
X160986181Y-84332538D01*
X160976653Y-84303784D01*
X160962464Y-84260964D01*
X160962462Y-84260961D01*
X160962078Y-84259801D01*
X160953504Y-84242091D01*
X160911376Y-84178038D01*
X160909461Y-84175033D01*
X160869870Y-84110846D01*
X160869229Y-84109806D01*
X160856802Y-84094551D01*
X160801061Y-84041963D01*
X160798473Y-84039449D01*
X159328766Y-82569742D01*
X159316983Y-82556108D01*
X159302538Y-82536705D01*
X159264365Y-82504674D01*
X159256389Y-82497365D01*
X159252439Y-82493415D01*
X159227986Y-82474079D01*
X159225192Y-82471804D01*
X159206141Y-82455818D01*
X159167427Y-82423333D01*
X159167425Y-82423332D01*
X159166492Y-82422549D01*
X159149898Y-82411976D01*
X159080442Y-82379589D01*
X159077197Y-82378018D01*
X159008722Y-82343629D01*
X158990125Y-82337165D01*
X158915086Y-82321670D01*
X158911569Y-82320890D01*
X158837005Y-82303219D01*
X158817425Y-82301218D01*
X158740804Y-82303448D01*
X158737198Y-82303500D01*
X158224190Y-82303500D01*
X158169055Y-82290568D01*
X158125420Y-82254470D01*
X158102386Y-82202735D01*
X158104758Y-82146153D01*
X158132041Y-82096527D01*
X158159333Y-82066216D01*
X158253979Y-81902284D01*
X158289306Y-81793559D01*
X158312474Y-81722256D01*
X158332260Y-81534000D01*
X158312474Y-81345744D01*
X158253979Y-81165716D01*
X158253979Y-81165715D01*
X158159333Y-81001783D01*
X158032670Y-80861110D01*
X157879532Y-80749849D01*
X157764245Y-80698520D01*
X157706603Y-80672856D01*
X157680423Y-80667291D01*
X157648650Y-80660537D01*
X157615264Y-80648220D01*
X157586752Y-80626928D01*
X156715823Y-79755999D01*
X158098540Y-79755999D01*
X158118326Y-79944257D01*
X158176820Y-80124284D01*
X158271466Y-80288216D01*
X158398129Y-80428889D01*
X158551269Y-80540151D01*
X158724197Y-80617144D01*
X158909352Y-80656500D01*
X158909354Y-80656500D01*
X159098646Y-80656500D01*
X159098648Y-80656500D01*
X159222084Y-80630262D01*
X159283803Y-80617144D01*
X159456730Y-80540151D01*
X159609871Y-80428888D01*
X159736533Y-80288216D01*
X159831179Y-80124284D01*
X159883799Y-79962334D01*
X159914047Y-79912975D01*
X160296204Y-79530819D01*
X160336433Y-79503939D01*
X160383886Y-79494500D01*
X163550169Y-79494500D01*
X163588487Y-79500569D01*
X163623050Y-79518179D01*
X163631270Y-79524151D01*
X163631271Y-79524151D01*
X163631272Y-79524152D01*
X163804197Y-79601144D01*
X163989352Y-79640500D01*
X163989354Y-79640500D01*
X164178646Y-79640500D01*
X164178648Y-79640500D01*
X164302084Y-79614262D01*
X164363803Y-79601144D01*
X164536730Y-79524151D01*
X164551918Y-79513116D01*
X164689870Y-79412889D01*
X164816533Y-79272216D01*
X164830515Y-79247999D01*
X173667090Y-79247999D01*
X173686701Y-79497187D01*
X173745052Y-79740236D01*
X173795824Y-79862809D01*
X173840707Y-79971166D01*
X173971309Y-80184289D01*
X174133643Y-80374357D01*
X174323711Y-80536691D01*
X174536834Y-80667293D01*
X174707443Y-80737961D01*
X174767763Y-80762947D01*
X174844549Y-80781381D01*
X175010814Y-80821299D01*
X175260000Y-80840910D01*
X175509186Y-80821299D01*
X175752236Y-80762947D01*
X175983166Y-80667293D01*
X176196289Y-80536691D01*
X176386357Y-80374357D01*
X176548691Y-80184289D01*
X176679293Y-79971166D01*
X176774947Y-79740236D01*
X176833299Y-79497186D01*
X176852910Y-79248000D01*
X176833299Y-78998814D01*
X176774947Y-78755764D01*
X176768417Y-78740000D01*
X176741185Y-78674256D01*
X176679293Y-78524834D01*
X176548691Y-78311711D01*
X176386357Y-78121643D01*
X176196289Y-77959309D01*
X175983166Y-77828707D01*
X175897861Y-77793372D01*
X175752236Y-77733052D01*
X175509187Y-77674701D01*
X175260000Y-77655090D01*
X175010812Y-77674701D01*
X174767763Y-77733052D01*
X174536832Y-77828708D01*
X174323712Y-77959308D01*
X174133643Y-78121643D01*
X173971308Y-78311712D01*
X173840708Y-78524832D01*
X173745052Y-78755763D01*
X173686701Y-78998812D01*
X173667090Y-79247999D01*
X164830515Y-79247999D01*
X164911179Y-79108284D01*
X164919358Y-79083112D01*
X164969674Y-78928256D01*
X164989460Y-78740000D01*
X164969674Y-78551744D01*
X164911179Y-78371716D01*
X164911179Y-78371715D01*
X164816533Y-78207783D01*
X164689870Y-78067110D01*
X164536730Y-77955848D01*
X164363802Y-77878855D01*
X164178648Y-77839500D01*
X164178646Y-77839500D01*
X163989354Y-77839500D01*
X163989352Y-77839500D01*
X163804197Y-77878855D01*
X163631272Y-77955847D01*
X163627701Y-77958441D01*
X163623050Y-77961820D01*
X163588487Y-77979431D01*
X163550169Y-77985500D01*
X160084000Y-77985500D01*
X160066030Y-77984191D01*
X160052638Y-77982229D01*
X160042094Y-77980685D01*
X160042093Y-77980685D01*
X159992452Y-77985028D01*
X159981645Y-77985500D01*
X159976058Y-77985500D01*
X159945112Y-77989116D01*
X159941530Y-77989482D01*
X159865176Y-77996162D01*
X159845962Y-78000422D01*
X159773926Y-78026640D01*
X159770524Y-78027822D01*
X159697814Y-78051917D01*
X159680088Y-78060498D01*
X159616067Y-78102604D01*
X159613030Y-78104539D01*
X159547816Y-78144765D01*
X159532543Y-78157206D01*
X159479944Y-78212956D01*
X159477433Y-78215541D01*
X158844046Y-78848928D01*
X158815534Y-78870220D01*
X158782149Y-78882537D01*
X158724197Y-78894856D01*
X158551267Y-78971849D01*
X158398129Y-79083110D01*
X158271466Y-79223783D01*
X158176820Y-79387715D01*
X158118326Y-79567742D01*
X158098540Y-79755999D01*
X156715823Y-79755999D01*
X151707824Y-74748000D01*
X155740539Y-74748000D01*
X155760325Y-74936258D01*
X155818819Y-75116285D01*
X155913465Y-75280217D01*
X156040128Y-75420890D01*
X156193268Y-75532152D01*
X156366196Y-75609145D01*
X156551351Y-75648501D01*
X156551353Y-75648501D01*
X156740645Y-75648501D01*
X156740647Y-75648501D01*
X156864083Y-75622263D01*
X156925802Y-75609145D01*
X157098729Y-75532152D01*
X157251870Y-75420889D01*
X157378532Y-75280217D01*
X157473178Y-75116285D01*
X157525798Y-74954335D01*
X157556046Y-74904976D01*
X160042204Y-72418819D01*
X160082433Y-72391939D01*
X160129886Y-72382500D01*
X160756169Y-72382500D01*
X160794487Y-72388569D01*
X160829050Y-72406179D01*
X160837270Y-72412151D01*
X160837271Y-72412151D01*
X160837272Y-72412152D01*
X161010197Y-72489144D01*
X161195352Y-72528500D01*
X161195354Y-72528500D01*
X161384646Y-72528500D01*
X161384648Y-72528500D01*
X161512999Y-72501218D01*
X161569803Y-72489144D01*
X161742730Y-72412151D01*
X161791516Y-72376706D01*
X161895870Y-72300889D01*
X162022533Y-72160216D01*
X162117179Y-71996284D01*
X162174466Y-71819973D01*
X162175674Y-71816256D01*
X162195460Y-71628000D01*
X162175674Y-71439744D01*
X162117179Y-71259716D01*
X162117179Y-71259715D01*
X162105722Y-71239870D01*
X164945671Y-71239870D01*
X164955874Y-71532048D01*
X164981415Y-71676898D01*
X165006643Y-71819973D01*
X165096989Y-72098027D01*
X165225153Y-72360802D01*
X165388641Y-72603183D01*
X165433794Y-72653331D01*
X165536252Y-72767123D01*
X165584270Y-72820452D01*
X165808234Y-73008380D01*
X166056173Y-73163309D01*
X166323261Y-73282225D01*
X166380596Y-73298665D01*
X166604297Y-73362811D01*
X166893816Y-73403500D01*
X166893818Y-73403500D01*
X167113005Y-73403500D01*
X167113006Y-73403500D01*
X167331652Y-73388211D01*
X167617627Y-73327425D01*
X167892359Y-73227430D01*
X168150501Y-73090174D01*
X168387029Y-72918327D01*
X168597338Y-72715233D01*
X168777335Y-72484847D01*
X168923517Y-72231653D01*
X169033039Y-71960578D01*
X169103768Y-71676898D01*
X169134328Y-71386136D01*
X169129913Y-71259716D01*
X169124125Y-71093951D01*
X169113224Y-71032129D01*
X169073357Y-70806027D01*
X168983011Y-70527973D01*
X168854847Y-70265198D01*
X168691359Y-70022817D01*
X168495730Y-69805548D01*
X168271766Y-69617620D01*
X168161621Y-69548794D01*
X168023828Y-69462691D01*
X167846704Y-69383830D01*
X167756739Y-69343775D01*
X167756737Y-69343774D01*
X167756734Y-69343773D01*
X167475702Y-69263188D01*
X167186184Y-69222500D01*
X167186182Y-69222500D01*
X166966994Y-69222500D01*
X166923264Y-69225557D01*
X166748344Y-69237789D01*
X166462376Y-69298574D01*
X166187640Y-69398570D01*
X165929496Y-69535827D01*
X165692973Y-69707671D01*
X165482659Y-69910769D01*
X165302665Y-70141152D01*
X165156483Y-70394345D01*
X165046961Y-70665420D01*
X164976232Y-70949101D01*
X164945671Y-71239870D01*
X162105722Y-71239870D01*
X162022533Y-71095783D01*
X161895870Y-70955110D01*
X161742730Y-70843848D01*
X161569802Y-70766855D01*
X161384648Y-70727500D01*
X161384646Y-70727500D01*
X161195354Y-70727500D01*
X161195352Y-70727500D01*
X161010197Y-70766855D01*
X160837272Y-70843847D01*
X160833701Y-70846441D01*
X160829050Y-70849820D01*
X160794487Y-70867431D01*
X160756169Y-70873500D01*
X159830000Y-70873500D01*
X159812030Y-70872191D01*
X159798638Y-70870229D01*
X159788094Y-70868685D01*
X159788093Y-70868685D01*
X159738452Y-70873028D01*
X159727645Y-70873500D01*
X159722058Y-70873500D01*
X159691112Y-70877116D01*
X159687530Y-70877482D01*
X159611176Y-70884162D01*
X159591959Y-70888423D01*
X159519960Y-70914628D01*
X159516557Y-70915811D01*
X159443813Y-70939917D01*
X159426083Y-70948500D01*
X159362061Y-70990608D01*
X159359020Y-70992545D01*
X159293824Y-71032758D01*
X159278544Y-71045204D01*
X159225961Y-71100938D01*
X159223450Y-71103523D01*
X156486044Y-73840930D01*
X156457531Y-73862222D01*
X156424144Y-73874539D01*
X156366196Y-73886856D01*
X156193268Y-73963849D01*
X156040128Y-74075111D01*
X155913465Y-74215784D01*
X155818819Y-74379716D01*
X155760325Y-74559743D01*
X155740539Y-74748000D01*
X151707824Y-74748000D01*
X149369566Y-72409742D01*
X149357783Y-72396108D01*
X149354679Y-72391939D01*
X149343339Y-72376706D01*
X149305164Y-72344673D01*
X149297189Y-72337365D01*
X149293239Y-72333415D01*
X149268786Y-72314079D01*
X149265992Y-72311804D01*
X149252983Y-72300888D01*
X149208227Y-72263333D01*
X149208225Y-72263332D01*
X149207292Y-72262549D01*
X149190698Y-72251976D01*
X149121242Y-72219589D01*
X149117997Y-72218018D01*
X149049522Y-72183629D01*
X149030925Y-72177165D01*
X148955886Y-72161670D01*
X148952369Y-72160890D01*
X148877805Y-72143219D01*
X148858225Y-72141218D01*
X148781604Y-72143448D01*
X148777998Y-72143500D01*
X139471831Y-72143500D01*
X139433513Y-72137431D01*
X139398949Y-72119820D01*
X139390730Y-72113849D01*
X139390729Y-72113848D01*
X139390727Y-72113847D01*
X139217802Y-72036855D01*
X139032648Y-71997500D01*
X139032646Y-71997500D01*
X138843354Y-71997500D01*
X138843352Y-71997500D01*
X138658197Y-72036855D01*
X138485269Y-72113848D01*
X138332129Y-72225110D01*
X138205466Y-72365783D01*
X138110820Y-72529715D01*
X138052326Y-72709742D01*
X138032540Y-72898000D01*
X135591239Y-72898000D01*
X135499598Y-72767123D01*
X135344877Y-72612402D01*
X135165639Y-72486898D01*
X135074205Y-72444261D01*
X134967331Y-72394425D01*
X134755974Y-72337792D01*
X134538000Y-72318722D01*
X134320025Y-72337792D01*
X134108668Y-72394425D01*
X133910361Y-72486898D01*
X133731122Y-72612402D01*
X133576402Y-72767122D01*
X133450898Y-72946361D01*
X133358425Y-73144668D01*
X133301792Y-73356025D01*
X133282722Y-73574000D01*
X115738903Y-73574000D01*
X115667870Y-73495110D01*
X115514730Y-73383848D01*
X115341802Y-73306855D01*
X115156648Y-73267500D01*
X115156646Y-73267500D01*
X114967354Y-73267500D01*
X114967352Y-73267500D01*
X114782197Y-73306855D01*
X114609272Y-73383847D01*
X114605701Y-73386441D01*
X114601050Y-73389820D01*
X114566487Y-73407431D01*
X114528169Y-73413500D01*
X111785831Y-73413500D01*
X111747513Y-73407431D01*
X111712949Y-73389820D01*
X111704730Y-73383849D01*
X111704729Y-73383848D01*
X111704727Y-73383847D01*
X111531802Y-73306855D01*
X111346648Y-73267500D01*
X111346646Y-73267500D01*
X111157354Y-73267500D01*
X111157352Y-73267500D01*
X110972197Y-73306855D01*
X110799269Y-73383848D01*
X110646129Y-73495110D01*
X110519466Y-73635783D01*
X110424820Y-73799715D01*
X110366326Y-73979742D01*
X110346540Y-74168000D01*
X100617974Y-74168000D01*
X100584795Y-68958790D01*
X100601143Y-68896457D01*
X100646564Y-68850745D01*
X100708792Y-68834000D01*
X177675203Y-68834000D01*
X177737432Y-68850746D01*
G37*
%TD.AperFunction*%
%TD*%
M02*
