%TF.GenerationSoftware,KiCad,Pcbnew,7.0.1*%
%TF.CreationDate,2023-11-14T16:04:30+01:00*%
%TF.ProjectId,Central_pcb,43656e74-7261-46c5-9f70-63622e6b6963,rev?*%
%TF.SameCoordinates,Original*%
%TF.FileFunction,Legend,Bot*%
%TF.FilePolarity,Positive*%
%FSLAX46Y46*%
G04 Gerber Fmt 4.6, Leading zero omitted, Abs format (unit mm)*
G04 Created by KiCad (PCBNEW 7.0.1) date 2023-11-14 16:04:30*
%MOMM*%
%LPD*%
G01*
G04 APERTURE LIST*
%ADD10C,0.150000*%
%ADD11C,0.120000*%
%ADD12C,0.200000*%
%ADD13C,0.127000*%
%ADD14C,0.152400*%
G04 APERTURE END LIST*
D10*
%TO.C,C19*%
X165488857Y-85203380D02*
X165536476Y-85251000D01*
X165536476Y-85251000D02*
X165679333Y-85298619D01*
X165679333Y-85298619D02*
X165774571Y-85298619D01*
X165774571Y-85298619D02*
X165917428Y-85251000D01*
X165917428Y-85251000D02*
X166012666Y-85155761D01*
X166012666Y-85155761D02*
X166060285Y-85060523D01*
X166060285Y-85060523D02*
X166107904Y-84870047D01*
X166107904Y-84870047D02*
X166107904Y-84727190D01*
X166107904Y-84727190D02*
X166060285Y-84536714D01*
X166060285Y-84536714D02*
X166012666Y-84441476D01*
X166012666Y-84441476D02*
X165917428Y-84346238D01*
X165917428Y-84346238D02*
X165774571Y-84298619D01*
X165774571Y-84298619D02*
X165679333Y-84298619D01*
X165679333Y-84298619D02*
X165536476Y-84346238D01*
X165536476Y-84346238D02*
X165488857Y-84393857D01*
X164536476Y-85298619D02*
X165107904Y-85298619D01*
X164822190Y-85298619D02*
X164822190Y-84298619D01*
X164822190Y-84298619D02*
X164917428Y-84441476D01*
X164917428Y-84441476D02*
X165012666Y-84536714D01*
X165012666Y-84536714D02*
X165107904Y-84584333D01*
X164060285Y-85298619D02*
X163869809Y-85298619D01*
X163869809Y-85298619D02*
X163774571Y-85251000D01*
X163774571Y-85251000D02*
X163726952Y-85203380D01*
X163726952Y-85203380D02*
X163631714Y-85060523D01*
X163631714Y-85060523D02*
X163584095Y-84870047D01*
X163584095Y-84870047D02*
X163584095Y-84489095D01*
X163584095Y-84489095D02*
X163631714Y-84393857D01*
X163631714Y-84393857D02*
X163679333Y-84346238D01*
X163679333Y-84346238D02*
X163774571Y-84298619D01*
X163774571Y-84298619D02*
X163965047Y-84298619D01*
X163965047Y-84298619D02*
X164060285Y-84346238D01*
X164060285Y-84346238D02*
X164107904Y-84393857D01*
X164107904Y-84393857D02*
X164155523Y-84489095D01*
X164155523Y-84489095D02*
X164155523Y-84727190D01*
X164155523Y-84727190D02*
X164107904Y-84822428D01*
X164107904Y-84822428D02*
X164060285Y-84870047D01*
X164060285Y-84870047D02*
X163965047Y-84917666D01*
X163965047Y-84917666D02*
X163774571Y-84917666D01*
X163774571Y-84917666D02*
X163679333Y-84870047D01*
X163679333Y-84870047D02*
X163631714Y-84822428D01*
X163631714Y-84822428D02*
X163584095Y-84727190D01*
%TO.C,R2*%
X105364619Y-75001333D02*
X104888428Y-74668000D01*
X105364619Y-74429905D02*
X104364619Y-74429905D01*
X104364619Y-74429905D02*
X104364619Y-74810857D01*
X104364619Y-74810857D02*
X104412238Y-74906095D01*
X104412238Y-74906095D02*
X104459857Y-74953714D01*
X104459857Y-74953714D02*
X104555095Y-75001333D01*
X104555095Y-75001333D02*
X104697952Y-75001333D01*
X104697952Y-75001333D02*
X104793190Y-74953714D01*
X104793190Y-74953714D02*
X104840809Y-74906095D01*
X104840809Y-74906095D02*
X104888428Y-74810857D01*
X104888428Y-74810857D02*
X104888428Y-74429905D01*
X104459857Y-75382286D02*
X104412238Y-75429905D01*
X104412238Y-75429905D02*
X104364619Y-75525143D01*
X104364619Y-75525143D02*
X104364619Y-75763238D01*
X104364619Y-75763238D02*
X104412238Y-75858476D01*
X104412238Y-75858476D02*
X104459857Y-75906095D01*
X104459857Y-75906095D02*
X104555095Y-75953714D01*
X104555095Y-75953714D02*
X104650333Y-75953714D01*
X104650333Y-75953714D02*
X104793190Y-75906095D01*
X104793190Y-75906095D02*
X105364619Y-75334667D01*
X105364619Y-75334667D02*
X105364619Y-75953714D01*
%TO.C,C14*%
X134246857Y-88505380D02*
X134294476Y-88553000D01*
X134294476Y-88553000D02*
X134437333Y-88600619D01*
X134437333Y-88600619D02*
X134532571Y-88600619D01*
X134532571Y-88600619D02*
X134675428Y-88553000D01*
X134675428Y-88553000D02*
X134770666Y-88457761D01*
X134770666Y-88457761D02*
X134818285Y-88362523D01*
X134818285Y-88362523D02*
X134865904Y-88172047D01*
X134865904Y-88172047D02*
X134865904Y-88029190D01*
X134865904Y-88029190D02*
X134818285Y-87838714D01*
X134818285Y-87838714D02*
X134770666Y-87743476D01*
X134770666Y-87743476D02*
X134675428Y-87648238D01*
X134675428Y-87648238D02*
X134532571Y-87600619D01*
X134532571Y-87600619D02*
X134437333Y-87600619D01*
X134437333Y-87600619D02*
X134294476Y-87648238D01*
X134294476Y-87648238D02*
X134246857Y-87695857D01*
X133294476Y-88600619D02*
X133865904Y-88600619D01*
X133580190Y-88600619D02*
X133580190Y-87600619D01*
X133580190Y-87600619D02*
X133675428Y-87743476D01*
X133675428Y-87743476D02*
X133770666Y-87838714D01*
X133770666Y-87838714D02*
X133865904Y-87886333D01*
X132437333Y-87933952D02*
X132437333Y-88600619D01*
X132675428Y-87553000D02*
X132913523Y-88267285D01*
X132913523Y-88267285D02*
X132294476Y-88267285D01*
%TO.C,L1*%
X116244666Y-108920619D02*
X116720856Y-108920619D01*
X116720856Y-108920619D02*
X116720856Y-107920619D01*
X115387523Y-108920619D02*
X115958951Y-108920619D01*
X115673237Y-108920619D02*
X115673237Y-107920619D01*
X115673237Y-107920619D02*
X115768475Y-108063476D01*
X115768475Y-108063476D02*
X115863713Y-108158714D01*
X115863713Y-108158714D02*
X115958951Y-108206333D01*
%TO.C,C6*%
X116244666Y-104761380D02*
X116292285Y-104809000D01*
X116292285Y-104809000D02*
X116435142Y-104856619D01*
X116435142Y-104856619D02*
X116530380Y-104856619D01*
X116530380Y-104856619D02*
X116673237Y-104809000D01*
X116673237Y-104809000D02*
X116768475Y-104713761D01*
X116768475Y-104713761D02*
X116816094Y-104618523D01*
X116816094Y-104618523D02*
X116863713Y-104428047D01*
X116863713Y-104428047D02*
X116863713Y-104285190D01*
X116863713Y-104285190D02*
X116816094Y-104094714D01*
X116816094Y-104094714D02*
X116768475Y-103999476D01*
X116768475Y-103999476D02*
X116673237Y-103904238D01*
X116673237Y-103904238D02*
X116530380Y-103856619D01*
X116530380Y-103856619D02*
X116435142Y-103856619D01*
X116435142Y-103856619D02*
X116292285Y-103904238D01*
X116292285Y-103904238D02*
X116244666Y-103951857D01*
X115387523Y-103856619D02*
X115577999Y-103856619D01*
X115577999Y-103856619D02*
X115673237Y-103904238D01*
X115673237Y-103904238D02*
X115720856Y-103951857D01*
X115720856Y-103951857D02*
X115816094Y-104094714D01*
X115816094Y-104094714D02*
X115863713Y-104285190D01*
X115863713Y-104285190D02*
X115863713Y-104666142D01*
X115863713Y-104666142D02*
X115816094Y-104761380D01*
X115816094Y-104761380D02*
X115768475Y-104809000D01*
X115768475Y-104809000D02*
X115673237Y-104856619D01*
X115673237Y-104856619D02*
X115482761Y-104856619D01*
X115482761Y-104856619D02*
X115387523Y-104809000D01*
X115387523Y-104809000D02*
X115339904Y-104761380D01*
X115339904Y-104761380D02*
X115292285Y-104666142D01*
X115292285Y-104666142D02*
X115292285Y-104428047D01*
X115292285Y-104428047D02*
X115339904Y-104332809D01*
X115339904Y-104332809D02*
X115387523Y-104285190D01*
X115387523Y-104285190D02*
X115482761Y-104237571D01*
X115482761Y-104237571D02*
X115673237Y-104237571D01*
X115673237Y-104237571D02*
X115768475Y-104285190D01*
X115768475Y-104285190D02*
X115816094Y-104332809D01*
X115816094Y-104332809D02*
X115863713Y-104428047D01*
%TO.C,C9*%
X123102666Y-96125380D02*
X123150285Y-96173000D01*
X123150285Y-96173000D02*
X123293142Y-96220619D01*
X123293142Y-96220619D02*
X123388380Y-96220619D01*
X123388380Y-96220619D02*
X123531237Y-96173000D01*
X123531237Y-96173000D02*
X123626475Y-96077761D01*
X123626475Y-96077761D02*
X123674094Y-95982523D01*
X123674094Y-95982523D02*
X123721713Y-95792047D01*
X123721713Y-95792047D02*
X123721713Y-95649190D01*
X123721713Y-95649190D02*
X123674094Y-95458714D01*
X123674094Y-95458714D02*
X123626475Y-95363476D01*
X123626475Y-95363476D02*
X123531237Y-95268238D01*
X123531237Y-95268238D02*
X123388380Y-95220619D01*
X123388380Y-95220619D02*
X123293142Y-95220619D01*
X123293142Y-95220619D02*
X123150285Y-95268238D01*
X123150285Y-95268238D02*
X123102666Y-95315857D01*
X122626475Y-96220619D02*
X122435999Y-96220619D01*
X122435999Y-96220619D02*
X122340761Y-96173000D01*
X122340761Y-96173000D02*
X122293142Y-96125380D01*
X122293142Y-96125380D02*
X122197904Y-95982523D01*
X122197904Y-95982523D02*
X122150285Y-95792047D01*
X122150285Y-95792047D02*
X122150285Y-95411095D01*
X122150285Y-95411095D02*
X122197904Y-95315857D01*
X122197904Y-95315857D02*
X122245523Y-95268238D01*
X122245523Y-95268238D02*
X122340761Y-95220619D01*
X122340761Y-95220619D02*
X122531237Y-95220619D01*
X122531237Y-95220619D02*
X122626475Y-95268238D01*
X122626475Y-95268238D02*
X122674094Y-95315857D01*
X122674094Y-95315857D02*
X122721713Y-95411095D01*
X122721713Y-95411095D02*
X122721713Y-95649190D01*
X122721713Y-95649190D02*
X122674094Y-95744428D01*
X122674094Y-95744428D02*
X122626475Y-95792047D01*
X122626475Y-95792047D02*
X122531237Y-95839666D01*
X122531237Y-95839666D02*
X122340761Y-95839666D01*
X122340761Y-95839666D02*
X122245523Y-95792047D01*
X122245523Y-95792047D02*
X122197904Y-95744428D01*
X122197904Y-95744428D02*
X122150285Y-95649190D01*
%TO.C,R9*%
X135802666Y-103078619D02*
X136135999Y-102602428D01*
X136374094Y-103078619D02*
X136374094Y-102078619D01*
X136374094Y-102078619D02*
X135993142Y-102078619D01*
X135993142Y-102078619D02*
X135897904Y-102126238D01*
X135897904Y-102126238D02*
X135850285Y-102173857D01*
X135850285Y-102173857D02*
X135802666Y-102269095D01*
X135802666Y-102269095D02*
X135802666Y-102411952D01*
X135802666Y-102411952D02*
X135850285Y-102507190D01*
X135850285Y-102507190D02*
X135897904Y-102554809D01*
X135897904Y-102554809D02*
X135993142Y-102602428D01*
X135993142Y-102602428D02*
X136374094Y-102602428D01*
X135326475Y-103078619D02*
X135135999Y-103078619D01*
X135135999Y-103078619D02*
X135040761Y-103031000D01*
X135040761Y-103031000D02*
X134993142Y-102983380D01*
X134993142Y-102983380D02*
X134897904Y-102840523D01*
X134897904Y-102840523D02*
X134850285Y-102650047D01*
X134850285Y-102650047D02*
X134850285Y-102269095D01*
X134850285Y-102269095D02*
X134897904Y-102173857D01*
X134897904Y-102173857D02*
X134945523Y-102126238D01*
X134945523Y-102126238D02*
X135040761Y-102078619D01*
X135040761Y-102078619D02*
X135231237Y-102078619D01*
X135231237Y-102078619D02*
X135326475Y-102126238D01*
X135326475Y-102126238D02*
X135374094Y-102173857D01*
X135374094Y-102173857D02*
X135421713Y-102269095D01*
X135421713Y-102269095D02*
X135421713Y-102507190D01*
X135421713Y-102507190D02*
X135374094Y-102602428D01*
X135374094Y-102602428D02*
X135326475Y-102650047D01*
X135326475Y-102650047D02*
X135231237Y-102697666D01*
X135231237Y-102697666D02*
X135040761Y-102697666D01*
X135040761Y-102697666D02*
X134945523Y-102650047D01*
X134945523Y-102650047D02*
X134897904Y-102602428D01*
X134897904Y-102602428D02*
X134850285Y-102507190D01*
%TO.C,Y1*%
X120653238Y-103346428D02*
X120653238Y-103822619D01*
X120986571Y-102822619D02*
X120653238Y-103346428D01*
X120653238Y-103346428D02*
X120319905Y-102822619D01*
X119462762Y-103822619D02*
X120034190Y-103822619D01*
X119748476Y-103822619D02*
X119748476Y-102822619D01*
X119748476Y-102822619D02*
X119843714Y-102965476D01*
X119843714Y-102965476D02*
X119938952Y-103060714D01*
X119938952Y-103060714D02*
X120034190Y-103108333D01*
%TO.C,U1*%
X126493020Y-99283831D02*
X126493020Y-100094541D01*
X126493020Y-100094541D02*
X126445332Y-100189919D01*
X126445332Y-100189919D02*
X126397643Y-100237608D01*
X126397643Y-100237608D02*
X126302265Y-100285296D01*
X126302265Y-100285296D02*
X126111510Y-100285296D01*
X126111510Y-100285296D02*
X126016132Y-100237608D01*
X126016132Y-100237608D02*
X125968444Y-100189919D01*
X125968444Y-100189919D02*
X125920755Y-100094541D01*
X125920755Y-100094541D02*
X125920755Y-99283831D01*
X124919290Y-100285296D02*
X125491555Y-100285296D01*
X125205422Y-100285296D02*
X125205422Y-99283831D01*
X125205422Y-99283831D02*
X125300800Y-99426898D01*
X125300800Y-99426898D02*
X125396178Y-99522275D01*
X125396178Y-99522275D02*
X125491555Y-99569964D01*
%TO.C,C2*%
X115736666Y-98665380D02*
X115784285Y-98713000D01*
X115784285Y-98713000D02*
X115927142Y-98760619D01*
X115927142Y-98760619D02*
X116022380Y-98760619D01*
X116022380Y-98760619D02*
X116165237Y-98713000D01*
X116165237Y-98713000D02*
X116260475Y-98617761D01*
X116260475Y-98617761D02*
X116308094Y-98522523D01*
X116308094Y-98522523D02*
X116355713Y-98332047D01*
X116355713Y-98332047D02*
X116355713Y-98189190D01*
X116355713Y-98189190D02*
X116308094Y-97998714D01*
X116308094Y-97998714D02*
X116260475Y-97903476D01*
X116260475Y-97903476D02*
X116165237Y-97808238D01*
X116165237Y-97808238D02*
X116022380Y-97760619D01*
X116022380Y-97760619D02*
X115927142Y-97760619D01*
X115927142Y-97760619D02*
X115784285Y-97808238D01*
X115784285Y-97808238D02*
X115736666Y-97855857D01*
X115355713Y-97855857D02*
X115308094Y-97808238D01*
X115308094Y-97808238D02*
X115212856Y-97760619D01*
X115212856Y-97760619D02*
X114974761Y-97760619D01*
X114974761Y-97760619D02*
X114879523Y-97808238D01*
X114879523Y-97808238D02*
X114831904Y-97855857D01*
X114831904Y-97855857D02*
X114784285Y-97951095D01*
X114784285Y-97951095D02*
X114784285Y-98046333D01*
X114784285Y-98046333D02*
X114831904Y-98189190D01*
X114831904Y-98189190D02*
X115403332Y-98760619D01*
X115403332Y-98760619D02*
X114784285Y-98760619D01*
%TO.C,R5*%
X108666619Y-75017333D02*
X108190428Y-74684000D01*
X108666619Y-74445905D02*
X107666619Y-74445905D01*
X107666619Y-74445905D02*
X107666619Y-74826857D01*
X107666619Y-74826857D02*
X107714238Y-74922095D01*
X107714238Y-74922095D02*
X107761857Y-74969714D01*
X107761857Y-74969714D02*
X107857095Y-75017333D01*
X107857095Y-75017333D02*
X107999952Y-75017333D01*
X107999952Y-75017333D02*
X108095190Y-74969714D01*
X108095190Y-74969714D02*
X108142809Y-74922095D01*
X108142809Y-74922095D02*
X108190428Y-74826857D01*
X108190428Y-74826857D02*
X108190428Y-74445905D01*
X107666619Y-75922095D02*
X107666619Y-75445905D01*
X107666619Y-75445905D02*
X108142809Y-75398286D01*
X108142809Y-75398286D02*
X108095190Y-75445905D01*
X108095190Y-75445905D02*
X108047571Y-75541143D01*
X108047571Y-75541143D02*
X108047571Y-75779238D01*
X108047571Y-75779238D02*
X108095190Y-75874476D01*
X108095190Y-75874476D02*
X108142809Y-75922095D01*
X108142809Y-75922095D02*
X108238047Y-75969714D01*
X108238047Y-75969714D02*
X108476142Y-75969714D01*
X108476142Y-75969714D02*
X108571380Y-75922095D01*
X108571380Y-75922095D02*
X108619000Y-75874476D01*
X108619000Y-75874476D02*
X108666619Y-75779238D01*
X108666619Y-75779238D02*
X108666619Y-75541143D01*
X108666619Y-75541143D02*
X108619000Y-75445905D01*
X108619000Y-75445905D02*
X108571380Y-75398286D01*
%TO.C,C10*%
X116974857Y-82409380D02*
X117022476Y-82457000D01*
X117022476Y-82457000D02*
X117165333Y-82504619D01*
X117165333Y-82504619D02*
X117260571Y-82504619D01*
X117260571Y-82504619D02*
X117403428Y-82457000D01*
X117403428Y-82457000D02*
X117498666Y-82361761D01*
X117498666Y-82361761D02*
X117546285Y-82266523D01*
X117546285Y-82266523D02*
X117593904Y-82076047D01*
X117593904Y-82076047D02*
X117593904Y-81933190D01*
X117593904Y-81933190D02*
X117546285Y-81742714D01*
X117546285Y-81742714D02*
X117498666Y-81647476D01*
X117498666Y-81647476D02*
X117403428Y-81552238D01*
X117403428Y-81552238D02*
X117260571Y-81504619D01*
X117260571Y-81504619D02*
X117165333Y-81504619D01*
X117165333Y-81504619D02*
X117022476Y-81552238D01*
X117022476Y-81552238D02*
X116974857Y-81599857D01*
X116022476Y-82504619D02*
X116593904Y-82504619D01*
X116308190Y-82504619D02*
X116308190Y-81504619D01*
X116308190Y-81504619D02*
X116403428Y-81647476D01*
X116403428Y-81647476D02*
X116498666Y-81742714D01*
X116498666Y-81742714D02*
X116593904Y-81790333D01*
X115403428Y-81504619D02*
X115308190Y-81504619D01*
X115308190Y-81504619D02*
X115212952Y-81552238D01*
X115212952Y-81552238D02*
X115165333Y-81599857D01*
X115165333Y-81599857D02*
X115117714Y-81695095D01*
X115117714Y-81695095D02*
X115070095Y-81885571D01*
X115070095Y-81885571D02*
X115070095Y-82123666D01*
X115070095Y-82123666D02*
X115117714Y-82314142D01*
X115117714Y-82314142D02*
X115165333Y-82409380D01*
X115165333Y-82409380D02*
X115212952Y-82457000D01*
X115212952Y-82457000D02*
X115308190Y-82504619D01*
X115308190Y-82504619D02*
X115403428Y-82504619D01*
X115403428Y-82504619D02*
X115498666Y-82457000D01*
X115498666Y-82457000D02*
X115546285Y-82409380D01*
X115546285Y-82409380D02*
X115593904Y-82314142D01*
X115593904Y-82314142D02*
X115641523Y-82123666D01*
X115641523Y-82123666D02*
X115641523Y-81885571D01*
X115641523Y-81885571D02*
X115593904Y-81695095D01*
X115593904Y-81695095D02*
X115546285Y-81599857D01*
X115546285Y-81599857D02*
X115498666Y-81552238D01*
X115498666Y-81552238D02*
X115403428Y-81504619D01*
%TO.C,C4*%
X133241166Y-109575380D02*
X133288785Y-109623000D01*
X133288785Y-109623000D02*
X133431642Y-109670619D01*
X133431642Y-109670619D02*
X133526880Y-109670619D01*
X133526880Y-109670619D02*
X133669737Y-109623000D01*
X133669737Y-109623000D02*
X133764975Y-109527761D01*
X133764975Y-109527761D02*
X133812594Y-109432523D01*
X133812594Y-109432523D02*
X133860213Y-109242047D01*
X133860213Y-109242047D02*
X133860213Y-109099190D01*
X133860213Y-109099190D02*
X133812594Y-108908714D01*
X133812594Y-108908714D02*
X133764975Y-108813476D01*
X133764975Y-108813476D02*
X133669737Y-108718238D01*
X133669737Y-108718238D02*
X133526880Y-108670619D01*
X133526880Y-108670619D02*
X133431642Y-108670619D01*
X133431642Y-108670619D02*
X133288785Y-108718238D01*
X133288785Y-108718238D02*
X133241166Y-108765857D01*
X132384023Y-109003952D02*
X132384023Y-109670619D01*
X132622118Y-108623000D02*
X132860213Y-109337285D01*
X132860213Y-109337285D02*
X132241166Y-109337285D01*
%TO.C,C21*%
X152259357Y-86727380D02*
X152306976Y-86775000D01*
X152306976Y-86775000D02*
X152449833Y-86822619D01*
X152449833Y-86822619D02*
X152545071Y-86822619D01*
X152545071Y-86822619D02*
X152687928Y-86775000D01*
X152687928Y-86775000D02*
X152783166Y-86679761D01*
X152783166Y-86679761D02*
X152830785Y-86584523D01*
X152830785Y-86584523D02*
X152878404Y-86394047D01*
X152878404Y-86394047D02*
X152878404Y-86251190D01*
X152878404Y-86251190D02*
X152830785Y-86060714D01*
X152830785Y-86060714D02*
X152783166Y-85965476D01*
X152783166Y-85965476D02*
X152687928Y-85870238D01*
X152687928Y-85870238D02*
X152545071Y-85822619D01*
X152545071Y-85822619D02*
X152449833Y-85822619D01*
X152449833Y-85822619D02*
X152306976Y-85870238D01*
X152306976Y-85870238D02*
X152259357Y-85917857D01*
X151878404Y-85917857D02*
X151830785Y-85870238D01*
X151830785Y-85870238D02*
X151735547Y-85822619D01*
X151735547Y-85822619D02*
X151497452Y-85822619D01*
X151497452Y-85822619D02*
X151402214Y-85870238D01*
X151402214Y-85870238D02*
X151354595Y-85917857D01*
X151354595Y-85917857D02*
X151306976Y-86013095D01*
X151306976Y-86013095D02*
X151306976Y-86108333D01*
X151306976Y-86108333D02*
X151354595Y-86251190D01*
X151354595Y-86251190D02*
X151926023Y-86822619D01*
X151926023Y-86822619D02*
X151306976Y-86822619D01*
X150354595Y-86822619D02*
X150926023Y-86822619D01*
X150640309Y-86822619D02*
X150640309Y-85822619D01*
X150640309Y-85822619D02*
X150735547Y-85965476D01*
X150735547Y-85965476D02*
X150830785Y-86060714D01*
X150830785Y-86060714D02*
X150926023Y-86108333D01*
%TO.C,U5*%
X160121523Y-77046095D02*
X160121523Y-77693714D01*
X160121523Y-77693714D02*
X160083428Y-77769904D01*
X160083428Y-77769904D02*
X160045333Y-77808000D01*
X160045333Y-77808000D02*
X159969142Y-77846095D01*
X159969142Y-77846095D02*
X159816761Y-77846095D01*
X159816761Y-77846095D02*
X159740571Y-77808000D01*
X159740571Y-77808000D02*
X159702476Y-77769904D01*
X159702476Y-77769904D02*
X159664380Y-77693714D01*
X159664380Y-77693714D02*
X159664380Y-77046095D01*
X158902476Y-77046095D02*
X159283428Y-77046095D01*
X159283428Y-77046095D02*
X159321524Y-77427047D01*
X159321524Y-77427047D02*
X159283428Y-77388952D01*
X159283428Y-77388952D02*
X159207238Y-77350857D01*
X159207238Y-77350857D02*
X159016762Y-77350857D01*
X159016762Y-77350857D02*
X158940571Y-77388952D01*
X158940571Y-77388952D02*
X158902476Y-77427047D01*
X158902476Y-77427047D02*
X158864381Y-77503238D01*
X158864381Y-77503238D02*
X158864381Y-77693714D01*
X158864381Y-77693714D02*
X158902476Y-77769904D01*
X158902476Y-77769904D02*
X158940571Y-77808000D01*
X158940571Y-77808000D02*
X159016762Y-77846095D01*
X159016762Y-77846095D02*
X159207238Y-77846095D01*
X159207238Y-77846095D02*
X159283428Y-77808000D01*
X159283428Y-77808000D02*
X159321524Y-77769904D01*
%TO.C,R4*%
X111714619Y-75017333D02*
X111238428Y-74684000D01*
X111714619Y-74445905D02*
X110714619Y-74445905D01*
X110714619Y-74445905D02*
X110714619Y-74826857D01*
X110714619Y-74826857D02*
X110762238Y-74922095D01*
X110762238Y-74922095D02*
X110809857Y-74969714D01*
X110809857Y-74969714D02*
X110905095Y-75017333D01*
X110905095Y-75017333D02*
X111047952Y-75017333D01*
X111047952Y-75017333D02*
X111143190Y-74969714D01*
X111143190Y-74969714D02*
X111190809Y-74922095D01*
X111190809Y-74922095D02*
X111238428Y-74826857D01*
X111238428Y-74826857D02*
X111238428Y-74445905D01*
X111047952Y-75874476D02*
X111714619Y-75874476D01*
X110667000Y-75636381D02*
X111381285Y-75398286D01*
X111381285Y-75398286D02*
X111381285Y-76017333D01*
%TO.C,J5*%
X135662309Y-69242616D02*
X135662309Y-70387566D01*
X135662309Y-70387566D02*
X135738639Y-70616556D01*
X135738639Y-70616556D02*
X135891299Y-70769216D01*
X135891299Y-70769216D02*
X136120289Y-70845545D01*
X136120289Y-70845545D02*
X136272949Y-70845545D01*
X134135710Y-69242616D02*
X134899010Y-69242616D01*
X134899010Y-69242616D02*
X134975340Y-70005916D01*
X134975340Y-70005916D02*
X134899010Y-69929586D01*
X134899010Y-69929586D02*
X134746350Y-69853256D01*
X134746350Y-69853256D02*
X134364700Y-69853256D01*
X134364700Y-69853256D02*
X134212040Y-69929586D01*
X134212040Y-69929586D02*
X134135710Y-70005916D01*
X134135710Y-70005916D02*
X134059380Y-70158576D01*
X134059380Y-70158576D02*
X134059380Y-70540226D01*
X134059380Y-70540226D02*
X134135710Y-70692886D01*
X134135710Y-70692886D02*
X134212040Y-70769216D01*
X134212040Y-70769216D02*
X134364700Y-70845545D01*
X134364700Y-70845545D02*
X134746350Y-70845545D01*
X134746350Y-70845545D02*
X134899010Y-70769216D01*
X134899010Y-70769216D02*
X134975340Y-70692886D01*
%TO.C,C12*%
X125233357Y-72503380D02*
X125280976Y-72551000D01*
X125280976Y-72551000D02*
X125423833Y-72598619D01*
X125423833Y-72598619D02*
X125519071Y-72598619D01*
X125519071Y-72598619D02*
X125661928Y-72551000D01*
X125661928Y-72551000D02*
X125757166Y-72455761D01*
X125757166Y-72455761D02*
X125804785Y-72360523D01*
X125804785Y-72360523D02*
X125852404Y-72170047D01*
X125852404Y-72170047D02*
X125852404Y-72027190D01*
X125852404Y-72027190D02*
X125804785Y-71836714D01*
X125804785Y-71836714D02*
X125757166Y-71741476D01*
X125757166Y-71741476D02*
X125661928Y-71646238D01*
X125661928Y-71646238D02*
X125519071Y-71598619D01*
X125519071Y-71598619D02*
X125423833Y-71598619D01*
X125423833Y-71598619D02*
X125280976Y-71646238D01*
X125280976Y-71646238D02*
X125233357Y-71693857D01*
X124280976Y-72598619D02*
X124852404Y-72598619D01*
X124566690Y-72598619D02*
X124566690Y-71598619D01*
X124566690Y-71598619D02*
X124661928Y-71741476D01*
X124661928Y-71741476D02*
X124757166Y-71836714D01*
X124757166Y-71836714D02*
X124852404Y-71884333D01*
X123900023Y-71693857D02*
X123852404Y-71646238D01*
X123852404Y-71646238D02*
X123757166Y-71598619D01*
X123757166Y-71598619D02*
X123519071Y-71598619D01*
X123519071Y-71598619D02*
X123423833Y-71646238D01*
X123423833Y-71646238D02*
X123376214Y-71693857D01*
X123376214Y-71693857D02*
X123328595Y-71789095D01*
X123328595Y-71789095D02*
X123328595Y-71884333D01*
X123328595Y-71884333D02*
X123376214Y-72027190D01*
X123376214Y-72027190D02*
X123947642Y-72598619D01*
X123947642Y-72598619D02*
X123328595Y-72598619D01*
%TO.C,C16*%
X134246857Y-93585380D02*
X134294476Y-93633000D01*
X134294476Y-93633000D02*
X134437333Y-93680619D01*
X134437333Y-93680619D02*
X134532571Y-93680619D01*
X134532571Y-93680619D02*
X134675428Y-93633000D01*
X134675428Y-93633000D02*
X134770666Y-93537761D01*
X134770666Y-93537761D02*
X134818285Y-93442523D01*
X134818285Y-93442523D02*
X134865904Y-93252047D01*
X134865904Y-93252047D02*
X134865904Y-93109190D01*
X134865904Y-93109190D02*
X134818285Y-92918714D01*
X134818285Y-92918714D02*
X134770666Y-92823476D01*
X134770666Y-92823476D02*
X134675428Y-92728238D01*
X134675428Y-92728238D02*
X134532571Y-92680619D01*
X134532571Y-92680619D02*
X134437333Y-92680619D01*
X134437333Y-92680619D02*
X134294476Y-92728238D01*
X134294476Y-92728238D02*
X134246857Y-92775857D01*
X133294476Y-93680619D02*
X133865904Y-93680619D01*
X133580190Y-93680619D02*
X133580190Y-92680619D01*
X133580190Y-92680619D02*
X133675428Y-92823476D01*
X133675428Y-92823476D02*
X133770666Y-92918714D01*
X133770666Y-92918714D02*
X133865904Y-92966333D01*
X132437333Y-92680619D02*
X132627809Y-92680619D01*
X132627809Y-92680619D02*
X132723047Y-92728238D01*
X132723047Y-92728238D02*
X132770666Y-92775857D01*
X132770666Y-92775857D02*
X132865904Y-92918714D01*
X132865904Y-92918714D02*
X132913523Y-93109190D01*
X132913523Y-93109190D02*
X132913523Y-93490142D01*
X132913523Y-93490142D02*
X132865904Y-93585380D01*
X132865904Y-93585380D02*
X132818285Y-93633000D01*
X132818285Y-93633000D02*
X132723047Y-93680619D01*
X132723047Y-93680619D02*
X132532571Y-93680619D01*
X132532571Y-93680619D02*
X132437333Y-93633000D01*
X132437333Y-93633000D02*
X132389714Y-93585380D01*
X132389714Y-93585380D02*
X132342095Y-93490142D01*
X132342095Y-93490142D02*
X132342095Y-93252047D01*
X132342095Y-93252047D02*
X132389714Y-93156809D01*
X132389714Y-93156809D02*
X132437333Y-93109190D01*
X132437333Y-93109190D02*
X132532571Y-93061571D01*
X132532571Y-93061571D02*
X132723047Y-93061571D01*
X132723047Y-93061571D02*
X132818285Y-93109190D01*
X132818285Y-93109190D02*
X132865904Y-93156809D01*
X132865904Y-93156809D02*
X132913523Y-93252047D01*
%TO.C,C8*%
X133008666Y-104253380D02*
X133056285Y-104301000D01*
X133056285Y-104301000D02*
X133199142Y-104348619D01*
X133199142Y-104348619D02*
X133294380Y-104348619D01*
X133294380Y-104348619D02*
X133437237Y-104301000D01*
X133437237Y-104301000D02*
X133532475Y-104205761D01*
X133532475Y-104205761D02*
X133580094Y-104110523D01*
X133580094Y-104110523D02*
X133627713Y-103920047D01*
X133627713Y-103920047D02*
X133627713Y-103777190D01*
X133627713Y-103777190D02*
X133580094Y-103586714D01*
X133580094Y-103586714D02*
X133532475Y-103491476D01*
X133532475Y-103491476D02*
X133437237Y-103396238D01*
X133437237Y-103396238D02*
X133294380Y-103348619D01*
X133294380Y-103348619D02*
X133199142Y-103348619D01*
X133199142Y-103348619D02*
X133056285Y-103396238D01*
X133056285Y-103396238D02*
X133008666Y-103443857D01*
X132437237Y-103777190D02*
X132532475Y-103729571D01*
X132532475Y-103729571D02*
X132580094Y-103681952D01*
X132580094Y-103681952D02*
X132627713Y-103586714D01*
X132627713Y-103586714D02*
X132627713Y-103539095D01*
X132627713Y-103539095D02*
X132580094Y-103443857D01*
X132580094Y-103443857D02*
X132532475Y-103396238D01*
X132532475Y-103396238D02*
X132437237Y-103348619D01*
X132437237Y-103348619D02*
X132246761Y-103348619D01*
X132246761Y-103348619D02*
X132151523Y-103396238D01*
X132151523Y-103396238D02*
X132103904Y-103443857D01*
X132103904Y-103443857D02*
X132056285Y-103539095D01*
X132056285Y-103539095D02*
X132056285Y-103586714D01*
X132056285Y-103586714D02*
X132103904Y-103681952D01*
X132103904Y-103681952D02*
X132151523Y-103729571D01*
X132151523Y-103729571D02*
X132246761Y-103777190D01*
X132246761Y-103777190D02*
X132437237Y-103777190D01*
X132437237Y-103777190D02*
X132532475Y-103824809D01*
X132532475Y-103824809D02*
X132580094Y-103872428D01*
X132580094Y-103872428D02*
X132627713Y-103967666D01*
X132627713Y-103967666D02*
X132627713Y-104158142D01*
X132627713Y-104158142D02*
X132580094Y-104253380D01*
X132580094Y-104253380D02*
X132532475Y-104301000D01*
X132532475Y-104301000D02*
X132437237Y-104348619D01*
X132437237Y-104348619D02*
X132246761Y-104348619D01*
X132246761Y-104348619D02*
X132151523Y-104301000D01*
X132151523Y-104301000D02*
X132103904Y-104253380D01*
X132103904Y-104253380D02*
X132056285Y-104158142D01*
X132056285Y-104158142D02*
X132056285Y-103967666D01*
X132056285Y-103967666D02*
X132103904Y-103872428D01*
X132103904Y-103872428D02*
X132151523Y-103824809D01*
X132151523Y-103824809D02*
X132246761Y-103777190D01*
%TO.C,C11*%
X116974857Y-79361380D02*
X117022476Y-79409000D01*
X117022476Y-79409000D02*
X117165333Y-79456619D01*
X117165333Y-79456619D02*
X117260571Y-79456619D01*
X117260571Y-79456619D02*
X117403428Y-79409000D01*
X117403428Y-79409000D02*
X117498666Y-79313761D01*
X117498666Y-79313761D02*
X117546285Y-79218523D01*
X117546285Y-79218523D02*
X117593904Y-79028047D01*
X117593904Y-79028047D02*
X117593904Y-78885190D01*
X117593904Y-78885190D02*
X117546285Y-78694714D01*
X117546285Y-78694714D02*
X117498666Y-78599476D01*
X117498666Y-78599476D02*
X117403428Y-78504238D01*
X117403428Y-78504238D02*
X117260571Y-78456619D01*
X117260571Y-78456619D02*
X117165333Y-78456619D01*
X117165333Y-78456619D02*
X117022476Y-78504238D01*
X117022476Y-78504238D02*
X116974857Y-78551857D01*
X116022476Y-79456619D02*
X116593904Y-79456619D01*
X116308190Y-79456619D02*
X116308190Y-78456619D01*
X116308190Y-78456619D02*
X116403428Y-78599476D01*
X116403428Y-78599476D02*
X116498666Y-78694714D01*
X116498666Y-78694714D02*
X116593904Y-78742333D01*
X115070095Y-79456619D02*
X115641523Y-79456619D01*
X115355809Y-79456619D02*
X115355809Y-78456619D01*
X115355809Y-78456619D02*
X115451047Y-78599476D01*
X115451047Y-78599476D02*
X115546285Y-78694714D01*
X115546285Y-78694714D02*
X115641523Y-78742333D01*
%TO.C,C1*%
X114720666Y-101713380D02*
X114768285Y-101761000D01*
X114768285Y-101761000D02*
X114911142Y-101808619D01*
X114911142Y-101808619D02*
X115006380Y-101808619D01*
X115006380Y-101808619D02*
X115149237Y-101761000D01*
X115149237Y-101761000D02*
X115244475Y-101665761D01*
X115244475Y-101665761D02*
X115292094Y-101570523D01*
X115292094Y-101570523D02*
X115339713Y-101380047D01*
X115339713Y-101380047D02*
X115339713Y-101237190D01*
X115339713Y-101237190D02*
X115292094Y-101046714D01*
X115292094Y-101046714D02*
X115244475Y-100951476D01*
X115244475Y-100951476D02*
X115149237Y-100856238D01*
X115149237Y-100856238D02*
X115006380Y-100808619D01*
X115006380Y-100808619D02*
X114911142Y-100808619D01*
X114911142Y-100808619D02*
X114768285Y-100856238D01*
X114768285Y-100856238D02*
X114720666Y-100903857D01*
X113768285Y-101808619D02*
X114339713Y-101808619D01*
X114053999Y-101808619D02*
X114053999Y-100808619D01*
X114053999Y-100808619D02*
X114149237Y-100951476D01*
X114149237Y-100951476D02*
X114244475Y-101046714D01*
X114244475Y-101046714D02*
X114339713Y-101094333D01*
%TO.C,R1*%
X108370666Y-88854619D02*
X108703999Y-88378428D01*
X108942094Y-88854619D02*
X108942094Y-87854619D01*
X108942094Y-87854619D02*
X108561142Y-87854619D01*
X108561142Y-87854619D02*
X108465904Y-87902238D01*
X108465904Y-87902238D02*
X108418285Y-87949857D01*
X108418285Y-87949857D02*
X108370666Y-88045095D01*
X108370666Y-88045095D02*
X108370666Y-88187952D01*
X108370666Y-88187952D02*
X108418285Y-88283190D01*
X108418285Y-88283190D02*
X108465904Y-88330809D01*
X108465904Y-88330809D02*
X108561142Y-88378428D01*
X108561142Y-88378428D02*
X108942094Y-88378428D01*
X107418285Y-88854619D02*
X107989713Y-88854619D01*
X107703999Y-88854619D02*
X107703999Y-87854619D01*
X107703999Y-87854619D02*
X107799237Y-87997476D01*
X107799237Y-87997476D02*
X107894475Y-88092714D01*
X107894475Y-88092714D02*
X107989713Y-88140333D01*
%TO.C,R6*%
X169076666Y-95458619D02*
X169409999Y-94982428D01*
X169648094Y-95458619D02*
X169648094Y-94458619D01*
X169648094Y-94458619D02*
X169267142Y-94458619D01*
X169267142Y-94458619D02*
X169171904Y-94506238D01*
X169171904Y-94506238D02*
X169124285Y-94553857D01*
X169124285Y-94553857D02*
X169076666Y-94649095D01*
X169076666Y-94649095D02*
X169076666Y-94791952D01*
X169076666Y-94791952D02*
X169124285Y-94887190D01*
X169124285Y-94887190D02*
X169171904Y-94934809D01*
X169171904Y-94934809D02*
X169267142Y-94982428D01*
X169267142Y-94982428D02*
X169648094Y-94982428D01*
X168219523Y-94458619D02*
X168409999Y-94458619D01*
X168409999Y-94458619D02*
X168505237Y-94506238D01*
X168505237Y-94506238D02*
X168552856Y-94553857D01*
X168552856Y-94553857D02*
X168648094Y-94696714D01*
X168648094Y-94696714D02*
X168695713Y-94887190D01*
X168695713Y-94887190D02*
X168695713Y-95268142D01*
X168695713Y-95268142D02*
X168648094Y-95363380D01*
X168648094Y-95363380D02*
X168600475Y-95411000D01*
X168600475Y-95411000D02*
X168505237Y-95458619D01*
X168505237Y-95458619D02*
X168314761Y-95458619D01*
X168314761Y-95458619D02*
X168219523Y-95411000D01*
X168219523Y-95411000D02*
X168171904Y-95363380D01*
X168171904Y-95363380D02*
X168124285Y-95268142D01*
X168124285Y-95268142D02*
X168124285Y-95030047D01*
X168124285Y-95030047D02*
X168171904Y-94934809D01*
X168171904Y-94934809D02*
X168219523Y-94887190D01*
X168219523Y-94887190D02*
X168314761Y-94839571D01*
X168314761Y-94839571D02*
X168505237Y-94839571D01*
X168505237Y-94839571D02*
X168600475Y-94887190D01*
X168600475Y-94887190D02*
X168648094Y-94934809D01*
X168648094Y-94934809D02*
X168695713Y-95030047D01*
%TO.C,R13*%
X165488857Y-81996619D02*
X165822190Y-81520428D01*
X166060285Y-81996619D02*
X166060285Y-80996619D01*
X166060285Y-80996619D02*
X165679333Y-80996619D01*
X165679333Y-80996619D02*
X165584095Y-81044238D01*
X165584095Y-81044238D02*
X165536476Y-81091857D01*
X165536476Y-81091857D02*
X165488857Y-81187095D01*
X165488857Y-81187095D02*
X165488857Y-81329952D01*
X165488857Y-81329952D02*
X165536476Y-81425190D01*
X165536476Y-81425190D02*
X165584095Y-81472809D01*
X165584095Y-81472809D02*
X165679333Y-81520428D01*
X165679333Y-81520428D02*
X166060285Y-81520428D01*
X164536476Y-81996619D02*
X165107904Y-81996619D01*
X164822190Y-81996619D02*
X164822190Y-80996619D01*
X164822190Y-80996619D02*
X164917428Y-81139476D01*
X164917428Y-81139476D02*
X165012666Y-81234714D01*
X165012666Y-81234714D02*
X165107904Y-81282333D01*
X164203142Y-80996619D02*
X163584095Y-80996619D01*
X163584095Y-80996619D02*
X163917428Y-81377571D01*
X163917428Y-81377571D02*
X163774571Y-81377571D01*
X163774571Y-81377571D02*
X163679333Y-81425190D01*
X163679333Y-81425190D02*
X163631714Y-81472809D01*
X163631714Y-81472809D02*
X163584095Y-81568047D01*
X163584095Y-81568047D02*
X163584095Y-81806142D01*
X163584095Y-81806142D02*
X163631714Y-81901380D01*
X163631714Y-81901380D02*
X163679333Y-81949000D01*
X163679333Y-81949000D02*
X163774571Y-81996619D01*
X163774571Y-81996619D02*
X164060285Y-81996619D01*
X164060285Y-81996619D02*
X164155523Y-81949000D01*
X164155523Y-81949000D02*
X164203142Y-81901380D01*
%TO.C,R8*%
X169076666Y-97998619D02*
X169409999Y-97522428D01*
X169648094Y-97998619D02*
X169648094Y-96998619D01*
X169648094Y-96998619D02*
X169267142Y-96998619D01*
X169267142Y-96998619D02*
X169171904Y-97046238D01*
X169171904Y-97046238D02*
X169124285Y-97093857D01*
X169124285Y-97093857D02*
X169076666Y-97189095D01*
X169076666Y-97189095D02*
X169076666Y-97331952D01*
X169076666Y-97331952D02*
X169124285Y-97427190D01*
X169124285Y-97427190D02*
X169171904Y-97474809D01*
X169171904Y-97474809D02*
X169267142Y-97522428D01*
X169267142Y-97522428D02*
X169648094Y-97522428D01*
X168505237Y-97427190D02*
X168600475Y-97379571D01*
X168600475Y-97379571D02*
X168648094Y-97331952D01*
X168648094Y-97331952D02*
X168695713Y-97236714D01*
X168695713Y-97236714D02*
X168695713Y-97189095D01*
X168695713Y-97189095D02*
X168648094Y-97093857D01*
X168648094Y-97093857D02*
X168600475Y-97046238D01*
X168600475Y-97046238D02*
X168505237Y-96998619D01*
X168505237Y-96998619D02*
X168314761Y-96998619D01*
X168314761Y-96998619D02*
X168219523Y-97046238D01*
X168219523Y-97046238D02*
X168171904Y-97093857D01*
X168171904Y-97093857D02*
X168124285Y-97189095D01*
X168124285Y-97189095D02*
X168124285Y-97236714D01*
X168124285Y-97236714D02*
X168171904Y-97331952D01*
X168171904Y-97331952D02*
X168219523Y-97379571D01*
X168219523Y-97379571D02*
X168314761Y-97427190D01*
X168314761Y-97427190D02*
X168505237Y-97427190D01*
X168505237Y-97427190D02*
X168600475Y-97474809D01*
X168600475Y-97474809D02*
X168648094Y-97522428D01*
X168648094Y-97522428D02*
X168695713Y-97617666D01*
X168695713Y-97617666D02*
X168695713Y-97808142D01*
X168695713Y-97808142D02*
X168648094Y-97903380D01*
X168648094Y-97903380D02*
X168600475Y-97951000D01*
X168600475Y-97951000D02*
X168505237Y-97998619D01*
X168505237Y-97998619D02*
X168314761Y-97998619D01*
X168314761Y-97998619D02*
X168219523Y-97951000D01*
X168219523Y-97951000D02*
X168171904Y-97903380D01*
X168171904Y-97903380D02*
X168124285Y-97808142D01*
X168124285Y-97808142D02*
X168124285Y-97617666D01*
X168124285Y-97617666D02*
X168171904Y-97522428D01*
X168171904Y-97522428D02*
X168219523Y-97474809D01*
X168219523Y-97474809D02*
X168314761Y-97427190D01*
%TO.C,R12*%
X157069657Y-83646619D02*
X157402990Y-83170428D01*
X157641085Y-83646619D02*
X157641085Y-82646619D01*
X157641085Y-82646619D02*
X157260133Y-82646619D01*
X157260133Y-82646619D02*
X157164895Y-82694238D01*
X157164895Y-82694238D02*
X157117276Y-82741857D01*
X157117276Y-82741857D02*
X157069657Y-82837095D01*
X157069657Y-82837095D02*
X157069657Y-82979952D01*
X157069657Y-82979952D02*
X157117276Y-83075190D01*
X157117276Y-83075190D02*
X157164895Y-83122809D01*
X157164895Y-83122809D02*
X157260133Y-83170428D01*
X157260133Y-83170428D02*
X157641085Y-83170428D01*
X156117276Y-83646619D02*
X156688704Y-83646619D01*
X156402990Y-83646619D02*
X156402990Y-82646619D01*
X156402990Y-82646619D02*
X156498228Y-82789476D01*
X156498228Y-82789476D02*
X156593466Y-82884714D01*
X156593466Y-82884714D02*
X156688704Y-82932333D01*
X155736323Y-82741857D02*
X155688704Y-82694238D01*
X155688704Y-82694238D02*
X155593466Y-82646619D01*
X155593466Y-82646619D02*
X155355371Y-82646619D01*
X155355371Y-82646619D02*
X155260133Y-82694238D01*
X155260133Y-82694238D02*
X155212514Y-82741857D01*
X155212514Y-82741857D02*
X155164895Y-82837095D01*
X155164895Y-82837095D02*
X155164895Y-82932333D01*
X155164895Y-82932333D02*
X155212514Y-83075190D01*
X155212514Y-83075190D02*
X155783942Y-83646619D01*
X155783942Y-83646619D02*
X155164895Y-83646619D01*
%TO.C,D2*%
X112498094Y-69804619D02*
X112498094Y-68804619D01*
X112498094Y-68804619D02*
X112259999Y-68804619D01*
X112259999Y-68804619D02*
X112117142Y-68852238D01*
X112117142Y-68852238D02*
X112021904Y-68947476D01*
X112021904Y-68947476D02*
X111974285Y-69042714D01*
X111974285Y-69042714D02*
X111926666Y-69233190D01*
X111926666Y-69233190D02*
X111926666Y-69376047D01*
X111926666Y-69376047D02*
X111974285Y-69566523D01*
X111974285Y-69566523D02*
X112021904Y-69661761D01*
X112021904Y-69661761D02*
X112117142Y-69757000D01*
X112117142Y-69757000D02*
X112259999Y-69804619D01*
X112259999Y-69804619D02*
X112498094Y-69804619D01*
X111545713Y-68899857D02*
X111498094Y-68852238D01*
X111498094Y-68852238D02*
X111402856Y-68804619D01*
X111402856Y-68804619D02*
X111164761Y-68804619D01*
X111164761Y-68804619D02*
X111069523Y-68852238D01*
X111069523Y-68852238D02*
X111021904Y-68899857D01*
X111021904Y-68899857D02*
X110974285Y-68995095D01*
X110974285Y-68995095D02*
X110974285Y-69090333D01*
X110974285Y-69090333D02*
X111021904Y-69233190D01*
X111021904Y-69233190D02*
X111593332Y-69804619D01*
X111593332Y-69804619D02*
X110974285Y-69804619D01*
%TO.C,U4*%
X160273904Y-107412619D02*
X160273904Y-108222142D01*
X160273904Y-108222142D02*
X160226285Y-108317380D01*
X160226285Y-108317380D02*
X160178666Y-108365000D01*
X160178666Y-108365000D02*
X160083428Y-108412619D01*
X160083428Y-108412619D02*
X159892952Y-108412619D01*
X159892952Y-108412619D02*
X159797714Y-108365000D01*
X159797714Y-108365000D02*
X159750095Y-108317380D01*
X159750095Y-108317380D02*
X159702476Y-108222142D01*
X159702476Y-108222142D02*
X159702476Y-107412619D01*
X158797714Y-107745952D02*
X158797714Y-108412619D01*
X159035809Y-107365000D02*
X159273904Y-108079285D01*
X159273904Y-108079285D02*
X158654857Y-108079285D01*
%TO.C,C18*%
X168028857Y-92061380D02*
X168076476Y-92109000D01*
X168076476Y-92109000D02*
X168219333Y-92156619D01*
X168219333Y-92156619D02*
X168314571Y-92156619D01*
X168314571Y-92156619D02*
X168457428Y-92109000D01*
X168457428Y-92109000D02*
X168552666Y-92013761D01*
X168552666Y-92013761D02*
X168600285Y-91918523D01*
X168600285Y-91918523D02*
X168647904Y-91728047D01*
X168647904Y-91728047D02*
X168647904Y-91585190D01*
X168647904Y-91585190D02*
X168600285Y-91394714D01*
X168600285Y-91394714D02*
X168552666Y-91299476D01*
X168552666Y-91299476D02*
X168457428Y-91204238D01*
X168457428Y-91204238D02*
X168314571Y-91156619D01*
X168314571Y-91156619D02*
X168219333Y-91156619D01*
X168219333Y-91156619D02*
X168076476Y-91204238D01*
X168076476Y-91204238D02*
X168028857Y-91251857D01*
X167076476Y-92156619D02*
X167647904Y-92156619D01*
X167362190Y-92156619D02*
X167362190Y-91156619D01*
X167362190Y-91156619D02*
X167457428Y-91299476D01*
X167457428Y-91299476D02*
X167552666Y-91394714D01*
X167552666Y-91394714D02*
X167647904Y-91442333D01*
X166505047Y-91585190D02*
X166600285Y-91537571D01*
X166600285Y-91537571D02*
X166647904Y-91489952D01*
X166647904Y-91489952D02*
X166695523Y-91394714D01*
X166695523Y-91394714D02*
X166695523Y-91347095D01*
X166695523Y-91347095D02*
X166647904Y-91251857D01*
X166647904Y-91251857D02*
X166600285Y-91204238D01*
X166600285Y-91204238D02*
X166505047Y-91156619D01*
X166505047Y-91156619D02*
X166314571Y-91156619D01*
X166314571Y-91156619D02*
X166219333Y-91204238D01*
X166219333Y-91204238D02*
X166171714Y-91251857D01*
X166171714Y-91251857D02*
X166124095Y-91347095D01*
X166124095Y-91347095D02*
X166124095Y-91394714D01*
X166124095Y-91394714D02*
X166171714Y-91489952D01*
X166171714Y-91489952D02*
X166219333Y-91537571D01*
X166219333Y-91537571D02*
X166314571Y-91585190D01*
X166314571Y-91585190D02*
X166505047Y-91585190D01*
X166505047Y-91585190D02*
X166600285Y-91632809D01*
X166600285Y-91632809D02*
X166647904Y-91680428D01*
X166647904Y-91680428D02*
X166695523Y-91775666D01*
X166695523Y-91775666D02*
X166695523Y-91966142D01*
X166695523Y-91966142D02*
X166647904Y-92061380D01*
X166647904Y-92061380D02*
X166600285Y-92109000D01*
X166600285Y-92109000D02*
X166505047Y-92156619D01*
X166505047Y-92156619D02*
X166314571Y-92156619D01*
X166314571Y-92156619D02*
X166219333Y-92109000D01*
X166219333Y-92109000D02*
X166171714Y-92061380D01*
X166171714Y-92061380D02*
X166124095Y-91966142D01*
X166124095Y-91966142D02*
X166124095Y-91775666D01*
X166124095Y-91775666D02*
X166171714Y-91680428D01*
X166171714Y-91680428D02*
X166219333Y-91632809D01*
X166219333Y-91632809D02*
X166314571Y-91585190D01*
%TO.C,D1*%
X105386094Y-69804619D02*
X105386094Y-68804619D01*
X105386094Y-68804619D02*
X105147999Y-68804619D01*
X105147999Y-68804619D02*
X105005142Y-68852238D01*
X105005142Y-68852238D02*
X104909904Y-68947476D01*
X104909904Y-68947476D02*
X104862285Y-69042714D01*
X104862285Y-69042714D02*
X104814666Y-69233190D01*
X104814666Y-69233190D02*
X104814666Y-69376047D01*
X104814666Y-69376047D02*
X104862285Y-69566523D01*
X104862285Y-69566523D02*
X104909904Y-69661761D01*
X104909904Y-69661761D02*
X105005142Y-69757000D01*
X105005142Y-69757000D02*
X105147999Y-69804619D01*
X105147999Y-69804619D02*
X105386094Y-69804619D01*
X103862285Y-69804619D02*
X104433713Y-69804619D01*
X104147999Y-69804619D02*
X104147999Y-68804619D01*
X104147999Y-68804619D02*
X104243237Y-68947476D01*
X104243237Y-68947476D02*
X104338475Y-69042714D01*
X104338475Y-69042714D02*
X104433713Y-69090333D01*
%TO.C,C3*%
X117006666Y-106793380D02*
X117054285Y-106841000D01*
X117054285Y-106841000D02*
X117197142Y-106888619D01*
X117197142Y-106888619D02*
X117292380Y-106888619D01*
X117292380Y-106888619D02*
X117435237Y-106841000D01*
X117435237Y-106841000D02*
X117530475Y-106745761D01*
X117530475Y-106745761D02*
X117578094Y-106650523D01*
X117578094Y-106650523D02*
X117625713Y-106460047D01*
X117625713Y-106460047D02*
X117625713Y-106317190D01*
X117625713Y-106317190D02*
X117578094Y-106126714D01*
X117578094Y-106126714D02*
X117530475Y-106031476D01*
X117530475Y-106031476D02*
X117435237Y-105936238D01*
X117435237Y-105936238D02*
X117292380Y-105888619D01*
X117292380Y-105888619D02*
X117197142Y-105888619D01*
X117197142Y-105888619D02*
X117054285Y-105936238D01*
X117054285Y-105936238D02*
X117006666Y-105983857D01*
X116673332Y-105888619D02*
X116054285Y-105888619D01*
X116054285Y-105888619D02*
X116387618Y-106269571D01*
X116387618Y-106269571D02*
X116244761Y-106269571D01*
X116244761Y-106269571D02*
X116149523Y-106317190D01*
X116149523Y-106317190D02*
X116101904Y-106364809D01*
X116101904Y-106364809D02*
X116054285Y-106460047D01*
X116054285Y-106460047D02*
X116054285Y-106698142D01*
X116054285Y-106698142D02*
X116101904Y-106793380D01*
X116101904Y-106793380D02*
X116149523Y-106841000D01*
X116149523Y-106841000D02*
X116244761Y-106888619D01*
X116244761Y-106888619D02*
X116530475Y-106888619D01*
X116530475Y-106888619D02*
X116625713Y-106841000D01*
X116625713Y-106841000D02*
X116673332Y-106793380D01*
%TO.C,C22*%
X148216857Y-86981380D02*
X148264476Y-87029000D01*
X148264476Y-87029000D02*
X148407333Y-87076619D01*
X148407333Y-87076619D02*
X148502571Y-87076619D01*
X148502571Y-87076619D02*
X148645428Y-87029000D01*
X148645428Y-87029000D02*
X148740666Y-86933761D01*
X148740666Y-86933761D02*
X148788285Y-86838523D01*
X148788285Y-86838523D02*
X148835904Y-86648047D01*
X148835904Y-86648047D02*
X148835904Y-86505190D01*
X148835904Y-86505190D02*
X148788285Y-86314714D01*
X148788285Y-86314714D02*
X148740666Y-86219476D01*
X148740666Y-86219476D02*
X148645428Y-86124238D01*
X148645428Y-86124238D02*
X148502571Y-86076619D01*
X148502571Y-86076619D02*
X148407333Y-86076619D01*
X148407333Y-86076619D02*
X148264476Y-86124238D01*
X148264476Y-86124238D02*
X148216857Y-86171857D01*
X147835904Y-86171857D02*
X147788285Y-86124238D01*
X147788285Y-86124238D02*
X147693047Y-86076619D01*
X147693047Y-86076619D02*
X147454952Y-86076619D01*
X147454952Y-86076619D02*
X147359714Y-86124238D01*
X147359714Y-86124238D02*
X147312095Y-86171857D01*
X147312095Y-86171857D02*
X147264476Y-86267095D01*
X147264476Y-86267095D02*
X147264476Y-86362333D01*
X147264476Y-86362333D02*
X147312095Y-86505190D01*
X147312095Y-86505190D02*
X147883523Y-87076619D01*
X147883523Y-87076619D02*
X147264476Y-87076619D01*
X146883523Y-86171857D02*
X146835904Y-86124238D01*
X146835904Y-86124238D02*
X146740666Y-86076619D01*
X146740666Y-86076619D02*
X146502571Y-86076619D01*
X146502571Y-86076619D02*
X146407333Y-86124238D01*
X146407333Y-86124238D02*
X146359714Y-86171857D01*
X146359714Y-86171857D02*
X146312095Y-86267095D01*
X146312095Y-86267095D02*
X146312095Y-86362333D01*
X146312095Y-86362333D02*
X146359714Y-86505190D01*
X146359714Y-86505190D02*
X146931142Y-87076619D01*
X146931142Y-87076619D02*
X146312095Y-87076619D01*
%TO.C,R7*%
X138342666Y-104348619D02*
X138675999Y-103872428D01*
X138914094Y-104348619D02*
X138914094Y-103348619D01*
X138914094Y-103348619D02*
X138533142Y-103348619D01*
X138533142Y-103348619D02*
X138437904Y-103396238D01*
X138437904Y-103396238D02*
X138390285Y-103443857D01*
X138390285Y-103443857D02*
X138342666Y-103539095D01*
X138342666Y-103539095D02*
X138342666Y-103681952D01*
X138342666Y-103681952D02*
X138390285Y-103777190D01*
X138390285Y-103777190D02*
X138437904Y-103824809D01*
X138437904Y-103824809D02*
X138533142Y-103872428D01*
X138533142Y-103872428D02*
X138914094Y-103872428D01*
X138009332Y-103348619D02*
X137342666Y-103348619D01*
X137342666Y-103348619D02*
X137771237Y-104348619D01*
%TO.C,C5*%
X127928666Y-95617380D02*
X127976285Y-95665000D01*
X127976285Y-95665000D02*
X128119142Y-95712619D01*
X128119142Y-95712619D02*
X128214380Y-95712619D01*
X128214380Y-95712619D02*
X128357237Y-95665000D01*
X128357237Y-95665000D02*
X128452475Y-95569761D01*
X128452475Y-95569761D02*
X128500094Y-95474523D01*
X128500094Y-95474523D02*
X128547713Y-95284047D01*
X128547713Y-95284047D02*
X128547713Y-95141190D01*
X128547713Y-95141190D02*
X128500094Y-94950714D01*
X128500094Y-94950714D02*
X128452475Y-94855476D01*
X128452475Y-94855476D02*
X128357237Y-94760238D01*
X128357237Y-94760238D02*
X128214380Y-94712619D01*
X128214380Y-94712619D02*
X128119142Y-94712619D01*
X128119142Y-94712619D02*
X127976285Y-94760238D01*
X127976285Y-94760238D02*
X127928666Y-94807857D01*
X127023904Y-94712619D02*
X127500094Y-94712619D01*
X127500094Y-94712619D02*
X127547713Y-95188809D01*
X127547713Y-95188809D02*
X127500094Y-95141190D01*
X127500094Y-95141190D02*
X127404856Y-95093571D01*
X127404856Y-95093571D02*
X127166761Y-95093571D01*
X127166761Y-95093571D02*
X127071523Y-95141190D01*
X127071523Y-95141190D02*
X127023904Y-95188809D01*
X127023904Y-95188809D02*
X126976285Y-95284047D01*
X126976285Y-95284047D02*
X126976285Y-95522142D01*
X126976285Y-95522142D02*
X127023904Y-95617380D01*
X127023904Y-95617380D02*
X127071523Y-95665000D01*
X127071523Y-95665000D02*
X127166761Y-95712619D01*
X127166761Y-95712619D02*
X127404856Y-95712619D01*
X127404856Y-95712619D02*
X127500094Y-95665000D01*
X127500094Y-95665000D02*
X127547713Y-95617380D01*
%TO.C,U3*%
X119633904Y-83028619D02*
X119633904Y-83838142D01*
X119633904Y-83838142D02*
X119586285Y-83933380D01*
X119586285Y-83933380D02*
X119538666Y-83981000D01*
X119538666Y-83981000D02*
X119443428Y-84028619D01*
X119443428Y-84028619D02*
X119252952Y-84028619D01*
X119252952Y-84028619D02*
X119157714Y-83981000D01*
X119157714Y-83981000D02*
X119110095Y-83933380D01*
X119110095Y-83933380D02*
X119062476Y-83838142D01*
X119062476Y-83838142D02*
X119062476Y-83028619D01*
X118681523Y-83028619D02*
X118062476Y-83028619D01*
X118062476Y-83028619D02*
X118395809Y-83409571D01*
X118395809Y-83409571D02*
X118252952Y-83409571D01*
X118252952Y-83409571D02*
X118157714Y-83457190D01*
X118157714Y-83457190D02*
X118110095Y-83504809D01*
X118110095Y-83504809D02*
X118062476Y-83600047D01*
X118062476Y-83600047D02*
X118062476Y-83838142D01*
X118062476Y-83838142D02*
X118110095Y-83933380D01*
X118110095Y-83933380D02*
X118157714Y-83981000D01*
X118157714Y-83981000D02*
X118252952Y-84028619D01*
X118252952Y-84028619D02*
X118538666Y-84028619D01*
X118538666Y-84028619D02*
X118633904Y-83981000D01*
X118633904Y-83981000D02*
X118681523Y-83933380D01*
%TO.C,U2*%
X105947380Y-81338332D02*
X105137857Y-81338332D01*
X105137857Y-81338332D02*
X105042619Y-81290713D01*
X105042619Y-81290713D02*
X104995000Y-81243094D01*
X104995000Y-81243094D02*
X104947380Y-81147856D01*
X104947380Y-81147856D02*
X104947380Y-80957380D01*
X104947380Y-80957380D02*
X104995000Y-80862142D01*
X104995000Y-80862142D02*
X105042619Y-80814523D01*
X105042619Y-80814523D02*
X105137857Y-80766904D01*
X105137857Y-80766904D02*
X105947380Y-80766904D01*
X105852142Y-80338332D02*
X105899761Y-80290713D01*
X105899761Y-80290713D02*
X105947380Y-80195475D01*
X105947380Y-80195475D02*
X105947380Y-79957380D01*
X105947380Y-79957380D02*
X105899761Y-79862142D01*
X105899761Y-79862142D02*
X105852142Y-79814523D01*
X105852142Y-79814523D02*
X105756904Y-79766904D01*
X105756904Y-79766904D02*
X105661666Y-79766904D01*
X105661666Y-79766904D02*
X105518809Y-79814523D01*
X105518809Y-79814523D02*
X104947380Y-80385951D01*
X104947380Y-80385951D02*
X104947380Y-79766904D01*
%TO.C,C13*%
X125254857Y-86473380D02*
X125302476Y-86521000D01*
X125302476Y-86521000D02*
X125445333Y-86568619D01*
X125445333Y-86568619D02*
X125540571Y-86568619D01*
X125540571Y-86568619D02*
X125683428Y-86521000D01*
X125683428Y-86521000D02*
X125778666Y-86425761D01*
X125778666Y-86425761D02*
X125826285Y-86330523D01*
X125826285Y-86330523D02*
X125873904Y-86140047D01*
X125873904Y-86140047D02*
X125873904Y-85997190D01*
X125873904Y-85997190D02*
X125826285Y-85806714D01*
X125826285Y-85806714D02*
X125778666Y-85711476D01*
X125778666Y-85711476D02*
X125683428Y-85616238D01*
X125683428Y-85616238D02*
X125540571Y-85568619D01*
X125540571Y-85568619D02*
X125445333Y-85568619D01*
X125445333Y-85568619D02*
X125302476Y-85616238D01*
X125302476Y-85616238D02*
X125254857Y-85663857D01*
X124302476Y-86568619D02*
X124873904Y-86568619D01*
X124588190Y-86568619D02*
X124588190Y-85568619D01*
X124588190Y-85568619D02*
X124683428Y-85711476D01*
X124683428Y-85711476D02*
X124778666Y-85806714D01*
X124778666Y-85806714D02*
X124873904Y-85854333D01*
X123969142Y-85568619D02*
X123350095Y-85568619D01*
X123350095Y-85568619D02*
X123683428Y-85949571D01*
X123683428Y-85949571D02*
X123540571Y-85949571D01*
X123540571Y-85949571D02*
X123445333Y-85997190D01*
X123445333Y-85997190D02*
X123397714Y-86044809D01*
X123397714Y-86044809D02*
X123350095Y-86140047D01*
X123350095Y-86140047D02*
X123350095Y-86378142D01*
X123350095Y-86378142D02*
X123397714Y-86473380D01*
X123397714Y-86473380D02*
X123445333Y-86521000D01*
X123445333Y-86521000D02*
X123540571Y-86568619D01*
X123540571Y-86568619D02*
X123826285Y-86568619D01*
X123826285Y-86568619D02*
X123921523Y-86521000D01*
X123921523Y-86521000D02*
X123969142Y-86473380D01*
%TO.C,R11*%
X152280857Y-83520619D02*
X152614190Y-83044428D01*
X152852285Y-83520619D02*
X152852285Y-82520619D01*
X152852285Y-82520619D02*
X152471333Y-82520619D01*
X152471333Y-82520619D02*
X152376095Y-82568238D01*
X152376095Y-82568238D02*
X152328476Y-82615857D01*
X152328476Y-82615857D02*
X152280857Y-82711095D01*
X152280857Y-82711095D02*
X152280857Y-82853952D01*
X152280857Y-82853952D02*
X152328476Y-82949190D01*
X152328476Y-82949190D02*
X152376095Y-82996809D01*
X152376095Y-82996809D02*
X152471333Y-83044428D01*
X152471333Y-83044428D02*
X152852285Y-83044428D01*
X151328476Y-83520619D02*
X151899904Y-83520619D01*
X151614190Y-83520619D02*
X151614190Y-82520619D01*
X151614190Y-82520619D02*
X151709428Y-82663476D01*
X151709428Y-82663476D02*
X151804666Y-82758714D01*
X151804666Y-82758714D02*
X151899904Y-82806333D01*
X150376095Y-83520619D02*
X150947523Y-83520619D01*
X150661809Y-83520619D02*
X150661809Y-82520619D01*
X150661809Y-82520619D02*
X150757047Y-82663476D01*
X150757047Y-82663476D02*
X150852285Y-82758714D01*
X150852285Y-82758714D02*
X150947523Y-82806333D01*
%TO.C,C20*%
X157069657Y-86883380D02*
X157117276Y-86931000D01*
X157117276Y-86931000D02*
X157260133Y-86978619D01*
X157260133Y-86978619D02*
X157355371Y-86978619D01*
X157355371Y-86978619D02*
X157498228Y-86931000D01*
X157498228Y-86931000D02*
X157593466Y-86835761D01*
X157593466Y-86835761D02*
X157641085Y-86740523D01*
X157641085Y-86740523D02*
X157688704Y-86550047D01*
X157688704Y-86550047D02*
X157688704Y-86407190D01*
X157688704Y-86407190D02*
X157641085Y-86216714D01*
X157641085Y-86216714D02*
X157593466Y-86121476D01*
X157593466Y-86121476D02*
X157498228Y-86026238D01*
X157498228Y-86026238D02*
X157355371Y-85978619D01*
X157355371Y-85978619D02*
X157260133Y-85978619D01*
X157260133Y-85978619D02*
X157117276Y-86026238D01*
X157117276Y-86026238D02*
X157069657Y-86073857D01*
X156688704Y-86073857D02*
X156641085Y-86026238D01*
X156641085Y-86026238D02*
X156545847Y-85978619D01*
X156545847Y-85978619D02*
X156307752Y-85978619D01*
X156307752Y-85978619D02*
X156212514Y-86026238D01*
X156212514Y-86026238D02*
X156164895Y-86073857D01*
X156164895Y-86073857D02*
X156117276Y-86169095D01*
X156117276Y-86169095D02*
X156117276Y-86264333D01*
X156117276Y-86264333D02*
X156164895Y-86407190D01*
X156164895Y-86407190D02*
X156736323Y-86978619D01*
X156736323Y-86978619D02*
X156117276Y-86978619D01*
X155498228Y-85978619D02*
X155402990Y-85978619D01*
X155402990Y-85978619D02*
X155307752Y-86026238D01*
X155307752Y-86026238D02*
X155260133Y-86073857D01*
X155260133Y-86073857D02*
X155212514Y-86169095D01*
X155212514Y-86169095D02*
X155164895Y-86359571D01*
X155164895Y-86359571D02*
X155164895Y-86597666D01*
X155164895Y-86597666D02*
X155212514Y-86788142D01*
X155212514Y-86788142D02*
X155260133Y-86883380D01*
X155260133Y-86883380D02*
X155307752Y-86931000D01*
X155307752Y-86931000D02*
X155402990Y-86978619D01*
X155402990Y-86978619D02*
X155498228Y-86978619D01*
X155498228Y-86978619D02*
X155593466Y-86931000D01*
X155593466Y-86931000D02*
X155641085Y-86883380D01*
X155641085Y-86883380D02*
X155688704Y-86788142D01*
X155688704Y-86788142D02*
X155736323Y-86597666D01*
X155736323Y-86597666D02*
X155736323Y-86359571D01*
X155736323Y-86359571D02*
X155688704Y-86169095D01*
X155688704Y-86169095D02*
X155641085Y-86073857D01*
X155641085Y-86073857D02*
X155593466Y-86026238D01*
X155593466Y-86026238D02*
X155498228Y-85978619D01*
%TO.C,R3*%
X102190619Y-75001333D02*
X101714428Y-74668000D01*
X102190619Y-74429905D02*
X101190619Y-74429905D01*
X101190619Y-74429905D02*
X101190619Y-74810857D01*
X101190619Y-74810857D02*
X101238238Y-74906095D01*
X101238238Y-74906095D02*
X101285857Y-74953714D01*
X101285857Y-74953714D02*
X101381095Y-75001333D01*
X101381095Y-75001333D02*
X101523952Y-75001333D01*
X101523952Y-75001333D02*
X101619190Y-74953714D01*
X101619190Y-74953714D02*
X101666809Y-74906095D01*
X101666809Y-74906095D02*
X101714428Y-74810857D01*
X101714428Y-74810857D02*
X101714428Y-74429905D01*
X101190619Y-75334667D02*
X101190619Y-75953714D01*
X101190619Y-75953714D02*
X101571571Y-75620381D01*
X101571571Y-75620381D02*
X101571571Y-75763238D01*
X101571571Y-75763238D02*
X101619190Y-75858476D01*
X101619190Y-75858476D02*
X101666809Y-75906095D01*
X101666809Y-75906095D02*
X101762047Y-75953714D01*
X101762047Y-75953714D02*
X102000142Y-75953714D01*
X102000142Y-75953714D02*
X102095380Y-75906095D01*
X102095380Y-75906095D02*
X102143000Y-75858476D01*
X102143000Y-75858476D02*
X102190619Y-75763238D01*
X102190619Y-75763238D02*
X102190619Y-75477524D01*
X102190619Y-75477524D02*
X102143000Y-75382286D01*
X102143000Y-75382286D02*
X102095380Y-75334667D01*
%TO.C,C7*%
X130468666Y-95617380D02*
X130516285Y-95665000D01*
X130516285Y-95665000D02*
X130659142Y-95712619D01*
X130659142Y-95712619D02*
X130754380Y-95712619D01*
X130754380Y-95712619D02*
X130897237Y-95665000D01*
X130897237Y-95665000D02*
X130992475Y-95569761D01*
X130992475Y-95569761D02*
X131040094Y-95474523D01*
X131040094Y-95474523D02*
X131087713Y-95284047D01*
X131087713Y-95284047D02*
X131087713Y-95141190D01*
X131087713Y-95141190D02*
X131040094Y-94950714D01*
X131040094Y-94950714D02*
X130992475Y-94855476D01*
X130992475Y-94855476D02*
X130897237Y-94760238D01*
X130897237Y-94760238D02*
X130754380Y-94712619D01*
X130754380Y-94712619D02*
X130659142Y-94712619D01*
X130659142Y-94712619D02*
X130516285Y-94760238D01*
X130516285Y-94760238D02*
X130468666Y-94807857D01*
X130135332Y-94712619D02*
X129468666Y-94712619D01*
X129468666Y-94712619D02*
X129897237Y-95712619D01*
%TO.C,R10*%
X166070619Y-100703142D02*
X165594428Y-100369809D01*
X166070619Y-100131714D02*
X165070619Y-100131714D01*
X165070619Y-100131714D02*
X165070619Y-100512666D01*
X165070619Y-100512666D02*
X165118238Y-100607904D01*
X165118238Y-100607904D02*
X165165857Y-100655523D01*
X165165857Y-100655523D02*
X165261095Y-100703142D01*
X165261095Y-100703142D02*
X165403952Y-100703142D01*
X165403952Y-100703142D02*
X165499190Y-100655523D01*
X165499190Y-100655523D02*
X165546809Y-100607904D01*
X165546809Y-100607904D02*
X165594428Y-100512666D01*
X165594428Y-100512666D02*
X165594428Y-100131714D01*
X166070619Y-101655523D02*
X166070619Y-101084095D01*
X166070619Y-101369809D02*
X165070619Y-101369809D01*
X165070619Y-101369809D02*
X165213476Y-101274571D01*
X165213476Y-101274571D02*
X165308714Y-101179333D01*
X165308714Y-101179333D02*
X165356333Y-101084095D01*
X165070619Y-102274571D02*
X165070619Y-102369809D01*
X165070619Y-102369809D02*
X165118238Y-102465047D01*
X165118238Y-102465047D02*
X165165857Y-102512666D01*
X165165857Y-102512666D02*
X165261095Y-102560285D01*
X165261095Y-102560285D02*
X165451571Y-102607904D01*
X165451571Y-102607904D02*
X165689666Y-102607904D01*
X165689666Y-102607904D02*
X165880142Y-102560285D01*
X165880142Y-102560285D02*
X165975380Y-102512666D01*
X165975380Y-102512666D02*
X166023000Y-102465047D01*
X166023000Y-102465047D02*
X166070619Y-102369809D01*
X166070619Y-102369809D02*
X166070619Y-102274571D01*
X166070619Y-102274571D02*
X166023000Y-102179333D01*
X166023000Y-102179333D02*
X165975380Y-102131714D01*
X165975380Y-102131714D02*
X165880142Y-102084095D01*
X165880142Y-102084095D02*
X165689666Y-102036476D01*
X165689666Y-102036476D02*
X165451571Y-102036476D01*
X165451571Y-102036476D02*
X165261095Y-102084095D01*
X165261095Y-102084095D02*
X165165857Y-102131714D01*
X165165857Y-102131714D02*
X165118238Y-102179333D01*
X165118238Y-102179333D02*
X165070619Y-102274571D01*
%TO.C,C17*%
X133992857Y-95871380D02*
X134040476Y-95919000D01*
X134040476Y-95919000D02*
X134183333Y-95966619D01*
X134183333Y-95966619D02*
X134278571Y-95966619D01*
X134278571Y-95966619D02*
X134421428Y-95919000D01*
X134421428Y-95919000D02*
X134516666Y-95823761D01*
X134516666Y-95823761D02*
X134564285Y-95728523D01*
X134564285Y-95728523D02*
X134611904Y-95538047D01*
X134611904Y-95538047D02*
X134611904Y-95395190D01*
X134611904Y-95395190D02*
X134564285Y-95204714D01*
X134564285Y-95204714D02*
X134516666Y-95109476D01*
X134516666Y-95109476D02*
X134421428Y-95014238D01*
X134421428Y-95014238D02*
X134278571Y-94966619D01*
X134278571Y-94966619D02*
X134183333Y-94966619D01*
X134183333Y-94966619D02*
X134040476Y-95014238D01*
X134040476Y-95014238D02*
X133992857Y-95061857D01*
X133040476Y-95966619D02*
X133611904Y-95966619D01*
X133326190Y-95966619D02*
X133326190Y-94966619D01*
X133326190Y-94966619D02*
X133421428Y-95109476D01*
X133421428Y-95109476D02*
X133516666Y-95204714D01*
X133516666Y-95204714D02*
X133611904Y-95252333D01*
X132707142Y-94966619D02*
X132040476Y-94966619D01*
X132040476Y-94966619D02*
X132469047Y-95966619D01*
%TO.C,C15*%
X134246857Y-90791380D02*
X134294476Y-90839000D01*
X134294476Y-90839000D02*
X134437333Y-90886619D01*
X134437333Y-90886619D02*
X134532571Y-90886619D01*
X134532571Y-90886619D02*
X134675428Y-90839000D01*
X134675428Y-90839000D02*
X134770666Y-90743761D01*
X134770666Y-90743761D02*
X134818285Y-90648523D01*
X134818285Y-90648523D02*
X134865904Y-90458047D01*
X134865904Y-90458047D02*
X134865904Y-90315190D01*
X134865904Y-90315190D02*
X134818285Y-90124714D01*
X134818285Y-90124714D02*
X134770666Y-90029476D01*
X134770666Y-90029476D02*
X134675428Y-89934238D01*
X134675428Y-89934238D02*
X134532571Y-89886619D01*
X134532571Y-89886619D02*
X134437333Y-89886619D01*
X134437333Y-89886619D02*
X134294476Y-89934238D01*
X134294476Y-89934238D02*
X134246857Y-89981857D01*
X133294476Y-90886619D02*
X133865904Y-90886619D01*
X133580190Y-90886619D02*
X133580190Y-89886619D01*
X133580190Y-89886619D02*
X133675428Y-90029476D01*
X133675428Y-90029476D02*
X133770666Y-90124714D01*
X133770666Y-90124714D02*
X133865904Y-90172333D01*
X132389714Y-89886619D02*
X132865904Y-89886619D01*
X132865904Y-89886619D02*
X132913523Y-90362809D01*
X132913523Y-90362809D02*
X132865904Y-90315190D01*
X132865904Y-90315190D02*
X132770666Y-90267571D01*
X132770666Y-90267571D02*
X132532571Y-90267571D01*
X132532571Y-90267571D02*
X132437333Y-90315190D01*
X132437333Y-90315190D02*
X132389714Y-90362809D01*
X132389714Y-90362809D02*
X132342095Y-90458047D01*
X132342095Y-90458047D02*
X132342095Y-90696142D01*
X132342095Y-90696142D02*
X132389714Y-90791380D01*
X132389714Y-90791380D02*
X132437333Y-90839000D01*
X132437333Y-90839000D02*
X132532571Y-90886619D01*
X132532571Y-90886619D02*
X132770666Y-90886619D01*
X132770666Y-90886619D02*
X132865904Y-90839000D01*
X132865904Y-90839000D02*
X132913523Y-90791380D01*
%TO.C,R14*%
X152280857Y-80472619D02*
X152614190Y-79996428D01*
X152852285Y-80472619D02*
X152852285Y-79472619D01*
X152852285Y-79472619D02*
X152471333Y-79472619D01*
X152471333Y-79472619D02*
X152376095Y-79520238D01*
X152376095Y-79520238D02*
X152328476Y-79567857D01*
X152328476Y-79567857D02*
X152280857Y-79663095D01*
X152280857Y-79663095D02*
X152280857Y-79805952D01*
X152280857Y-79805952D02*
X152328476Y-79901190D01*
X152328476Y-79901190D02*
X152376095Y-79948809D01*
X152376095Y-79948809D02*
X152471333Y-79996428D01*
X152471333Y-79996428D02*
X152852285Y-79996428D01*
X151328476Y-80472619D02*
X151899904Y-80472619D01*
X151614190Y-80472619D02*
X151614190Y-79472619D01*
X151614190Y-79472619D02*
X151709428Y-79615476D01*
X151709428Y-79615476D02*
X151804666Y-79710714D01*
X151804666Y-79710714D02*
X151899904Y-79758333D01*
X150471333Y-79805952D02*
X150471333Y-80472619D01*
X150709428Y-79425000D02*
X150947523Y-80139285D01*
X150947523Y-80139285D02*
X150328476Y-80139285D01*
%TO.C,RT1*%
X103474475Y-89958076D02*
X103687809Y-89653314D01*
X103840190Y-89958076D02*
X103840190Y-89318076D01*
X103840190Y-89318076D02*
X103596380Y-89318076D01*
X103596380Y-89318076D02*
X103535428Y-89348552D01*
X103535428Y-89348552D02*
X103504951Y-89379028D01*
X103504951Y-89379028D02*
X103474475Y-89439980D01*
X103474475Y-89439980D02*
X103474475Y-89531409D01*
X103474475Y-89531409D02*
X103504951Y-89592361D01*
X103504951Y-89592361D02*
X103535428Y-89622838D01*
X103535428Y-89622838D02*
X103596380Y-89653314D01*
X103596380Y-89653314D02*
X103840190Y-89653314D01*
X103291618Y-89318076D02*
X102925904Y-89318076D01*
X103108761Y-89958076D02*
X103108761Y-89318076D01*
X102377332Y-89958076D02*
X102743047Y-89958076D01*
X102560190Y-89958076D02*
X102560190Y-89318076D01*
X102560190Y-89318076D02*
X102621142Y-89409504D01*
X102621142Y-89409504D02*
X102682094Y-89470457D01*
X102682094Y-89470457D02*
X102743047Y-89500933D01*
D11*
%TO.C,C19*%
X161050248Y-84101000D02*
X161572752Y-84101000D01*
X161050248Y-85571000D02*
X161572752Y-85571000D01*
%TO.C,R2*%
X105691000Y-75395064D02*
X105691000Y-74940936D01*
X107161000Y-75395064D02*
X107161000Y-74940936D01*
%TO.C,C14*%
X136877548Y-87301400D02*
X137400052Y-87301400D01*
X136877548Y-88771400D02*
X137400052Y-88771400D01*
%TO.C,L1*%
X119365752Y-109193000D02*
X118843248Y-109193000D01*
X119365752Y-107723000D02*
X118843248Y-107723000D01*
%TO.C,C6*%
X119365752Y-105129000D02*
X118843248Y-105129000D01*
X119365752Y-103659000D02*
X118843248Y-103659000D01*
%TO.C,C9*%
X122204548Y-98537752D02*
X122204548Y-98015248D01*
X123674548Y-98537752D02*
X123674548Y-98015248D01*
%TO.C,R9*%
X134901000Y-100033064D02*
X134901000Y-99578936D01*
X136371000Y-100033064D02*
X136371000Y-99578936D01*
D12*
%TO.C,Y1*%
X118022048Y-101815000D02*
G75*
G03*
X118022048Y-101815000I-100000J0D01*
G01*
D13*
%TO.C,U1*%
X129492000Y-107394000D02*
X129492000Y-106994000D01*
X129492000Y-101794000D02*
X129492000Y-101394000D01*
X129492000Y-101394000D02*
X129092000Y-101394000D01*
X129092000Y-107394000D02*
X129492000Y-107394000D01*
X123892000Y-101394000D02*
X123492000Y-101394000D01*
X123492000Y-107394000D02*
X123892000Y-107394000D01*
X123492000Y-106994000D02*
X123492000Y-107394000D01*
X123492000Y-101394000D02*
X123492000Y-101794000D01*
X129855500Y-101694000D02*
G75*
G03*
X129855500Y-101694000I-63500J0D01*
G01*
D11*
%TO.C,C2*%
X118864748Y-97563000D02*
X119387252Y-97563000D01*
X118864748Y-99033000D02*
X119387252Y-99033000D01*
%TO.C,R5*%
X108840200Y-75411064D02*
X108840200Y-74956936D01*
X110310200Y-75411064D02*
X110310200Y-74956936D01*
%TO.C,C10*%
X112768748Y-81307000D02*
X113291252Y-81307000D01*
X112768748Y-82777000D02*
X113291252Y-82777000D01*
%TO.C,C4*%
X132813248Y-106793000D02*
X133335752Y-106793000D01*
X132813248Y-108263000D02*
X133335752Y-108263000D01*
%TO.C,C21*%
X151877752Y-85571000D02*
X151355248Y-85571000D01*
X151877752Y-84101000D02*
X151355248Y-84101000D01*
D13*
%TO.C,U5*%
X155196000Y-77206000D02*
X155196000Y-77866000D01*
X158096000Y-77866000D02*
X158096000Y-77206000D01*
X156311000Y-78336000D02*
X156981000Y-78336000D01*
D12*
X155696000Y-75126000D02*
G75*
G03*
X155696000Y-75126000I-100000J0D01*
G01*
D11*
%TO.C,R4*%
X113511000Y-74956936D02*
X113511000Y-75411064D01*
X112041000Y-74956936D02*
X112041000Y-75411064D01*
D12*
%TO.C,J5*%
X134168000Y-71624000D02*
X134168000Y-72704000D01*
X134168000Y-71624000D02*
X135438000Y-71624000D01*
X134168000Y-79744000D02*
X134168000Y-83824000D01*
X134168000Y-83824000D02*
X135438000Y-83824000D01*
X142438000Y-71624000D02*
X143708000Y-71624000D01*
X142438000Y-83824000D02*
X143708000Y-83824000D01*
X143708000Y-71624000D02*
X143708000Y-75704000D01*
X143708000Y-82744000D02*
X143708000Y-83824000D01*
D11*
%TO.C,C12*%
X124329248Y-73165000D02*
X124851752Y-73165000D01*
X124329248Y-74635000D02*
X124851752Y-74635000D01*
%TO.C,C16*%
X136877548Y-92381400D02*
X137400052Y-92381400D01*
X136877548Y-93851400D02*
X137400052Y-93851400D01*
%TO.C,C8*%
X132107000Y-101353252D02*
X132107000Y-100830748D01*
X133577000Y-101353252D02*
X133577000Y-100830748D01*
%TO.C,C11*%
X112768748Y-78259000D02*
X113291252Y-78259000D01*
X112768748Y-79729000D02*
X113291252Y-79729000D01*
%TO.C,C1*%
X117575000Y-101084748D02*
X117575000Y-101607252D01*
X116105000Y-101084748D02*
X116105000Y-101607252D01*
%TO.C,R1*%
X108955000Y-85370936D02*
X108955000Y-85825064D01*
X107485000Y-85370936D02*
X107485000Y-85825064D01*
%TO.C,R6*%
X166089064Y-95731000D02*
X165634936Y-95731000D01*
X166089064Y-94261000D02*
X165634936Y-94261000D01*
%TO.C,R13*%
X161046936Y-80799000D02*
X161501064Y-80799000D01*
X161046936Y-82269000D02*
X161501064Y-82269000D01*
%TO.C,R8*%
X166089064Y-98271000D02*
X165634936Y-98271000D01*
X166089064Y-96801000D02*
X165634936Y-96801000D01*
%TO.C,R12*%
X156199736Y-80799000D02*
X156653864Y-80799000D01*
X156199736Y-82269000D02*
X156653864Y-82269000D01*
%TO.C,D2*%
X109891000Y-70160000D02*
X112751000Y-70160000D01*
X109891000Y-72080000D02*
X109891000Y-70160000D01*
X112751000Y-72080000D02*
X109891000Y-72080000D01*
D13*
%TO.C,U4*%
X159146000Y-89636000D02*
X157566000Y-89636000D01*
X159146000Y-89636000D02*
X159146000Y-92466000D01*
X141446000Y-89636000D02*
X143026000Y-89636000D01*
X141446000Y-92466000D02*
X141446000Y-89636000D01*
X159146000Y-102606000D02*
X159146000Y-105436000D01*
X159146000Y-105436000D02*
X157566000Y-105436000D01*
X143026000Y-105436000D02*
X141446000Y-105436000D01*
X141446000Y-105436000D02*
X141446000Y-102606000D01*
D12*
X143796000Y-87286000D02*
G75*
G03*
X143796000Y-87286000I-100000J0D01*
G01*
D11*
%TO.C,C18*%
X163568748Y-90959000D02*
X164091252Y-90959000D01*
X163568748Y-92429000D02*
X164091252Y-92429000D01*
%TO.C,D1*%
X106499000Y-72080000D02*
X103639000Y-72080000D01*
X106499000Y-70160000D02*
X106499000Y-72080000D01*
X103639000Y-70160000D02*
X106499000Y-70160000D01*
%TO.C,C3*%
X119641233Y-105916000D02*
X119933767Y-105916000D01*
X119641233Y-106936000D02*
X119933767Y-106936000D01*
%TO.C,C22*%
X146839000Y-84313752D02*
X146839000Y-83791248D01*
X148309000Y-84313752D02*
X148309000Y-83791248D01*
%TO.C,R7*%
X137441000Y-101303064D02*
X137441000Y-100848936D01*
X138911000Y-101303064D02*
X138911000Y-100848936D01*
%TO.C,C5*%
X127075000Y-98326752D02*
X127075000Y-97804248D01*
X128545000Y-98326752D02*
X128545000Y-97804248D01*
%TO.C,U3*%
X118074000Y-82404000D02*
X124084000Y-82404000D01*
X120324000Y-75584000D02*
X124084000Y-75584000D01*
X124084000Y-75584000D02*
X124084000Y-76844000D01*
X124084000Y-82404000D02*
X124084000Y-81144000D01*
D14*
%TO.C,U2*%
X106562652Y-82202028D02*
X106562652Y-81384615D01*
X106728260Y-82202028D02*
X106562652Y-82202028D01*
X109813852Y-82202028D02*
X109648244Y-82202028D01*
X109813852Y-81384615D02*
X109813852Y-82202028D01*
X106562652Y-79768241D02*
X106562652Y-78950828D01*
X106562652Y-78950828D02*
X106728260Y-78950828D01*
X109648244Y-78950828D02*
X109813852Y-78950828D01*
X109813852Y-78950828D02*
X109813852Y-79768241D01*
D11*
%TO.C,C13*%
X124873252Y-84795000D02*
X124350748Y-84795000D01*
X124873252Y-83325000D02*
X124350748Y-83325000D01*
%TO.C,R11*%
X151881064Y-82269000D02*
X151426936Y-82269000D01*
X151881064Y-80799000D02*
X151426936Y-80799000D01*
%TO.C,C20*%
X156165548Y-84101000D02*
X156688052Y-84101000D01*
X156165548Y-85571000D02*
X156688052Y-85571000D01*
%TO.C,R3*%
X104113000Y-74940936D02*
X104113000Y-75395064D01*
X102643000Y-74940936D02*
X102643000Y-75395064D01*
%TO.C,C7*%
X131040548Y-97782748D02*
X131040548Y-98305252D01*
X129570548Y-97782748D02*
X129570548Y-98305252D01*
%TO.C,R10*%
X164565000Y-100594936D02*
X164565000Y-101049064D01*
X163095000Y-100594936D02*
X163095000Y-101049064D01*
%TO.C,C17*%
X136877548Y-94921400D02*
X137400052Y-94921400D01*
X136877548Y-96391400D02*
X137400052Y-96391400D01*
%TO.C,C15*%
X136877548Y-89841400D02*
X137400052Y-89841400D01*
X136877548Y-91311400D02*
X137400052Y-91311400D01*
%TO.C,R14*%
X151865064Y-79221000D02*
X151410936Y-79221000D01*
X151865064Y-77751000D02*
X151410936Y-77751000D01*
%TD*%
M02*
