%TF.GenerationSoftware,KiCad,Pcbnew,7.0.1*%
%TF.CreationDate,2023-11-14T16:04:30+01:00*%
%TF.ProjectId,Central_pcb,43656e74-7261-46c5-9f70-63622e6b6963,rev?*%
%TF.SameCoordinates,Original*%
%TF.FileFunction,Legend,Top*%
%TF.FilePolarity,Positive*%
%FSLAX46Y46*%
G04 Gerber Fmt 4.6, Leading zero omitted, Abs format (unit mm)*
G04 Created by KiCad (PCBNEW 7.0.1) date 2023-11-14 16:04:30*
%MOMM*%
%LPD*%
G01*
G04 APERTURE LIST*
%ADD10C,0.150000*%
%ADD11C,0.120000*%
%ADD12C,0.127000*%
G04 APERTURE END LIST*
D10*
X179613619Y-114315904D02*
X178613619Y-114315904D01*
X179613619Y-113696857D02*
X179566000Y-113792095D01*
X179566000Y-113792095D02*
X179518380Y-113839714D01*
X179518380Y-113839714D02*
X179423142Y-113887333D01*
X179423142Y-113887333D02*
X179137428Y-113887333D01*
X179137428Y-113887333D02*
X179042190Y-113839714D01*
X179042190Y-113839714D02*
X178994571Y-113792095D01*
X178994571Y-113792095D02*
X178946952Y-113696857D01*
X178946952Y-113696857D02*
X178946952Y-113554000D01*
X178946952Y-113554000D02*
X178994571Y-113458762D01*
X178994571Y-113458762D02*
X179042190Y-113411143D01*
X179042190Y-113411143D02*
X179137428Y-113363524D01*
X179137428Y-113363524D02*
X179423142Y-113363524D01*
X179423142Y-113363524D02*
X179518380Y-113411143D01*
X179518380Y-113411143D02*
X179566000Y-113458762D01*
X179566000Y-113458762D02*
X179613619Y-113554000D01*
X179613619Y-113554000D02*
X179613619Y-113696857D01*
X178946952Y-113077809D02*
X178946952Y-112696857D01*
X178613619Y-112934952D02*
X179470761Y-112934952D01*
X179470761Y-112934952D02*
X179566000Y-112887333D01*
X179566000Y-112887333D02*
X179613619Y-112792095D01*
X179613619Y-112792095D02*
X179613619Y-112696857D01*
X179566000Y-111649237D02*
X179613619Y-111553999D01*
X179613619Y-111553999D02*
X179613619Y-111363523D01*
X179613619Y-111363523D02*
X179566000Y-111268285D01*
X179566000Y-111268285D02*
X179470761Y-111220666D01*
X179470761Y-111220666D02*
X179423142Y-111220666D01*
X179423142Y-111220666D02*
X179327904Y-111268285D01*
X179327904Y-111268285D02*
X179280285Y-111363523D01*
X179280285Y-111363523D02*
X179280285Y-111506380D01*
X179280285Y-111506380D02*
X179232666Y-111601618D01*
X179232666Y-111601618D02*
X179137428Y-111649237D01*
X179137428Y-111649237D02*
X179089809Y-111649237D01*
X179089809Y-111649237D02*
X178994571Y-111601618D01*
X178994571Y-111601618D02*
X178946952Y-111506380D01*
X178946952Y-111506380D02*
X178946952Y-111363523D01*
X178946952Y-111363523D02*
X178994571Y-111268285D01*
X178946952Y-110887332D02*
X179613619Y-110649237D01*
X178946952Y-110411142D02*
X179613619Y-110649237D01*
X179613619Y-110649237D02*
X179851714Y-110744475D01*
X179851714Y-110744475D02*
X179899333Y-110792094D01*
X179899333Y-110792094D02*
X179946952Y-110887332D01*
X179566000Y-110077808D02*
X179613619Y-109982570D01*
X179613619Y-109982570D02*
X179613619Y-109792094D01*
X179613619Y-109792094D02*
X179566000Y-109696856D01*
X179566000Y-109696856D02*
X179470761Y-109649237D01*
X179470761Y-109649237D02*
X179423142Y-109649237D01*
X179423142Y-109649237D02*
X179327904Y-109696856D01*
X179327904Y-109696856D02*
X179280285Y-109792094D01*
X179280285Y-109792094D02*
X179280285Y-109934951D01*
X179280285Y-109934951D02*
X179232666Y-110030189D01*
X179232666Y-110030189D02*
X179137428Y-110077808D01*
X179137428Y-110077808D02*
X179089809Y-110077808D01*
X179089809Y-110077808D02*
X178994571Y-110030189D01*
X178994571Y-110030189D02*
X178946952Y-109934951D01*
X178946952Y-109934951D02*
X178946952Y-109792094D01*
X178946952Y-109792094D02*
X178994571Y-109696856D01*
X178946952Y-109363522D02*
X178946952Y-108982570D01*
X178613619Y-109220665D02*
X179470761Y-109220665D01*
X179470761Y-109220665D02*
X179566000Y-109173046D01*
X179566000Y-109173046D02*
X179613619Y-109077808D01*
X179613619Y-109077808D02*
X179613619Y-108982570D01*
X179566000Y-108268284D02*
X179613619Y-108363522D01*
X179613619Y-108363522D02*
X179613619Y-108553998D01*
X179613619Y-108553998D02*
X179566000Y-108649236D01*
X179566000Y-108649236D02*
X179470761Y-108696855D01*
X179470761Y-108696855D02*
X179089809Y-108696855D01*
X179089809Y-108696855D02*
X178994571Y-108649236D01*
X178994571Y-108649236D02*
X178946952Y-108553998D01*
X178946952Y-108553998D02*
X178946952Y-108363522D01*
X178946952Y-108363522D02*
X178994571Y-108268284D01*
X178994571Y-108268284D02*
X179089809Y-108220665D01*
X179089809Y-108220665D02*
X179185047Y-108220665D01*
X179185047Y-108220665D02*
X179280285Y-108696855D01*
X179613619Y-107792093D02*
X178946952Y-107792093D01*
X179042190Y-107792093D02*
X178994571Y-107744474D01*
X178994571Y-107744474D02*
X178946952Y-107649236D01*
X178946952Y-107649236D02*
X178946952Y-107506379D01*
X178946952Y-107506379D02*
X178994571Y-107411141D01*
X178994571Y-107411141D02*
X179089809Y-107363522D01*
X179089809Y-107363522D02*
X179613619Y-107363522D01*
X179089809Y-107363522D02*
X178994571Y-107315903D01*
X178994571Y-107315903D02*
X178946952Y-107220665D01*
X178946952Y-107220665D02*
X178946952Y-107077808D01*
X178946952Y-107077808D02*
X178994571Y-106982569D01*
X178994571Y-106982569D02*
X179089809Y-106934950D01*
X179089809Y-106934950D02*
X179613619Y-106934950D01*
X179566000Y-106506379D02*
X179613619Y-106411141D01*
X179613619Y-106411141D02*
X179613619Y-106220665D01*
X179613619Y-106220665D02*
X179566000Y-106125427D01*
X179566000Y-106125427D02*
X179470761Y-106077808D01*
X179470761Y-106077808D02*
X179423142Y-106077808D01*
X179423142Y-106077808D02*
X179327904Y-106125427D01*
X179327904Y-106125427D02*
X179280285Y-106220665D01*
X179280285Y-106220665D02*
X179280285Y-106363522D01*
X179280285Y-106363522D02*
X179232666Y-106458760D01*
X179232666Y-106458760D02*
X179137428Y-106506379D01*
X179137428Y-106506379D02*
X179089809Y-106506379D01*
X179089809Y-106506379D02*
X178994571Y-106458760D01*
X178994571Y-106458760D02*
X178946952Y-106363522D01*
X178946952Y-106363522D02*
X178946952Y-106220665D01*
X178946952Y-106220665D02*
X178994571Y-106125427D01*
X179613619Y-104887331D02*
X178613619Y-104887331D01*
X178994571Y-104887331D02*
X178946952Y-104792093D01*
X178946952Y-104792093D02*
X178946952Y-104601617D01*
X178946952Y-104601617D02*
X178994571Y-104506379D01*
X178994571Y-104506379D02*
X179042190Y-104458760D01*
X179042190Y-104458760D02*
X179137428Y-104411141D01*
X179137428Y-104411141D02*
X179423142Y-104411141D01*
X179423142Y-104411141D02*
X179518380Y-104458760D01*
X179518380Y-104458760D02*
X179566000Y-104506379D01*
X179566000Y-104506379D02*
X179613619Y-104601617D01*
X179613619Y-104601617D02*
X179613619Y-104792093D01*
X179613619Y-104792093D02*
X179566000Y-104887331D01*
X178946952Y-104077807D02*
X179613619Y-103839712D01*
X178946952Y-103601617D02*
X179613619Y-103839712D01*
X179613619Y-103839712D02*
X179851714Y-103934950D01*
X179851714Y-103934950D02*
X179899333Y-103982569D01*
X179899333Y-103982569D02*
X179946952Y-104077807D01*
X179518380Y-103220664D02*
X179566000Y-103173045D01*
X179566000Y-103173045D02*
X179613619Y-103220664D01*
X179613619Y-103220664D02*
X179566000Y-103268283D01*
X179566000Y-103268283D02*
X179518380Y-103220664D01*
X179518380Y-103220664D02*
X179613619Y-103220664D01*
X178994571Y-103220664D02*
X179042190Y-103173045D01*
X179042190Y-103173045D02*
X179089809Y-103220664D01*
X179089809Y-103220664D02*
X179042190Y-103268283D01*
X179042190Y-103268283D02*
X178994571Y-103220664D01*
X178994571Y-103220664D02*
X179089809Y-103220664D01*
X178613619Y-102458760D02*
X179327904Y-102458760D01*
X179327904Y-102458760D02*
X179470761Y-102506379D01*
X179470761Y-102506379D02*
X179566000Y-102601617D01*
X179566000Y-102601617D02*
X179613619Y-102744474D01*
X179613619Y-102744474D02*
X179613619Y-102839712D01*
X179613619Y-101553998D02*
X179089809Y-101553998D01*
X179089809Y-101553998D02*
X178994571Y-101601617D01*
X178994571Y-101601617D02*
X178946952Y-101696855D01*
X178946952Y-101696855D02*
X178946952Y-101887331D01*
X178946952Y-101887331D02*
X178994571Y-101982569D01*
X179566000Y-101553998D02*
X179613619Y-101649236D01*
X179613619Y-101649236D02*
X179613619Y-101887331D01*
X179613619Y-101887331D02*
X179566000Y-101982569D01*
X179566000Y-101982569D02*
X179470761Y-102030188D01*
X179470761Y-102030188D02*
X179375523Y-102030188D01*
X179375523Y-102030188D02*
X179280285Y-101982569D01*
X179280285Y-101982569D02*
X179232666Y-101887331D01*
X179232666Y-101887331D02*
X179232666Y-101649236D01*
X179232666Y-101649236D02*
X179185047Y-101553998D01*
X179613619Y-101077807D02*
X178946952Y-101077807D01*
X179137428Y-101077807D02*
X179042190Y-101030188D01*
X179042190Y-101030188D02*
X178994571Y-100982569D01*
X178994571Y-100982569D02*
X178946952Y-100887331D01*
X178946952Y-100887331D02*
X178946952Y-100792093D01*
X178946952Y-100458759D02*
X179613619Y-100458759D01*
X179042190Y-100458759D02*
X178994571Y-100411140D01*
X178994571Y-100411140D02*
X178946952Y-100315902D01*
X178946952Y-100315902D02*
X178946952Y-100173045D01*
X178946952Y-100173045D02*
X178994571Y-100077807D01*
X178994571Y-100077807D02*
X179089809Y-100030188D01*
X179089809Y-100030188D02*
X179613619Y-100030188D01*
X179613619Y-99411140D02*
X179566000Y-99506378D01*
X179566000Y-99506378D02*
X179518380Y-99553997D01*
X179518380Y-99553997D02*
X179423142Y-99601616D01*
X179423142Y-99601616D02*
X179137428Y-99601616D01*
X179137428Y-99601616D02*
X179042190Y-99553997D01*
X179042190Y-99553997D02*
X178994571Y-99506378D01*
X178994571Y-99506378D02*
X178946952Y-99411140D01*
X178946952Y-99411140D02*
X178946952Y-99268283D01*
X178946952Y-99268283D02*
X178994571Y-99173045D01*
X178994571Y-99173045D02*
X179042190Y-99125426D01*
X179042190Y-99125426D02*
X179137428Y-99077807D01*
X179137428Y-99077807D02*
X179423142Y-99077807D01*
X179423142Y-99077807D02*
X179518380Y-99125426D01*
X179518380Y-99125426D02*
X179566000Y-99173045D01*
X179566000Y-99173045D02*
X179613619Y-99268283D01*
X179613619Y-99268283D02*
X179613619Y-99411140D01*
X179613619Y-97458759D02*
X178613619Y-97458759D01*
X179566000Y-97458759D02*
X179613619Y-97553997D01*
X179613619Y-97553997D02*
X179613619Y-97744473D01*
X179613619Y-97744473D02*
X179566000Y-97839711D01*
X179566000Y-97839711D02*
X179518380Y-97887330D01*
X179518380Y-97887330D02*
X179423142Y-97934949D01*
X179423142Y-97934949D02*
X179137428Y-97934949D01*
X179137428Y-97934949D02*
X179042190Y-97887330D01*
X179042190Y-97887330D02*
X178994571Y-97839711D01*
X178994571Y-97839711D02*
X178946952Y-97744473D01*
X178946952Y-97744473D02*
X178946952Y-97553997D01*
X178946952Y-97553997D02*
X178994571Y-97458759D01*
X179566000Y-96601616D02*
X179613619Y-96696854D01*
X179613619Y-96696854D02*
X179613619Y-96887330D01*
X179613619Y-96887330D02*
X179566000Y-96982568D01*
X179566000Y-96982568D02*
X179470761Y-97030187D01*
X179470761Y-97030187D02*
X179089809Y-97030187D01*
X179089809Y-97030187D02*
X178994571Y-96982568D01*
X178994571Y-96982568D02*
X178946952Y-96887330D01*
X178946952Y-96887330D02*
X178946952Y-96696854D01*
X178946952Y-96696854D02*
X178994571Y-96601616D01*
X178994571Y-96601616D02*
X179089809Y-96553997D01*
X179089809Y-96553997D02*
X179185047Y-96553997D01*
X179185047Y-96553997D02*
X179280285Y-97030187D01*
X178613619Y-95077806D02*
X179327904Y-95077806D01*
X179327904Y-95077806D02*
X179470761Y-95125425D01*
X179470761Y-95125425D02*
X179566000Y-95220663D01*
X179566000Y-95220663D02*
X179613619Y-95363520D01*
X179613619Y-95363520D02*
X179613619Y-95458758D01*
X179613619Y-94458758D02*
X179566000Y-94553996D01*
X179566000Y-94553996D02*
X179518380Y-94601615D01*
X179518380Y-94601615D02*
X179423142Y-94649234D01*
X179423142Y-94649234D02*
X179137428Y-94649234D01*
X179137428Y-94649234D02*
X179042190Y-94601615D01*
X179042190Y-94601615D02*
X178994571Y-94553996D01*
X178994571Y-94553996D02*
X178946952Y-94458758D01*
X178946952Y-94458758D02*
X178946952Y-94315901D01*
X178946952Y-94315901D02*
X178994571Y-94220663D01*
X178994571Y-94220663D02*
X179042190Y-94173044D01*
X179042190Y-94173044D02*
X179137428Y-94125425D01*
X179137428Y-94125425D02*
X179423142Y-94125425D01*
X179423142Y-94125425D02*
X179518380Y-94173044D01*
X179518380Y-94173044D02*
X179566000Y-94220663D01*
X179566000Y-94220663D02*
X179613619Y-94315901D01*
X179613619Y-94315901D02*
X179613619Y-94458758D01*
X178946952Y-93696853D02*
X179613619Y-93696853D01*
X179042190Y-93696853D02*
X178994571Y-93649234D01*
X178994571Y-93649234D02*
X178946952Y-93553996D01*
X178946952Y-93553996D02*
X178946952Y-93411139D01*
X178946952Y-93411139D02*
X178994571Y-93315901D01*
X178994571Y-93315901D02*
X179089809Y-93268282D01*
X179089809Y-93268282D02*
X179613619Y-93268282D01*
X179566000Y-92363520D02*
X179613619Y-92458758D01*
X179613619Y-92458758D02*
X179613619Y-92649234D01*
X179613619Y-92649234D02*
X179566000Y-92744472D01*
X179566000Y-92744472D02*
X179518380Y-92792091D01*
X179518380Y-92792091D02*
X179423142Y-92839710D01*
X179423142Y-92839710D02*
X179137428Y-92839710D01*
X179137428Y-92839710D02*
X179042190Y-92792091D01*
X179042190Y-92792091D02*
X178994571Y-92744472D01*
X178994571Y-92744472D02*
X178946952Y-92649234D01*
X178946952Y-92649234D02*
X178946952Y-92458758D01*
X178946952Y-92458758D02*
X178994571Y-92363520D01*
X179613619Y-91934948D02*
X178613619Y-91934948D01*
X179232666Y-91839710D02*
X179613619Y-91553996D01*
X178946952Y-91553996D02*
X179327904Y-91934948D01*
X179613619Y-91125424D02*
X178613619Y-91125424D01*
X179613619Y-90696853D02*
X179089809Y-90696853D01*
X179089809Y-90696853D02*
X178994571Y-90744472D01*
X178994571Y-90744472D02*
X178946952Y-90839710D01*
X178946952Y-90839710D02*
X178946952Y-90982567D01*
X178946952Y-90982567D02*
X178994571Y-91077805D01*
X178994571Y-91077805D02*
X179042190Y-91125424D01*
X179566000Y-89839710D02*
X179613619Y-89934948D01*
X179613619Y-89934948D02*
X179613619Y-90125424D01*
X179613619Y-90125424D02*
X179566000Y-90220662D01*
X179566000Y-90220662D02*
X179470761Y-90268281D01*
X179470761Y-90268281D02*
X179089809Y-90268281D01*
X179089809Y-90268281D02*
X178994571Y-90220662D01*
X178994571Y-90220662D02*
X178946952Y-90125424D01*
X178946952Y-90125424D02*
X178946952Y-89934948D01*
X178946952Y-89934948D02*
X178994571Y-89839710D01*
X178994571Y-89839710D02*
X179089809Y-89792091D01*
X179089809Y-89792091D02*
X179185047Y-89792091D01*
X179185047Y-89792091D02*
X179280285Y-90268281D01*
X179566000Y-88982567D02*
X179613619Y-89077805D01*
X179613619Y-89077805D02*
X179613619Y-89268281D01*
X179613619Y-89268281D02*
X179566000Y-89363519D01*
X179566000Y-89363519D02*
X179470761Y-89411138D01*
X179470761Y-89411138D02*
X179089809Y-89411138D01*
X179089809Y-89411138D02*
X178994571Y-89363519D01*
X178994571Y-89363519D02*
X178946952Y-89268281D01*
X178946952Y-89268281D02*
X178946952Y-89077805D01*
X178946952Y-89077805D02*
X178994571Y-88982567D01*
X178994571Y-88982567D02*
X179089809Y-88934948D01*
X179089809Y-88934948D02*
X179185047Y-88934948D01*
X179185047Y-88934948D02*
X179280285Y-89411138D01*
X179613619Y-88506376D02*
X178946952Y-88506376D01*
X179137428Y-88506376D02*
X179042190Y-88458757D01*
X179042190Y-88458757D02*
X178994571Y-88411138D01*
X178994571Y-88411138D02*
X178946952Y-88315900D01*
X178946952Y-88315900D02*
X178946952Y-88220662D01*
X179566000Y-87506376D02*
X179613619Y-87601614D01*
X179613619Y-87601614D02*
X179613619Y-87792090D01*
X179613619Y-87792090D02*
X179566000Y-87887328D01*
X179566000Y-87887328D02*
X179470761Y-87934947D01*
X179470761Y-87934947D02*
X179089809Y-87934947D01*
X179089809Y-87934947D02*
X178994571Y-87887328D01*
X178994571Y-87887328D02*
X178946952Y-87792090D01*
X178946952Y-87792090D02*
X178946952Y-87601614D01*
X178946952Y-87601614D02*
X178994571Y-87506376D01*
X178994571Y-87506376D02*
X179089809Y-87458757D01*
X179089809Y-87458757D02*
X179185047Y-87458757D01*
X179185047Y-87458757D02*
X179280285Y-87934947D01*
X179566000Y-86982566D02*
X179613619Y-86982566D01*
X179613619Y-86982566D02*
X179708857Y-87030185D01*
X179708857Y-87030185D02*
X179756476Y-87077804D01*
X180233619Y-114030190D02*
X180947904Y-114030190D01*
X180947904Y-114030190D02*
X181090761Y-114077809D01*
X181090761Y-114077809D02*
X181186000Y-114173047D01*
X181186000Y-114173047D02*
X181233619Y-114315904D01*
X181233619Y-114315904D02*
X181233619Y-114411142D01*
X181233619Y-113411142D02*
X181186000Y-113506380D01*
X181186000Y-113506380D02*
X181138380Y-113553999D01*
X181138380Y-113553999D02*
X181043142Y-113601618D01*
X181043142Y-113601618D02*
X180757428Y-113601618D01*
X180757428Y-113601618D02*
X180662190Y-113553999D01*
X180662190Y-113553999D02*
X180614571Y-113506380D01*
X180614571Y-113506380D02*
X180566952Y-113411142D01*
X180566952Y-113411142D02*
X180566952Y-113268285D01*
X180566952Y-113268285D02*
X180614571Y-113173047D01*
X180614571Y-113173047D02*
X180662190Y-113125428D01*
X180662190Y-113125428D02*
X180757428Y-113077809D01*
X180757428Y-113077809D02*
X181043142Y-113077809D01*
X181043142Y-113077809D02*
X181138380Y-113125428D01*
X181138380Y-113125428D02*
X181186000Y-113173047D01*
X181186000Y-113173047D02*
X181233619Y-113268285D01*
X181233619Y-113268285D02*
X181233619Y-113411142D01*
X180566952Y-112649237D02*
X181233619Y-112649237D01*
X180662190Y-112649237D02*
X180614571Y-112601618D01*
X180614571Y-112601618D02*
X180566952Y-112506380D01*
X180566952Y-112506380D02*
X180566952Y-112363523D01*
X180566952Y-112363523D02*
X180614571Y-112268285D01*
X180614571Y-112268285D02*
X180709809Y-112220666D01*
X180709809Y-112220666D02*
X181233619Y-112220666D01*
X181233619Y-111315904D02*
X180709809Y-111315904D01*
X180709809Y-111315904D02*
X180614571Y-111363523D01*
X180614571Y-111363523D02*
X180566952Y-111458761D01*
X180566952Y-111458761D02*
X180566952Y-111649237D01*
X180566952Y-111649237D02*
X180614571Y-111744475D01*
X181186000Y-111315904D02*
X181233619Y-111411142D01*
X181233619Y-111411142D02*
X181233619Y-111649237D01*
X181233619Y-111649237D02*
X181186000Y-111744475D01*
X181186000Y-111744475D02*
X181090761Y-111792094D01*
X181090761Y-111792094D02*
X180995523Y-111792094D01*
X180995523Y-111792094D02*
X180900285Y-111744475D01*
X180900285Y-111744475D02*
X180852666Y-111649237D01*
X180852666Y-111649237D02*
X180852666Y-111411142D01*
X180852666Y-111411142D02*
X180805047Y-111315904D01*
X180566952Y-110982570D02*
X180566952Y-110601618D01*
X180233619Y-110839713D02*
X181090761Y-110839713D01*
X181090761Y-110839713D02*
X181186000Y-110792094D01*
X181186000Y-110792094D02*
X181233619Y-110696856D01*
X181233619Y-110696856D02*
X181233619Y-110601618D01*
X181233619Y-110268284D02*
X180233619Y-110268284D01*
X181233619Y-109839713D02*
X180709809Y-109839713D01*
X180709809Y-109839713D02*
X180614571Y-109887332D01*
X180614571Y-109887332D02*
X180566952Y-109982570D01*
X180566952Y-109982570D02*
X180566952Y-110125427D01*
X180566952Y-110125427D02*
X180614571Y-110220665D01*
X180614571Y-110220665D02*
X180662190Y-110268284D01*
X181233619Y-108934951D02*
X180709809Y-108934951D01*
X180709809Y-108934951D02*
X180614571Y-108982570D01*
X180614571Y-108982570D02*
X180566952Y-109077808D01*
X180566952Y-109077808D02*
X180566952Y-109268284D01*
X180566952Y-109268284D02*
X180614571Y-109363522D01*
X181186000Y-108934951D02*
X181233619Y-109030189D01*
X181233619Y-109030189D02*
X181233619Y-109268284D01*
X181233619Y-109268284D02*
X181186000Y-109363522D01*
X181186000Y-109363522D02*
X181090761Y-109411141D01*
X181090761Y-109411141D02*
X180995523Y-109411141D01*
X180995523Y-109411141D02*
X180900285Y-109363522D01*
X180900285Y-109363522D02*
X180852666Y-109268284D01*
X180852666Y-109268284D02*
X180852666Y-109030189D01*
X180852666Y-109030189D02*
X180805047Y-108934951D01*
X180566952Y-108458760D02*
X181233619Y-108458760D01*
X180662190Y-108458760D02*
X180614571Y-108411141D01*
X180614571Y-108411141D02*
X180566952Y-108315903D01*
X180566952Y-108315903D02*
X180566952Y-108173046D01*
X180566952Y-108173046D02*
X180614571Y-108077808D01*
X180614571Y-108077808D02*
X180709809Y-108030189D01*
X180709809Y-108030189D02*
X181233619Y-108030189D01*
X180281238Y-106268284D02*
X180233619Y-106363522D01*
X180233619Y-106363522D02*
X180233619Y-106506379D01*
X180233619Y-106506379D02*
X180281238Y-106649236D01*
X180281238Y-106649236D02*
X180376476Y-106744474D01*
X180376476Y-106744474D02*
X180471714Y-106792093D01*
X180471714Y-106792093D02*
X180662190Y-106839712D01*
X180662190Y-106839712D02*
X180805047Y-106839712D01*
X180805047Y-106839712D02*
X180995523Y-106792093D01*
X180995523Y-106792093D02*
X181090761Y-106744474D01*
X181090761Y-106744474D02*
X181186000Y-106649236D01*
X181186000Y-106649236D02*
X181233619Y-106506379D01*
X181233619Y-106506379D02*
X181233619Y-106411141D01*
X181233619Y-106411141D02*
X181186000Y-106268284D01*
X181186000Y-106268284D02*
X181138380Y-106220665D01*
X181138380Y-106220665D02*
X180805047Y-106220665D01*
X180805047Y-106220665D02*
X180805047Y-106411141D01*
X181233619Y-105792093D02*
X180233619Y-105792093D01*
X181233619Y-105363522D02*
X180709809Y-105363522D01*
X180709809Y-105363522D02*
X180614571Y-105411141D01*
X180614571Y-105411141D02*
X180566952Y-105506379D01*
X180566952Y-105506379D02*
X180566952Y-105649236D01*
X180566952Y-105649236D02*
X180614571Y-105744474D01*
X180614571Y-105744474D02*
X180662190Y-105792093D01*
X181186000Y-104506379D02*
X181233619Y-104601617D01*
X181233619Y-104601617D02*
X181233619Y-104792093D01*
X181233619Y-104792093D02*
X181186000Y-104887331D01*
X181186000Y-104887331D02*
X181090761Y-104934950D01*
X181090761Y-104934950D02*
X180709809Y-104934950D01*
X180709809Y-104934950D02*
X180614571Y-104887331D01*
X180614571Y-104887331D02*
X180566952Y-104792093D01*
X180566952Y-104792093D02*
X180566952Y-104601617D01*
X180566952Y-104601617D02*
X180614571Y-104506379D01*
X180614571Y-104506379D02*
X180709809Y-104458760D01*
X180709809Y-104458760D02*
X180805047Y-104458760D01*
X180805047Y-104458760D02*
X180900285Y-104934950D01*
X180566952Y-104125426D02*
X181233619Y-103887331D01*
X180566952Y-103649236D02*
X181233619Y-103887331D01*
X181233619Y-103887331D02*
X181471714Y-103982569D01*
X181471714Y-103982569D02*
X181519333Y-104030188D01*
X181519333Y-104030188D02*
X181566952Y-104125426D01*
X181186000Y-103315902D02*
X181233619Y-103220664D01*
X181233619Y-103220664D02*
X181233619Y-103030188D01*
X181233619Y-103030188D02*
X181186000Y-102934950D01*
X181186000Y-102934950D02*
X181090761Y-102887331D01*
X181090761Y-102887331D02*
X181043142Y-102887331D01*
X181043142Y-102887331D02*
X180947904Y-102934950D01*
X180947904Y-102934950D02*
X180900285Y-103030188D01*
X180900285Y-103030188D02*
X180900285Y-103173045D01*
X180900285Y-103173045D02*
X180852666Y-103268283D01*
X180852666Y-103268283D02*
X180757428Y-103315902D01*
X180757428Y-103315902D02*
X180709809Y-103315902D01*
X180709809Y-103315902D02*
X180614571Y-103268283D01*
X180614571Y-103268283D02*
X180566952Y-103173045D01*
X180566952Y-103173045D02*
X180566952Y-103030188D01*
X180566952Y-103030188D02*
X180614571Y-102934950D01*
X181186000Y-102077807D02*
X181233619Y-102173045D01*
X181233619Y-102173045D02*
X181233619Y-102363521D01*
X181233619Y-102363521D02*
X181186000Y-102458759D01*
X181186000Y-102458759D02*
X181090761Y-102506378D01*
X181090761Y-102506378D02*
X180709809Y-102506378D01*
X180709809Y-102506378D02*
X180614571Y-102458759D01*
X180614571Y-102458759D02*
X180566952Y-102363521D01*
X180566952Y-102363521D02*
X180566952Y-102173045D01*
X180566952Y-102173045D02*
X180614571Y-102077807D01*
X180614571Y-102077807D02*
X180709809Y-102030188D01*
X180709809Y-102030188D02*
X180805047Y-102030188D01*
X180805047Y-102030188D02*
X180900285Y-102506378D01*
X180566952Y-101601616D02*
X181233619Y-101601616D01*
X180662190Y-101601616D02*
X180614571Y-101553997D01*
X180614571Y-101553997D02*
X180566952Y-101458759D01*
X180566952Y-101458759D02*
X180566952Y-101315902D01*
X180566952Y-101315902D02*
X180614571Y-101220664D01*
X180614571Y-101220664D02*
X180709809Y-101173045D01*
X180709809Y-101173045D02*
X181233619Y-101173045D01*
X181186000Y-100744473D02*
X181233619Y-100649235D01*
X181233619Y-100649235D02*
X181233619Y-100458759D01*
X181233619Y-100458759D02*
X181186000Y-100363521D01*
X181186000Y-100363521D02*
X181090761Y-100315902D01*
X181090761Y-100315902D02*
X181043142Y-100315902D01*
X181043142Y-100315902D02*
X180947904Y-100363521D01*
X180947904Y-100363521D02*
X180900285Y-100458759D01*
X180900285Y-100458759D02*
X180900285Y-100601616D01*
X180900285Y-100601616D02*
X180852666Y-100696854D01*
X180852666Y-100696854D02*
X180757428Y-100744473D01*
X180757428Y-100744473D02*
X180709809Y-100744473D01*
X180709809Y-100744473D02*
X180614571Y-100696854D01*
X180614571Y-100696854D02*
X180566952Y-100601616D01*
X180566952Y-100601616D02*
X180566952Y-100458759D01*
X180566952Y-100458759D02*
X180614571Y-100363521D01*
X181186000Y-98744473D02*
X181233619Y-98839711D01*
X181233619Y-98839711D02*
X181233619Y-99030187D01*
X181233619Y-99030187D02*
X181186000Y-99125425D01*
X181186000Y-99125425D02*
X181090761Y-99173044D01*
X181090761Y-99173044D02*
X180709809Y-99173044D01*
X180709809Y-99173044D02*
X180614571Y-99125425D01*
X180614571Y-99125425D02*
X180566952Y-99030187D01*
X180566952Y-99030187D02*
X180566952Y-98839711D01*
X180566952Y-98839711D02*
X180614571Y-98744473D01*
X180614571Y-98744473D02*
X180709809Y-98696854D01*
X180709809Y-98696854D02*
X180805047Y-98696854D01*
X180805047Y-98696854D02*
X180900285Y-99173044D01*
X180566952Y-98268282D02*
X181233619Y-98268282D01*
X180662190Y-98268282D02*
X180614571Y-98220663D01*
X180614571Y-98220663D02*
X180566952Y-98125425D01*
X180566952Y-98125425D02*
X180566952Y-97982568D01*
X180566952Y-97982568D02*
X180614571Y-97887330D01*
X180614571Y-97887330D02*
X180709809Y-97839711D01*
X180709809Y-97839711D02*
X181233619Y-97839711D01*
X180709809Y-96601615D02*
X180709809Y-96268282D01*
X181233619Y-96125425D02*
X181233619Y-96601615D01*
X181233619Y-96601615D02*
X180233619Y-96601615D01*
X180233619Y-96601615D02*
X180233619Y-96125425D01*
X181233619Y-95696853D02*
X180566952Y-95696853D01*
X180662190Y-95696853D02*
X180614571Y-95649234D01*
X180614571Y-95649234D02*
X180566952Y-95553996D01*
X180566952Y-95553996D02*
X180566952Y-95411139D01*
X180566952Y-95411139D02*
X180614571Y-95315901D01*
X180614571Y-95315901D02*
X180709809Y-95268282D01*
X180709809Y-95268282D02*
X181233619Y-95268282D01*
X180709809Y-95268282D02*
X180614571Y-95220663D01*
X180614571Y-95220663D02*
X180566952Y-95125425D01*
X180566952Y-95125425D02*
X180566952Y-94982568D01*
X180566952Y-94982568D02*
X180614571Y-94887329D01*
X180614571Y-94887329D02*
X180709809Y-94839710D01*
X180709809Y-94839710D02*
X181233619Y-94839710D01*
X181233619Y-94363520D02*
X180566952Y-94363520D01*
X180233619Y-94363520D02*
X180281238Y-94411139D01*
X180281238Y-94411139D02*
X180328857Y-94363520D01*
X180328857Y-94363520D02*
X180281238Y-94315901D01*
X180281238Y-94315901D02*
X180233619Y-94363520D01*
X180233619Y-94363520D02*
X180328857Y-94363520D01*
X181186000Y-93506378D02*
X181233619Y-93601616D01*
X181233619Y-93601616D02*
X181233619Y-93792092D01*
X181233619Y-93792092D02*
X181186000Y-93887330D01*
X181186000Y-93887330D02*
X181090761Y-93934949D01*
X181090761Y-93934949D02*
X180709809Y-93934949D01*
X180709809Y-93934949D02*
X180614571Y-93887330D01*
X180614571Y-93887330D02*
X180566952Y-93792092D01*
X180566952Y-93792092D02*
X180566952Y-93601616D01*
X180566952Y-93601616D02*
X180614571Y-93506378D01*
X180614571Y-93506378D02*
X180709809Y-93458759D01*
X180709809Y-93458759D02*
X180805047Y-93458759D01*
X180805047Y-93458759D02*
X180900285Y-93934949D01*
X181233619Y-92887330D02*
X181186000Y-92982568D01*
X181186000Y-92982568D02*
X181090761Y-93030187D01*
X181090761Y-93030187D02*
X180233619Y-93030187D01*
X181233619Y-91744472D02*
X180233619Y-91744472D01*
X180233619Y-91744472D02*
X180233619Y-91506377D01*
X180233619Y-91506377D02*
X180281238Y-91363520D01*
X180281238Y-91363520D02*
X180376476Y-91268282D01*
X180376476Y-91268282D02*
X180471714Y-91220663D01*
X180471714Y-91220663D02*
X180662190Y-91173044D01*
X180662190Y-91173044D02*
X180805047Y-91173044D01*
X180805047Y-91173044D02*
X180995523Y-91220663D01*
X180995523Y-91220663D02*
X181090761Y-91268282D01*
X181090761Y-91268282D02*
X181186000Y-91363520D01*
X181186000Y-91363520D02*
X181233619Y-91506377D01*
X181233619Y-91506377D02*
X181233619Y-91744472D01*
X181186000Y-90363520D02*
X181233619Y-90458758D01*
X181233619Y-90458758D02*
X181233619Y-90649234D01*
X181233619Y-90649234D02*
X181186000Y-90744472D01*
X181186000Y-90744472D02*
X181090761Y-90792091D01*
X181090761Y-90792091D02*
X180709809Y-90792091D01*
X180709809Y-90792091D02*
X180614571Y-90744472D01*
X180614571Y-90744472D02*
X180566952Y-90649234D01*
X180566952Y-90649234D02*
X180566952Y-90458758D01*
X180566952Y-90458758D02*
X180614571Y-90363520D01*
X180614571Y-90363520D02*
X180709809Y-90315901D01*
X180709809Y-90315901D02*
X180805047Y-90315901D01*
X180805047Y-90315901D02*
X180900285Y-90792091D01*
X180566952Y-89982567D02*
X181233619Y-89744472D01*
X181233619Y-89744472D02*
X180566952Y-89506377D01*
X181186000Y-88744472D02*
X181233619Y-88839710D01*
X181233619Y-88839710D02*
X181233619Y-89030186D01*
X181233619Y-89030186D02*
X181186000Y-89125424D01*
X181186000Y-89125424D02*
X181090761Y-89173043D01*
X181090761Y-89173043D02*
X180709809Y-89173043D01*
X180709809Y-89173043D02*
X180614571Y-89125424D01*
X180614571Y-89125424D02*
X180566952Y-89030186D01*
X180566952Y-89030186D02*
X180566952Y-88839710D01*
X180566952Y-88839710D02*
X180614571Y-88744472D01*
X180614571Y-88744472D02*
X180709809Y-88696853D01*
X180709809Y-88696853D02*
X180805047Y-88696853D01*
X180805047Y-88696853D02*
X180900285Y-89173043D01*
X181233619Y-88268281D02*
X180566952Y-88268281D01*
X180757428Y-88268281D02*
X180662190Y-88220662D01*
X180662190Y-88220662D02*
X180614571Y-88173043D01*
X180614571Y-88173043D02*
X180566952Y-88077805D01*
X180566952Y-88077805D02*
X180566952Y-87982567D01*
X180233619Y-87030185D02*
X181233619Y-86696852D01*
X181233619Y-86696852D02*
X180233619Y-86363519D01*
X181233619Y-85506376D02*
X181233619Y-86077804D01*
X181233619Y-85792090D02*
X180233619Y-85792090D01*
X180233619Y-85792090D02*
X180376476Y-85887328D01*
X180376476Y-85887328D02*
X180471714Y-85982566D01*
X180471714Y-85982566D02*
X180519333Y-86077804D01*
X181138380Y-85077804D02*
X181186000Y-85030185D01*
X181186000Y-85030185D02*
X181233619Y-85077804D01*
X181233619Y-85077804D02*
X181186000Y-85125423D01*
X181186000Y-85125423D02*
X181138380Y-85077804D01*
X181138380Y-85077804D02*
X181233619Y-85077804D01*
X180233619Y-84411138D02*
X180233619Y-84315900D01*
X180233619Y-84315900D02*
X180281238Y-84220662D01*
X180281238Y-84220662D02*
X180328857Y-84173043D01*
X180328857Y-84173043D02*
X180424095Y-84125424D01*
X180424095Y-84125424D02*
X180614571Y-84077805D01*
X180614571Y-84077805D02*
X180852666Y-84077805D01*
X180852666Y-84077805D02*
X181043142Y-84125424D01*
X181043142Y-84125424D02*
X181138380Y-84173043D01*
X181138380Y-84173043D02*
X181186000Y-84220662D01*
X181186000Y-84220662D02*
X181233619Y-84315900D01*
X181233619Y-84315900D02*
X181233619Y-84411138D01*
X181233619Y-84411138D02*
X181186000Y-84506376D01*
X181186000Y-84506376D02*
X181138380Y-84553995D01*
X181138380Y-84553995D02*
X181043142Y-84601614D01*
X181043142Y-84601614D02*
X180852666Y-84649233D01*
X180852666Y-84649233D02*
X180614571Y-84649233D01*
X180614571Y-84649233D02*
X180424095Y-84601614D01*
X180424095Y-84601614D02*
X180328857Y-84553995D01*
X180328857Y-84553995D02*
X180281238Y-84506376D01*
X180281238Y-84506376D02*
X180233619Y-84411138D01*
%TO.C,C23*%
X113397380Y-111640857D02*
X113445000Y-111688476D01*
X113445000Y-111688476D02*
X113492619Y-111831333D01*
X113492619Y-111831333D02*
X113492619Y-111926571D01*
X113492619Y-111926571D02*
X113445000Y-112069428D01*
X113445000Y-112069428D02*
X113349761Y-112164666D01*
X113349761Y-112164666D02*
X113254523Y-112212285D01*
X113254523Y-112212285D02*
X113064047Y-112259904D01*
X113064047Y-112259904D02*
X112921190Y-112259904D01*
X112921190Y-112259904D02*
X112730714Y-112212285D01*
X112730714Y-112212285D02*
X112635476Y-112164666D01*
X112635476Y-112164666D02*
X112540238Y-112069428D01*
X112540238Y-112069428D02*
X112492619Y-111926571D01*
X112492619Y-111926571D02*
X112492619Y-111831333D01*
X112492619Y-111831333D02*
X112540238Y-111688476D01*
X112540238Y-111688476D02*
X112587857Y-111640857D01*
X112587857Y-111259904D02*
X112540238Y-111212285D01*
X112540238Y-111212285D02*
X112492619Y-111117047D01*
X112492619Y-111117047D02*
X112492619Y-110878952D01*
X112492619Y-110878952D02*
X112540238Y-110783714D01*
X112540238Y-110783714D02*
X112587857Y-110736095D01*
X112587857Y-110736095D02*
X112683095Y-110688476D01*
X112683095Y-110688476D02*
X112778333Y-110688476D01*
X112778333Y-110688476D02*
X112921190Y-110736095D01*
X112921190Y-110736095D02*
X113492619Y-111307523D01*
X113492619Y-111307523D02*
X113492619Y-110688476D01*
X112492619Y-110355142D02*
X112492619Y-109736095D01*
X112492619Y-109736095D02*
X112873571Y-110069428D01*
X112873571Y-110069428D02*
X112873571Y-109926571D01*
X112873571Y-109926571D02*
X112921190Y-109831333D01*
X112921190Y-109831333D02*
X112968809Y-109783714D01*
X112968809Y-109783714D02*
X113064047Y-109736095D01*
X113064047Y-109736095D02*
X113302142Y-109736095D01*
X113302142Y-109736095D02*
X113397380Y-109783714D01*
X113397380Y-109783714D02*
X113445000Y-109831333D01*
X113445000Y-109831333D02*
X113492619Y-109926571D01*
X113492619Y-109926571D02*
X113492619Y-110212285D01*
X113492619Y-110212285D02*
X113445000Y-110307523D01*
X113445000Y-110307523D02*
X113397380Y-110355142D01*
%TO.C,J6*%
X103806666Y-112746619D02*
X103806666Y-113460904D01*
X103806666Y-113460904D02*
X103759047Y-113603761D01*
X103759047Y-113603761D02*
X103663809Y-113699000D01*
X103663809Y-113699000D02*
X103520952Y-113746619D01*
X103520952Y-113746619D02*
X103425714Y-113746619D01*
X104711428Y-112746619D02*
X104520952Y-112746619D01*
X104520952Y-112746619D02*
X104425714Y-112794238D01*
X104425714Y-112794238D02*
X104378095Y-112841857D01*
X104378095Y-112841857D02*
X104282857Y-112984714D01*
X104282857Y-112984714D02*
X104235238Y-113175190D01*
X104235238Y-113175190D02*
X104235238Y-113556142D01*
X104235238Y-113556142D02*
X104282857Y-113651380D01*
X104282857Y-113651380D02*
X104330476Y-113699000D01*
X104330476Y-113699000D02*
X104425714Y-113746619D01*
X104425714Y-113746619D02*
X104616190Y-113746619D01*
X104616190Y-113746619D02*
X104711428Y-113699000D01*
X104711428Y-113699000D02*
X104759047Y-113651380D01*
X104759047Y-113651380D02*
X104806666Y-113556142D01*
X104806666Y-113556142D02*
X104806666Y-113318047D01*
X104806666Y-113318047D02*
X104759047Y-113222809D01*
X104759047Y-113222809D02*
X104711428Y-113175190D01*
X104711428Y-113175190D02*
X104616190Y-113127571D01*
X104616190Y-113127571D02*
X104425714Y-113127571D01*
X104425714Y-113127571D02*
X104330476Y-113175190D01*
X104330476Y-113175190D02*
X104282857Y-113222809D01*
X104282857Y-113222809D02*
X104235238Y-113318047D01*
%TO.C,J1*%
X130526619Y-112855333D02*
X131240904Y-112855333D01*
X131240904Y-112855333D02*
X131383761Y-112902952D01*
X131383761Y-112902952D02*
X131479000Y-112998190D01*
X131479000Y-112998190D02*
X131526619Y-113141047D01*
X131526619Y-113141047D02*
X131526619Y-113236285D01*
X131526619Y-111855333D02*
X131526619Y-112426761D01*
X131526619Y-112141047D02*
X130526619Y-112141047D01*
X130526619Y-112141047D02*
X130669476Y-112236285D01*
X130669476Y-112236285D02*
X130764714Y-112331523D01*
X130764714Y-112331523D02*
X130812333Y-112426761D01*
%TO.C,J2*%
X142550956Y-113233869D02*
X142550956Y-113948959D01*
X142550956Y-113948959D02*
X142503283Y-114091977D01*
X142503283Y-114091977D02*
X142407938Y-114187323D01*
X142407938Y-114187323D02*
X142264920Y-114234995D01*
X142264920Y-114234995D02*
X142169575Y-114234995D01*
X142980010Y-113329215D02*
X143027683Y-113281542D01*
X143027683Y-113281542D02*
X143123028Y-113233869D01*
X143123028Y-113233869D02*
X143361392Y-113233869D01*
X143361392Y-113233869D02*
X143456737Y-113281542D01*
X143456737Y-113281542D02*
X143504410Y-113329215D01*
X143504410Y-113329215D02*
X143552082Y-113424560D01*
X143552082Y-113424560D02*
X143552082Y-113519905D01*
X143552082Y-113519905D02*
X143504410Y-113662923D01*
X143504410Y-113662923D02*
X142932338Y-114234995D01*
X142932338Y-114234995D02*
X143552082Y-114234995D01*
%TO.C,BT1*%
X170664285Y-110428809D02*
X170807142Y-110476428D01*
X170807142Y-110476428D02*
X170854761Y-110524047D01*
X170854761Y-110524047D02*
X170902380Y-110619285D01*
X170902380Y-110619285D02*
X170902380Y-110762142D01*
X170902380Y-110762142D02*
X170854761Y-110857380D01*
X170854761Y-110857380D02*
X170807142Y-110905000D01*
X170807142Y-110905000D02*
X170711904Y-110952619D01*
X170711904Y-110952619D02*
X170330952Y-110952619D01*
X170330952Y-110952619D02*
X170330952Y-109952619D01*
X170330952Y-109952619D02*
X170664285Y-109952619D01*
X170664285Y-109952619D02*
X170759523Y-110000238D01*
X170759523Y-110000238D02*
X170807142Y-110047857D01*
X170807142Y-110047857D02*
X170854761Y-110143095D01*
X170854761Y-110143095D02*
X170854761Y-110238333D01*
X170854761Y-110238333D02*
X170807142Y-110333571D01*
X170807142Y-110333571D02*
X170759523Y-110381190D01*
X170759523Y-110381190D02*
X170664285Y-110428809D01*
X170664285Y-110428809D02*
X170330952Y-110428809D01*
X171188095Y-109952619D02*
X171759523Y-109952619D01*
X171473809Y-110952619D02*
X171473809Y-109952619D01*
X172616666Y-110952619D02*
X172045238Y-110952619D01*
X172330952Y-110952619D02*
X172330952Y-109952619D01*
X172330952Y-109952619D02*
X172235714Y-110095476D01*
X172235714Y-110095476D02*
X172140476Y-110190714D01*
X172140476Y-110190714D02*
X172045238Y-110238333D01*
%TO.C,J4*%
X120827869Y-112465043D02*
X121542959Y-112465043D01*
X121542959Y-112465043D02*
X121685977Y-112512716D01*
X121685977Y-112512716D02*
X121781323Y-112608061D01*
X121781323Y-112608061D02*
X121828995Y-112751079D01*
X121828995Y-112751079D02*
X121828995Y-112846425D01*
X121161578Y-111559262D02*
X121828995Y-111559262D01*
X120780197Y-111797626D02*
X121495287Y-112035989D01*
X121495287Y-112035989D02*
X121495287Y-111416244D01*
%TO.C,J3*%
X139465619Y-111585333D02*
X140179904Y-111585333D01*
X140179904Y-111585333D02*
X140322761Y-111632952D01*
X140322761Y-111632952D02*
X140418000Y-111728190D01*
X140418000Y-111728190D02*
X140465619Y-111871047D01*
X140465619Y-111871047D02*
X140465619Y-111966285D01*
X139465619Y-111204380D02*
X139465619Y-110585333D01*
X139465619Y-110585333D02*
X139846571Y-110918666D01*
X139846571Y-110918666D02*
X139846571Y-110775809D01*
X139846571Y-110775809D02*
X139894190Y-110680571D01*
X139894190Y-110680571D02*
X139941809Y-110632952D01*
X139941809Y-110632952D02*
X140037047Y-110585333D01*
X140037047Y-110585333D02*
X140275142Y-110585333D01*
X140275142Y-110585333D02*
X140370380Y-110632952D01*
X140370380Y-110632952D02*
X140418000Y-110680571D01*
X140418000Y-110680571D02*
X140465619Y-110775809D01*
X140465619Y-110775809D02*
X140465619Y-111061523D01*
X140465619Y-111061523D02*
X140418000Y-111156761D01*
X140418000Y-111156761D02*
X140370380Y-111204380D01*
D11*
%TO.C,C23*%
X115797000Y-110736748D02*
X115797000Y-111259252D01*
X114327000Y-110736748D02*
X114327000Y-111259252D01*
%TO.C,J6*%
X104140000Y-109414000D02*
X101540000Y-109414000D01*
X104140000Y-109414000D02*
X104140000Y-112074000D01*
X101540000Y-109414000D02*
X101540000Y-112074000D01*
X106740000Y-110744000D02*
X106740000Y-112074000D01*
X106740000Y-112074000D02*
X105410000Y-112074000D01*
X104140000Y-112074000D02*
X101540000Y-112074000D01*
%TO.C,J1*%
X129981000Y-110302000D02*
X123511000Y-110302000D01*
X129981000Y-110302000D02*
X129981000Y-110944470D01*
X123511000Y-110302000D02*
X123511000Y-110944470D01*
X129981000Y-111559530D02*
X129981000Y-111762000D01*
X123511000Y-111559530D02*
X123511000Y-112214470D01*
X130046000Y-112522000D02*
X130046000Y-113472000D01*
X123511000Y-112829530D02*
X123511000Y-113472000D01*
X128651000Y-113282000D02*
X128651000Y-113472000D01*
X130046000Y-113472000D02*
X129286000Y-113472000D01*
X128651000Y-113472000D02*
X123511000Y-113472000D01*
D12*
%TO.C,J2*%
X141956000Y-112832000D02*
X144556000Y-112832000D01*
%TO.C,BT1*%
X100620000Y-68923000D02*
X177680000Y-68923000D01*
X100620000Y-108703000D02*
X100620000Y-68923000D01*
X177680000Y-68923000D02*
X177680000Y-108703000D01*
X177680000Y-108703000D02*
X100620000Y-108703000D01*
X178215000Y-98418000D02*
X179215000Y-98418000D01*
X178715000Y-97918000D02*
X178715000Y-98918000D01*
X179215000Y-79248000D02*
X178215000Y-79248000D01*
%TO.C,J4*%
X120426000Y-113060000D02*
X120426000Y-110460000D01*
D11*
%TO.C,J3*%
X139003000Y-109922000D02*
X139003000Y-111252000D01*
X137673000Y-109922000D02*
X139003000Y-109922000D01*
X136403000Y-109922000D02*
X133803000Y-109922000D01*
X136403000Y-109922000D02*
X136403000Y-112582000D01*
X133803000Y-109922000D02*
X133803000Y-112582000D01*
X136403000Y-112582000D02*
X133803000Y-112582000D01*
%TD*%
M02*
